<?xml version="1.0" encoding="utf-8" standalone="no"?>
<!DOCTYPE svg PUBLIC "-//W3C//DTD SVG 1.1//EN"
  "http://www.w3.org/Graphics/SVG/1.1/DTD/svg11.dtd">
<svg xmlns:xlink="http://www.w3.org/1999/xlink" width="720pt" height="576pt" viewBox="0 0 720 576" xmlns="http://www.w3.org/2000/svg" version="1.1">
 <metadata>
  <rdf:RDF xmlns:dc="http://purl.org/dc/elements/1.1/" xmlns:cc="http://creativecommons.org/ns#" xmlns:rdf="http://www.w3.org/1999/02/22-rdf-syntax-ns#">
   <cc:Work>
    <dc:type rdf:resource="http://purl.org/dc/dcmitype/StillImage"/>
    <dc:date>1980-01-01T00:00:00+00:00</dc:date>
    <dc:format>image/svg+xml</dc:format>
    <dc:creator>
     <cc:Agent>
      <dc:title>Matplotlib v3.10.1, https://matplotlib.org/</dc:title>
     </cc:Agent>
    </dc:creator>
   </cc:Work>
  </rdf:RDF>
 </metadata>
 <defs>
  <style type="text/css">*{stroke-linejoin: round; stroke-linecap: butt}</style>
 </defs>
 <g id="figure_1">
  <g id="patch_1">
   <path d="M 0 576 
L 720 576 
L 720 0 
L 0 0 
z
" style="fill: #ffffff"/>
  </g>
  <g id="axes_1">
   <g id="patch_2">
    <path d="M 47.81 398.79 
L 629.378182 398.79 
L 629.378182 25.44 
L 47.81 25.44 
z
" style="fill: #ffffff"/>
   </g>
   <g id="FillBetweenPolyCollection_1">
    <defs>
     <path id="m6d4669c75f" d="M 74.244917 -285.817515 
L 74.244917 -194.272095 
L 79.585305 -238.402065 
L 84.925692 -243.74097 
L 90.266079 -265.02192 
L 95.606467 -274.50501 
L 100.946854 -280.217265 
L 106.287241 -271.779555 
L 111.627629 -279.5079 
L 116.968016 -269.912805 
L 122.308403 -267.822045 
L 127.648791 -269.838135 
L 132.989178 -271.928895 
L 138.329565 -282.19602 
L 143.669953 -289.999035 
L 149.01034 -276.334425 
L 154.350728 -260.69106 
L 159.691115 -257.55492 
L 165.031502 -272.152905 
L 170.37189 -293.09784 
L 175.712277 -309.30123 
L 181.052664 -304.559685 
L 186.393052 -312.922725 
L 191.733439 -315.42417 
L 197.073826 -301.274205 
L 202.414214 -300.26616 
L 207.754601 -309.338565 
L 213.094988 -320.20305 
L 218.435376 -340.625295 
L 223.775763 -353.50587 
L 229.11615 -349.560307 
L 234.456538 -347.459467 
L 239.796925 -354.830889 
L 245.137312 -336.294435 
L 250.4777 -345.9642 
L 255.818087 -345.411642 
L 261.158474 -361.883844 
L 266.498862 -367.545323 
L 271.839249 -380.424405 
L 277.179636 -373.89078 
L 282.520024 -361.361901 
L 287.860411 -358.50876 
L 293.200798 -357.61272 
L 298.541186 -353.417013 
L 303.881573 -347.30826 
L 309.221961 -347.4576 
L 314.562348 -358.80744 
L 319.902735 -350.14572 
L 325.243123 -355.484625 
L 330.58351 -358.06074 
L 335.923897 -356.71668 
L 341.264285 -368.29053 
L 346.604672 -364.78104 
L 351.945059 -359.4048 
L 357.285447 -364.78104 
L 362.625834 -384.456585 
L 367.966221 -382.675706 
L 373.306609 -400.838436 
L 378.646996 -396.324635 
L 383.987383 -389.608815 
L 389.327771 -366.71462 
L 394.668158 -379.976385 
L 400.008545 -379.195337 
L 405.348933 -355.30243 
L 410.68932 -354.451566 
L 416.029707 -350.780415 
L 421.370095 -345.51618 
L 426.710482 -355.29795 
L 432.050869 -377.437605 
L 437.391257 -391.102215 
L 442.731644 -392.147595 
L 448.072031 -392.595615 
L 453.412419 -384.083235 
L 458.752806 -392.446275 
L 464.093194 -385.203285 
L 469.433581 -387.18204 
L 474.773968 -404.468145 
L 480.114356 -410.292405 
L 485.454743 -412.229345 
L 490.79513 -409.359777 
L 496.135518 -406.96847 
L 501.475905 -413.963556 
L 506.816292 -434.67216 
L 512.15668 -429.204823 
L 517.497067 -446.850837 
L 522.837454 -427.827161 
L 528.177842 -431.98404 
L 533.518229 -435.978885 
L 538.858616 -426.142606 
L 544.199004 -415.369965 
L 549.539391 -416.067383 
L 554.879778 -428.949078 
L 560.220166 -434.43695 
L 565.560553 -425.571754 
L 570.90094 -428.586555 
L 576.241328 -441.653805 
L 581.581715 -424.629045 
L 586.922102 -420.596865 
L 592.26249 -426.122445 
L 597.602877 -429.258585 
L 602.943264 -412.831185 
L 602.943264 -469.953735 
L 602.943264 -469.953735 
L 597.602877 -443.744565 
L 592.26249 -449.419485 
L 586.922102 -465.06285 
L 581.581715 -466.892265 
L 576.241328 -452.256945 
L 570.90094 -473.687235 
L 565.560553 -469.655055 
L 560.220166 -459.499935 
L 554.879778 -453.899685 
L 549.539391 -449.419485 
L 544.199004 -440.533755 
L 538.858616 -433.589445 
L 533.518229 -455.05259 
L 528.177842 -456.17712 
L 522.837454 -450.35286 
L 517.497067 -460.58265 
L 512.15668 -452.7423 
L 506.816292 -457.558515 
L 501.475905 -463.308105 
L 496.135518 -451.62225 
L 490.79513 -436.426905 
L 485.454743 -424.778385 
L 480.114356 -439.124359 
L 474.773968 -428.451402 
L 469.433581 -420.435578 
L 464.093194 -418.199211 
L 458.752806 -402.285168 
L 453.412419 -420.841036 
L 448.072031 -404.488306 
L 442.731644 -406.857585 
L 437.391257 -397.26249 
L 432.050869 -391.66224 
L 426.710482 -379.41636 
L 421.370095 -391.157097 
L 416.029707 -410.774773 
L 410.68932 -374.71215 
L 405.348933 -385.949985 
L 400.008545 -390.39285 
L 394.668158 -394.87305 
L 389.327771 -406.52157 
L 383.987383 -406.07355 
L 378.646996 -407.380275 
L 373.306609 -406.782915 
L 367.966221 -421.23156 
L 362.625834 -429.258585 
L 357.285447 -429.855945 
L 351.945059 -430.005285 
L 346.604672 -417.373361 
L 341.264285 -395.574575 
L 335.923897 -401.560122 
L 330.58351 -383.411205 
L 325.243123 -396.96381 
L 319.902735 -397.086269 
L 314.562348 -392.64303 
L 309.221961 -390.062435 
L 303.881573 -383.784555 
L 298.541186 -375.38418 
L 293.200798 -379.19235 
L 287.860411 -396.06777 
L 282.520024 -392.48361 
L 277.179636 -390.712438 
L 271.839249 -390.102757 
L 266.498862 -405.289515 
L 261.158474 -397.78518 
L 255.818087 -377.064255 
L 250.4777 -356.458695 
L 245.137312 -360.667843 
L 239.796925 -362.98896 
L 234.456538 -383.261865 
L 229.11615 -383.261865 
L 223.775763 -379.5657 
L 218.435376 -369.821265 
L 213.094988 -356.530005 
L 207.754601 -361.49556 
L 202.414214 -368.66388 
L 197.073826 -372.210705 
L 191.733439 -369.970605 
L 186.393052 -355.633965 
L 181.052664 -324.545111 
L 175.712277 -312.948113 
L 170.37189 -323.024456 
L 165.031502 -319.703881 
L 159.691115 -286.2282 
L 154.350728 -318.3307 
L 149.01034 -306.351765 
L 143.669953 -302.547329 
L 138.329565 -302.6556 
L 132.989178 -302.20758 
L 127.648791 -302.618265 
L 122.308403 -293.287128 
L 116.968016 -291.549931 
L 111.627629 -295.437624 
L 106.287241 -308.85321 
L 100.946854 -316.805565 
L 95.606467 -312.13869 
L 90.266079 -303.32763 
L 84.925692 -280.62795 
L 79.585305 -256.446444 
L 74.244917 -285.817515 
z
" style="stroke: #0000ff; stroke-opacity: 0.33"/>
    </defs>
    <g clip-path="url(#p876deee8d4)">
     <use xlink:href="#m6d4669c75f" x="0" y="576" style="fill: #0000ff; fill-opacity: 0.33; stroke: #0000ff; stroke-opacity: 0.33"/>
    </g>
   </g>
   <g id="FillBetweenPolyCollection_2">
    <defs>
     <path id="m37b7b4a76d" d="M 74.244917 -226.26819 
L 74.244917 -177.21 
L 79.585305 -206.217876 
L 84.925692 -198.752295 
L 90.266079 -200.95506 
L 95.606467 -207.8247 
L 100.946854 -196.138845 
L 106.287241 -208.758075 
L 111.627629 -206.838795 
L 116.968016 -215.21479 
L 122.308403 -204.343585 
L 127.648791 -200.28303 
L 132.989178 -203.49384 
L 138.329565 -203.552195 
L 143.669953 -196.54953 
L 149.01034 -199.349655 
L 154.350728 -201.683503 
L 159.691115 -204.576555 
L 165.031502 -193.226715 
L 170.37189 -196.960215 
L 175.712277 -203.456505 
L 181.052664 -211.222185 
L 186.393052 -212.997651 
L 191.733439 -226.247656 
L 197.073826 -229.77768 
L 202.414214 -222.873318 
L 207.754601 -219.289158 
L 213.094988 -218.113479 
L 218.435376 -210.534288 
L 223.775763 -209.280765 
L 229.11615 -209.355435 
L 234.456538 -211.222185 
L 239.796925 -200.65638 
L 245.137312 -212.416905 
L 250.4777 -224.710574 
L 255.818087 -217.611324 
L 261.158474 -224.10276 
L 266.498862 -217.584816 
L 271.839249 -207.22734 
L 277.179636 -200.88039 
L 282.520024 -206.92866 
L 287.860411 -203.307165 
L 293.200798 -192.8907 
L 298.541186 -208.87008 
L 303.881573 -219.76742 
L 309.221961 -232.055115 
L 314.562348 -222.23825 
L 319.902735 -209.430105 
L 325.243123 -208.181511 
L 330.58351 -221.106253 
L 335.923897 -211.18485 
L 341.264285 -216.71043 
L 346.604672 -226.34286 
L 351.945059 -226.41753 
L 357.285447 -222.725099 
L 362.625834 -214.955685 
L 367.966221 -220.001884 
L 373.306609 -234.390419 
L 378.646996 -229.85235 
L 383.987383 -221.33997 
L 389.327771 -208.42206 
L 394.668158 -215.2917 
L 400.008545 -215.627715 
L 405.348933 -205.21125 
L 410.68932 -206.450511 
L 416.029707 -221.19063 
L 421.370095 -219.211875 
L 426.710482 -221.33997 
L 432.050869 -206.40597 
L 437.391257 -204.61389 
L 442.731644 -221.526645 
L 448.072031 -235.352542 
L 453.412419 -227.453203 
L 458.752806 -219.516529 
L 464.093194 -212.113857 
L 469.433581 -240.295696 
L 474.773968 -229.911713 
L 480.114356 -216.477833 
L 485.454743 -229.582418 
L 490.79513 -212.491575 
L 496.135518 -223.990755 
L 501.475905 -219.437378 
L 506.816292 -204.277875 
L 512.15668 -196.362855 
L 517.497067 -216.673095 
L 522.837454 -235.098291 
L 528.177842 -216.338947 
L 533.518229 -208.19805 
L 538.858616 -209.579445 
L 544.199004 -210.774165 
L 549.539391 -221.078625 
L 554.879778 -214.195096 
L 560.220166 -209.16876 
L 565.560553 -212.60358 
L 570.90094 -221.153295 
L 576.241328 -219.510555 
L 581.581715 -214.09698 
L 586.922102 -197.781585 
L 592.26249 -196.661535 
L 597.602877 -212.60358 
L 602.943264 -213.097223 
L 602.943264 -281.262645 
L 602.943264 -281.262645 
L 597.602877 -256.73355 
L 592.26249 -245.421045 
L 586.922102 -244.375665 
L 581.581715 -242.658255 
L 576.241328 -227.276235 
L 570.90094 -229.62834 
L 565.560553 -231.04707 
L 560.220166 -236.609985 
L 554.879778 -238.36473 
L 549.539391 -226.447771 
L 544.199004 -229.506628 
L 538.858616 -228.097605 
L 533.518229 -247.54914 
L 528.177842 -251.95467 
L 522.837454 -252.738705 
L 517.497067 -253.784085 
L 512.15668 -245.68239 
L 506.816292 -244.076612 
L 501.475905 -231.905775 
L 496.135518 -239.148765 
L 490.79513 -251.05863 
L 485.454743 -264.163215 
L 480.114356 -268.3074 
L 474.773968 -267.598035 
L 469.433581 -262.85649 
L 464.093194 -256.43487 
L 458.752806 -254.19477 
L 453.412419 -258.338955 
L 448.072031 -249.34122 
L 442.731644 -254.94147 
L 437.391257 -242.732925 
L 432.050869 -225.708165 
L 426.710482 -227.276235 
L 421.370095 -222.049335 
L 416.029707 -227.855674 
L 410.68932 -235.041915 
L 405.348933 -220.5186 
L 400.008545 -227.598063 
L 394.668158 -225.036135 
L 389.327771 -238.476735 
L 383.987383 -253.22406 
L 378.646996 -258.00294 
L 373.306609 -246.989115 
L 367.966221 -263.043165 
L 362.625834 -268.00872 
L 357.285447 -266.403315 
L 351.945059 -256.43487 
L 346.604672 -243.479625 
L 341.264285 -225.558825 
L 335.923897 -230.263035 
L 330.58351 -237.356685 
L 325.243123 -257.069565 
L 319.902735 -254.49345 
L 314.562348 -249.78924 
L 309.221961 -255.53883 
L 303.881573 -255.426825 
L 298.541186 -246.018405 
L 293.200798 -228.918975 
L 287.860411 -220.555935 
L 282.520024 -233.65604 
L 277.179636 -242.732925 
L 271.839249 -233.249835 
L 266.498862 -236.236635 
L 261.158474 -246.35442 
L 255.818087 -250.61061 
L 250.4777 -245.719725 
L 245.137312 -239.48478 
L 239.796925 -229.62834 
L 234.456538 -236.49798 
L 229.11615 -241.687545 
L 223.775763 -233.347653 
L 218.435376 -234.78057 
L 213.094988 -248.781195 
L 207.754601 -241.612875 
L 202.414214 -252.888045 
L 197.073826 -250.871955 
L 191.733439 -241.239525 
L 186.393052 -233.13783 
L 181.052664 -235.191255 
L 175.712277 -225.260145 
L 170.37189 -211.056156 
L 165.031502 -207.22734 
L 159.691115 -219.646828 
L 154.350728 -231.084405 
L 149.01034 -237.39402 
L 143.669953 -215.926395 
L 138.329565 -208.42206 
L 132.989178 -210.263422 
L 127.648791 -211.437496 
L 122.308403 -218.50251 
L 116.968016 -238.66341 
L 111.627629 -241.57554 
L 106.287241 -235.07925 
L 100.946854 -228.95631 
L 95.606467 -209.750999 
L 90.266079 -211.993899 
L 84.925692 -242.17738 
L 79.585305 -241.986225 
L 74.244917 -226.26819 
z
" style="stroke: #ffa500; stroke-opacity: 0.33"/>
    </defs>
    <g clip-path="url(#p876deee8d4)">
     <use xlink:href="#m37b7b4a76d" x="0" y="576" style="fill: #ffa500; fill-opacity: 0.33; stroke: #ffa500; stroke-opacity: 0.33"/>
    </g>
   </g>
   <g id="matplotlib.axis_1">
    <g id="xtick_1">
     <g id="line2d_1">
      <defs>
       <path id="m4c58b992ec" d="M 0 0 
L 0 3.5 
" style="stroke: #000000; stroke-width: 0.8"/>
      </defs>
      <g>
       <use xlink:href="#m4c58b992ec" x="74.244917" y="398.79" style="stroke: #000000; stroke-width: 0.8"/>
      </g>
     </g>
     <g id="text_1">
      <!-- 0 -->
      <g transform="translate(71.063667 413.388437) scale(0.1 -0.1)">
       <defs>
        <path id="DejaVuSans-30" d="M 2034 4250 
Q 1547 4250 1301 3770 
Q 1056 3291 1056 2328 
Q 1056 1369 1301 889 
Q 1547 409 2034 409 
Q 2525 409 2770 889 
Q 3016 1369 3016 2328 
Q 3016 3291 2770 3770 
Q 2525 4250 2034 4250 
z
M 2034 4750 
Q 2819 4750 3233 4129 
Q 3647 3509 3647 2328 
Q 3647 1150 3233 529 
Q 2819 -91 2034 -91 
Q 1250 -91 836 529 
Q 422 1150 422 2328 
Q 422 3509 836 4129 
Q 1250 4750 2034 4750 
z
" transform="scale(0.015625)"/>
       </defs>
       <use xlink:href="#DejaVuSans-30"/>
      </g>
     </g>
    </g>
    <g id="xtick_2">
     <g id="line2d_2">
      <g>
       <use xlink:href="#m4c58b992ec" x="181.052664" y="398.79" style="stroke: #000000; stroke-width: 0.8"/>
      </g>
     </g>
     <g id="text_2">
      <!-- 20 -->
      <g transform="translate(174.690164 413.388437) scale(0.1 -0.1)">
       <defs>
        <path id="DejaVuSans-32" d="M 1228 531 
L 3431 531 
L 3431 0 
L 469 0 
L 469 531 
Q 828 903 1448 1529 
Q 2069 2156 2228 2338 
Q 2531 2678 2651 2914 
Q 2772 3150 2772 3378 
Q 2772 3750 2511 3984 
Q 2250 4219 1831 4219 
Q 1534 4219 1204 4116 
Q 875 4013 500 3803 
L 500 4441 
Q 881 4594 1212 4672 
Q 1544 4750 1819 4750 
Q 2544 4750 2975 4387 
Q 3406 4025 3406 3419 
Q 3406 3131 3298 2873 
Q 3191 2616 2906 2266 
Q 2828 2175 2409 1742 
Q 1991 1309 1228 531 
z
" transform="scale(0.015625)"/>
       </defs>
       <use xlink:href="#DejaVuSans-32"/>
       <use xlink:href="#DejaVuSans-30" transform="translate(63.623047 0)"/>
      </g>
     </g>
    </g>
    <g id="xtick_3">
     <g id="line2d_3">
      <g>
       <use xlink:href="#m4c58b992ec" x="287.860411" y="398.79" style="stroke: #000000; stroke-width: 0.8"/>
      </g>
     </g>
     <g id="text_3">
      <!-- 40 -->
      <g transform="translate(281.497911 413.388437) scale(0.1 -0.1)">
       <defs>
        <path id="DejaVuSans-34" d="M 2419 4116 
L 825 1625 
L 2419 1625 
L 2419 4116 
z
M 2253 4666 
L 3047 4666 
L 3047 1625 
L 3713 1625 
L 3713 1100 
L 3047 1100 
L 3047 0 
L 2419 0 
L 2419 1100 
L 313 1100 
L 313 1709 
L 2253 4666 
z
" transform="scale(0.015625)"/>
       </defs>
       <use xlink:href="#DejaVuSans-34"/>
       <use xlink:href="#DejaVuSans-30" transform="translate(63.623047 0)"/>
      </g>
     </g>
    </g>
    <g id="xtick_4">
     <g id="line2d_4">
      <g>
       <use xlink:href="#m4c58b992ec" x="394.668158" y="398.79" style="stroke: #000000; stroke-width: 0.8"/>
      </g>
     </g>
     <g id="text_4">
      <!-- 60 -->
      <g transform="translate(388.305658 413.388437) scale(0.1 -0.1)">
       <defs>
        <path id="DejaVuSans-36" d="M 2113 2584 
Q 1688 2584 1439 2293 
Q 1191 2003 1191 1497 
Q 1191 994 1439 701 
Q 1688 409 2113 409 
Q 2538 409 2786 701 
Q 3034 994 3034 1497 
Q 3034 2003 2786 2293 
Q 2538 2584 2113 2584 
z
M 3366 4563 
L 3366 3988 
Q 3128 4100 2886 4159 
Q 2644 4219 2406 4219 
Q 1781 4219 1451 3797 
Q 1122 3375 1075 2522 
Q 1259 2794 1537 2939 
Q 1816 3084 2150 3084 
Q 2853 3084 3261 2657 
Q 3669 2231 3669 1497 
Q 3669 778 3244 343 
Q 2819 -91 2113 -91 
Q 1303 -91 875 529 
Q 447 1150 447 2328 
Q 447 3434 972 4092 
Q 1497 4750 2381 4750 
Q 2619 4750 2861 4703 
Q 3103 4656 3366 4563 
z
" transform="scale(0.015625)"/>
       </defs>
       <use xlink:href="#DejaVuSans-36"/>
       <use xlink:href="#DejaVuSans-30" transform="translate(63.623047 0)"/>
      </g>
     </g>
    </g>
    <g id="xtick_5">
     <g id="line2d_5">
      <g>
       <use xlink:href="#m4c58b992ec" x="501.475905" y="398.79" style="stroke: #000000; stroke-width: 0.8"/>
      </g>
     </g>
     <g id="text_5">
      <!-- 80 -->
      <g transform="translate(495.113405 413.388437) scale(0.1 -0.1)">
       <defs>
        <path id="DejaVuSans-38" d="M 2034 2216 
Q 1584 2216 1326 1975 
Q 1069 1734 1069 1313 
Q 1069 891 1326 650 
Q 1584 409 2034 409 
Q 2484 409 2743 651 
Q 3003 894 3003 1313 
Q 3003 1734 2745 1975 
Q 2488 2216 2034 2216 
z
M 1403 2484 
Q 997 2584 770 2862 
Q 544 3141 544 3541 
Q 544 4100 942 4425 
Q 1341 4750 2034 4750 
Q 2731 4750 3128 4425 
Q 3525 4100 3525 3541 
Q 3525 3141 3298 2862 
Q 3072 2584 2669 2484 
Q 3125 2378 3379 2068 
Q 3634 1759 3634 1313 
Q 3634 634 3220 271 
Q 2806 -91 2034 -91 
Q 1263 -91 848 271 
Q 434 634 434 1313 
Q 434 1759 690 2068 
Q 947 2378 1403 2484 
z
M 1172 3481 
Q 1172 3119 1398 2916 
Q 1625 2713 2034 2713 
Q 2441 2713 2670 2916 
Q 2900 3119 2900 3481 
Q 2900 3844 2670 4047 
Q 2441 4250 2034 4250 
Q 1625 4250 1398 4047 
Q 1172 3844 1172 3481 
z
" transform="scale(0.015625)"/>
       </defs>
       <use xlink:href="#DejaVuSans-38"/>
       <use xlink:href="#DejaVuSans-30" transform="translate(63.623047 0)"/>
      </g>
     </g>
    </g>
    <g id="xtick_6">
     <g id="line2d_6">
      <g>
       <use xlink:href="#m4c58b992ec" x="608.283652" y="398.79" style="stroke: #000000; stroke-width: 0.8"/>
      </g>
     </g>
     <g id="text_6">
      <!-- 100 -->
      <g transform="translate(598.739902 413.388437) scale(0.1 -0.1)">
       <defs>
        <path id="DejaVuSans-31" d="M 794 531 
L 1825 531 
L 1825 4091 
L 703 3866 
L 703 4441 
L 1819 4666 
L 2450 4666 
L 2450 531 
L 3481 531 
L 3481 0 
L 794 0 
L 794 531 
z
" transform="scale(0.015625)"/>
       </defs>
       <use xlink:href="#DejaVuSans-31"/>
       <use xlink:href="#DejaVuSans-30" transform="translate(63.623047 0)"/>
       <use xlink:href="#DejaVuSans-30" transform="translate(127.246094 0)"/>
      </g>
     </g>
    </g>
    <g id="text_7">
     <!-- Epoch -->
     <g transform="translate(323.283153 427.066562) scale(0.1 -0.1)">
      <defs>
       <path id="DejaVuSans-45" d="M 628 4666 
L 3578 4666 
L 3578 4134 
L 1259 4134 
L 1259 2753 
L 3481 2753 
L 3481 2222 
L 1259 2222 
L 1259 531 
L 3634 531 
L 3634 0 
L 628 0 
L 628 4666 
z
" transform="scale(0.015625)"/>
       <path id="DejaVuSans-70" d="M 1159 525 
L 1159 -1331 
L 581 -1331 
L 581 3500 
L 1159 3500 
L 1159 2969 
Q 1341 3281 1617 3432 
Q 1894 3584 2278 3584 
Q 2916 3584 3314 3078 
Q 3713 2572 3713 1747 
Q 3713 922 3314 415 
Q 2916 -91 2278 -91 
Q 1894 -91 1617 61 
Q 1341 213 1159 525 
z
M 3116 1747 
Q 3116 2381 2855 2742 
Q 2594 3103 2138 3103 
Q 1681 3103 1420 2742 
Q 1159 2381 1159 1747 
Q 1159 1113 1420 752 
Q 1681 391 2138 391 
Q 2594 391 2855 752 
Q 3116 1113 3116 1747 
z
" transform="scale(0.015625)"/>
       <path id="DejaVuSans-6f" d="M 1959 3097 
Q 1497 3097 1228 2736 
Q 959 2375 959 1747 
Q 959 1119 1226 758 
Q 1494 397 1959 397 
Q 2419 397 2687 759 
Q 2956 1122 2956 1747 
Q 2956 2369 2687 2733 
Q 2419 3097 1959 3097 
z
M 1959 3584 
Q 2709 3584 3137 3096 
Q 3566 2609 3566 1747 
Q 3566 888 3137 398 
Q 2709 -91 1959 -91 
Q 1206 -91 779 398 
Q 353 888 353 1747 
Q 353 2609 779 3096 
Q 1206 3584 1959 3584 
z
" transform="scale(0.015625)"/>
       <path id="DejaVuSans-63" d="M 3122 3366 
L 3122 2828 
Q 2878 2963 2633 3030 
Q 2388 3097 2138 3097 
Q 1578 3097 1268 2742 
Q 959 2388 959 1747 
Q 959 1106 1268 751 
Q 1578 397 2138 397 
Q 2388 397 2633 464 
Q 2878 531 3122 666 
L 3122 134 
Q 2881 22 2623 -34 
Q 2366 -91 2075 -91 
Q 1284 -91 818 406 
Q 353 903 353 1747 
Q 353 2603 823 3093 
Q 1294 3584 2113 3584 
Q 2378 3584 2631 3529 
Q 2884 3475 3122 3366 
z
" transform="scale(0.015625)"/>
       <path id="DejaVuSans-68" d="M 3513 2113 
L 3513 0 
L 2938 0 
L 2938 2094 
Q 2938 2591 2744 2837 
Q 2550 3084 2163 3084 
Q 1697 3084 1428 2787 
Q 1159 2491 1159 1978 
L 1159 0 
L 581 0 
L 581 4863 
L 1159 4863 
L 1159 2956 
Q 1366 3272 1645 3428 
Q 1925 3584 2291 3584 
Q 2894 3584 3203 3211 
Q 3513 2838 3513 2113 
z
" transform="scale(0.015625)"/>
      </defs>
      <use xlink:href="#DejaVuSans-45"/>
      <use xlink:href="#DejaVuSans-70" transform="translate(63.183594 0)"/>
      <use xlink:href="#DejaVuSans-6f" transform="translate(126.660156 0)"/>
      <use xlink:href="#DejaVuSans-63" transform="translate(187.841797 0)"/>
      <use xlink:href="#DejaVuSans-68" transform="translate(242.822266 0)"/>
     </g>
    </g>
   </g>
   <g id="matplotlib.axis_2">
    <g id="ytick_1">
     <g id="line2d_7">
      <defs>
       <path id="mb0fa281a36" d="M 0 0 
L -3.5 0 
" style="stroke: #000000; stroke-width: 0.8"/>
      </defs>
      <g>
       <use xlink:href="#mb0fa281a36" x="47.81" y="398.79" style="stroke: #000000; stroke-width: 0.8"/>
      </g>
     </g>
     <g id="text_8">
      <!-- 0.0 -->
      <g transform="translate(24.906875 402.589219) scale(0.1 -0.1)">
       <defs>
        <path id="DejaVuSans-2e" d="M 684 794 
L 1344 794 
L 1344 0 
L 684 0 
L 684 794 
z
" transform="scale(0.015625)"/>
       </defs>
       <use xlink:href="#DejaVuSans-30"/>
       <use xlink:href="#DejaVuSans-2e" transform="translate(63.623047 0)"/>
       <use xlink:href="#DejaVuSans-30" transform="translate(95.410156 0)"/>
      </g>
     </g>
    </g>
    <g id="ytick_2">
     <g id="line2d_8">
      <g>
       <use xlink:href="#mb0fa281a36" x="47.81" y="324.12" style="stroke: #000000; stroke-width: 0.8"/>
      </g>
     </g>
     <g id="text_9">
      <!-- 0.2 -->
      <g transform="translate(24.906875 327.919219) scale(0.1 -0.1)">
       <use xlink:href="#DejaVuSans-30"/>
       <use xlink:href="#DejaVuSans-2e" transform="translate(63.623047 0)"/>
       <use xlink:href="#DejaVuSans-32" transform="translate(95.410156 0)"/>
      </g>
     </g>
    </g>
    <g id="ytick_3">
     <g id="line2d_9">
      <g>
       <use xlink:href="#mb0fa281a36" x="47.81" y="249.45" style="stroke: #000000; stroke-width: 0.8"/>
      </g>
     </g>
     <g id="text_10">
      <!-- 0.4 -->
      <g transform="translate(24.906875 253.249219) scale(0.1 -0.1)">
       <use xlink:href="#DejaVuSans-30"/>
       <use xlink:href="#DejaVuSans-2e" transform="translate(63.623047 0)"/>
       <use xlink:href="#DejaVuSans-34" transform="translate(95.410156 0)"/>
      </g>
     </g>
    </g>
    <g id="ytick_4">
     <g id="line2d_10">
      <g>
       <use xlink:href="#mb0fa281a36" x="47.81" y="174.78" style="stroke: #000000; stroke-width: 0.8"/>
      </g>
     </g>
     <g id="text_11">
      <!-- 0.6 -->
      <g transform="translate(24.906875 178.579219) scale(0.1 -0.1)">
       <use xlink:href="#DejaVuSans-30"/>
       <use xlink:href="#DejaVuSans-2e" transform="translate(63.623047 0)"/>
       <use xlink:href="#DejaVuSans-36" transform="translate(95.410156 0)"/>
      </g>
     </g>
    </g>
    <g id="ytick_5">
     <g id="line2d_11">
      <g>
       <use xlink:href="#mb0fa281a36" x="47.81" y="100.11" style="stroke: #000000; stroke-width: 0.8"/>
      </g>
     </g>
     <g id="text_12">
      <!-- 0.8 -->
      <g transform="translate(24.906875 103.909219) scale(0.1 -0.1)">
       <use xlink:href="#DejaVuSans-30"/>
       <use xlink:href="#DejaVuSans-2e" transform="translate(63.623047 0)"/>
       <use xlink:href="#DejaVuSans-38" transform="translate(95.410156 0)"/>
      </g>
     </g>
    </g>
    <g id="ytick_6">
     <g id="line2d_12">
      <g>
       <use xlink:href="#mb0fa281a36" x="47.81" y="25.44" style="stroke: #000000; stroke-width: 0.8"/>
      </g>
     </g>
     <g id="text_13">
      <!-- 1.0 -->
      <g transform="translate(24.906875 29.239219) scale(0.1 -0.1)">
       <use xlink:href="#DejaVuSans-31"/>
       <use xlink:href="#DejaVuSans-2e" transform="translate(63.623047 0)"/>
       <use xlink:href="#DejaVuSans-30" transform="translate(95.410156 0)"/>
      </g>
     </g>
    </g>
    <g id="text_14">
     <!-- Accuracy (MRAE) -->
     <g transform="translate(18.827187 254.601719) rotate(-90) scale(0.1 -0.1)">
      <defs>
       <path id="DejaVuSans-41" d="M 2188 4044 
L 1331 1722 
L 3047 1722 
L 2188 4044 
z
M 1831 4666 
L 2547 4666 
L 4325 0 
L 3669 0 
L 3244 1197 
L 1141 1197 
L 716 0 
L 50 0 
L 1831 4666 
z
" transform="scale(0.015625)"/>
       <path id="DejaVuSans-75" d="M 544 1381 
L 544 3500 
L 1119 3500 
L 1119 1403 
Q 1119 906 1312 657 
Q 1506 409 1894 409 
Q 2359 409 2629 706 
Q 2900 1003 2900 1516 
L 2900 3500 
L 3475 3500 
L 3475 0 
L 2900 0 
L 2900 538 
Q 2691 219 2414 64 
Q 2138 -91 1772 -91 
Q 1169 -91 856 284 
Q 544 659 544 1381 
z
M 1991 3584 
L 1991 3584 
z
" transform="scale(0.015625)"/>
       <path id="DejaVuSans-72" d="M 2631 2963 
Q 2534 3019 2420 3045 
Q 2306 3072 2169 3072 
Q 1681 3072 1420 2755 
Q 1159 2438 1159 1844 
L 1159 0 
L 581 0 
L 581 3500 
L 1159 3500 
L 1159 2956 
Q 1341 3275 1631 3429 
Q 1922 3584 2338 3584 
Q 2397 3584 2469 3576 
Q 2541 3569 2628 3553 
L 2631 2963 
z
" transform="scale(0.015625)"/>
       <path id="DejaVuSans-61" d="M 2194 1759 
Q 1497 1759 1228 1600 
Q 959 1441 959 1056 
Q 959 750 1161 570 
Q 1363 391 1709 391 
Q 2188 391 2477 730 
Q 2766 1069 2766 1631 
L 2766 1759 
L 2194 1759 
z
M 3341 1997 
L 3341 0 
L 2766 0 
L 2766 531 
Q 2569 213 2275 61 
Q 1981 -91 1556 -91 
Q 1019 -91 701 211 
Q 384 513 384 1019 
Q 384 1609 779 1909 
Q 1175 2209 1959 2209 
L 2766 2209 
L 2766 2266 
Q 2766 2663 2505 2880 
Q 2244 3097 1772 3097 
Q 1472 3097 1187 3025 
Q 903 2953 641 2809 
L 641 3341 
Q 956 3463 1253 3523 
Q 1550 3584 1831 3584 
Q 2591 3584 2966 3190 
Q 3341 2797 3341 1997 
z
" transform="scale(0.015625)"/>
       <path id="DejaVuSans-79" d="M 2059 -325 
Q 1816 -950 1584 -1140 
Q 1353 -1331 966 -1331 
L 506 -1331 
L 506 -850 
L 844 -850 
Q 1081 -850 1212 -737 
Q 1344 -625 1503 -206 
L 1606 56 
L 191 3500 
L 800 3500 
L 1894 763 
L 2988 3500 
L 3597 3500 
L 2059 -325 
z
" transform="scale(0.015625)"/>
       <path id="DejaVuSans-20" transform="scale(0.015625)"/>
       <path id="DejaVuSans-28" d="M 1984 4856 
Q 1566 4138 1362 3434 
Q 1159 2731 1159 2009 
Q 1159 1288 1364 580 
Q 1569 -128 1984 -844 
L 1484 -844 
Q 1016 -109 783 600 
Q 550 1309 550 2009 
Q 550 2706 781 3412 
Q 1013 4119 1484 4856 
L 1984 4856 
z
" transform="scale(0.015625)"/>
       <path id="DejaVuSans-4d" d="M 628 4666 
L 1569 4666 
L 2759 1491 
L 3956 4666 
L 4897 4666 
L 4897 0 
L 4281 0 
L 4281 4097 
L 3078 897 
L 2444 897 
L 1241 4097 
L 1241 0 
L 628 0 
L 628 4666 
z
" transform="scale(0.015625)"/>
       <path id="DejaVuSans-52" d="M 2841 2188 
Q 3044 2119 3236 1894 
Q 3428 1669 3622 1275 
L 4263 0 
L 3584 0 
L 2988 1197 
Q 2756 1666 2539 1819 
Q 2322 1972 1947 1972 
L 1259 1972 
L 1259 0 
L 628 0 
L 628 4666 
L 2053 4666 
Q 2853 4666 3247 4331 
Q 3641 3997 3641 3322 
Q 3641 2881 3436 2590 
Q 3231 2300 2841 2188 
z
M 1259 4147 
L 1259 2491 
L 2053 2491 
Q 2509 2491 2742 2702 
Q 2975 2913 2975 3322 
Q 2975 3731 2742 3939 
Q 2509 4147 2053 4147 
L 1259 4147 
z
" transform="scale(0.015625)"/>
       <path id="DejaVuSans-29" d="M 513 4856 
L 1013 4856 
Q 1481 4119 1714 3412 
Q 1947 2706 1947 2009 
Q 1947 1309 1714 600 
Q 1481 -109 1013 -844 
L 513 -844 
Q 928 -128 1133 580 
Q 1338 1288 1338 2009 
Q 1338 2731 1133 3434 
Q 928 4138 513 4856 
z
" transform="scale(0.015625)"/>
      </defs>
      <use xlink:href="#DejaVuSans-41"/>
      <use xlink:href="#DejaVuSans-63" transform="translate(66.658203 0)"/>
      <use xlink:href="#DejaVuSans-63" transform="translate(121.638672 0)"/>
      <use xlink:href="#DejaVuSans-75" transform="translate(176.619141 0)"/>
      <use xlink:href="#DejaVuSans-72" transform="translate(239.998047 0)"/>
      <use xlink:href="#DejaVuSans-61" transform="translate(281.111328 0)"/>
      <use xlink:href="#DejaVuSans-63" transform="translate(342.390625 0)"/>
      <use xlink:href="#DejaVuSans-79" transform="translate(397.371094 0)"/>
      <use xlink:href="#DejaVuSans-20" transform="translate(456.550781 0)"/>
      <use xlink:href="#DejaVuSans-28" transform="translate(488.337891 0)"/>
      <use xlink:href="#DejaVuSans-4d" transform="translate(527.351562 0)"/>
      <use xlink:href="#DejaVuSans-52" transform="translate(613.630859 0)"/>
      <use xlink:href="#DejaVuSans-41" transform="translate(679.113281 0)"/>
      <use xlink:href="#DejaVuSans-45" transform="translate(747.521484 0)"/>
      <use xlink:href="#DejaVuSans-29" transform="translate(810.705078 0)"/>
     </g>
    </g>
   </g>
   <g id="line2d_13">
    <path d="M 74.244917 342.041049 
L 79.585305 330.077297 
L 84.925692 316.889704 
L 90.266079 297.91307 
L 95.606467 286.745176 
L 100.946854 282.07855 
L 106.287241 284.274221 
L 111.627629 289.651457 
L 116.968016 292.27897 
L 122.308403 291.338999 
L 127.648791 284.693742 
L 132.989178 284.845571 
L 138.329565 283.290568 
L 143.669953 279.85189 
L 149.01034 280.526285 
L 154.350728 282.231997 
L 159.691115 306.744913 
L 165.031502 280.4551 
L 170.37189 268.172631 
L 175.712277 264.736442 
L 181.052664 258.307106 
L 186.393052 244.628931 
L 191.733439 240.02341 
L 197.073826 242.170297 
L 202.414214 240.784049 
L 207.754601 237.040966 
L 213.094988 231.731307 
L 218.435376 218.417646 
L 223.775763 210.421111 
L 229.11615 213.007058 
L 234.456538 208.405768 
L 239.796925 216.850447 
L 245.137312 229.913466 
L 250.4777 224.18553 
L 255.818087 210.283096 
L 261.158474 195.495947 
L 266.498862 191.642477 
L 271.839249 191.192093 
L 277.179636 192.818281 
L 282.520024 200.175018 
L 287.860411 199.060071 
L 293.200798 207.246889 
L 298.541186 215.106529 
L 303.881573 206.770495 
L 309.221961 205.952858 
L 314.562348 201.993855 
L 319.902735 194.962305 
L 325.243123 200.673316 
L 330.58351 203.231012 
L 335.923897 197.752101 
L 341.264285 197.121388 
L 346.604672 181.006731 
L 351.945059 175.361804 
L 357.285447 171.710814 
L 362.625834 173.23122 
L 367.966221 171.876581 
L 373.306609 171.273248 
L 378.646996 175.229513 
L 383.987383 180.262894 
L 389.327771 193.039428 
L 394.668158 186.265366 
L 400.008545 191.355744 
L 405.348933 201.435697 
L 410.68932 209.435218 
L 416.029707 202.359116 
L 421.370095 210.951766 
L 426.710482 204.683842 
L 432.050869 193.180306 
L 437.391257 181.79114 
L 442.731644 176.837283 
L 448.072031 176.055115 
L 453.412419 172.80697 
L 458.752806 177.934434 
L 464.093194 174.894743 
L 469.433581 172.070972 
L 474.773968 161.994256 
L 480.114356 150.708259 
L 485.454743 157.047368 
L 490.79513 156.647386 
L 496.135518 150.985533 
L 501.475905 142.829578 
L 506.816292 132.864867 
L 512.15668 133.405851 
L 517.497067 123.367216 
L 522.837454 134.860671 
L 528.177842 133.993628 
L 533.518229 131.037318 
L 538.858616 145.614645 
L 544.199004 146.72785 
L 549.539391 146.857402 
L 554.879778 133.155084 
L 560.220166 126.994933 
L 565.560553 129.688654 
L 570.90094 131.605806 
L 576.241328 128.003725 
L 581.581715 126.825184 
L 586.922102 127.055167 
L 592.26249 137.045889 
L 597.602877 138.469099 
L 602.943264 135.746009 
" clip-path="url(#p876deee8d4)" style="fill: none; stroke: #0000ff; stroke-width: 1.5; stroke-linecap: square"/>
   </g>
   <g id="line2d_14">
    <path d="M 74.244917 374.879297 
L 79.585305 357.846423 
L 84.925692 354.708317 
L 90.266079 369.635472 
L 95.606467 366.98562 
L 100.946854 366.300125 
L 106.287241 358.32293 
L 111.627629 349.82399 
L 116.968016 347.529792 
L 122.308403 362.665152 
L 127.648791 371.973925 
L 132.989178 369.801613 
L 138.329565 369.437683 
L 143.669953 367.973044 
L 149.01034 354.687907 
L 154.350728 363.315391 
L 159.691115 365.827551 
L 165.031502 373.507696 
L 170.37189 372.325048 
L 175.712277 362.348451 
L 181.052664 353.884084 
L 186.393052 353.856643 
L 191.733439 343.2797 
L 197.073826 338.166547 
L 202.414214 341.529684 
L 207.754601 343.060419 
L 213.094988 345.704857 
L 218.435376 352.487444 
L 223.775763 352.150869 
L 229.11615 348.629556 
L 234.456538 356.262286 
L 239.796925 363.002125 
L 245.137312 351.303365 
L 250.4777 341.240835 
L 255.818087 343.097007 
L 261.158474 343.938911 
L 266.498862 350.734628 
L 271.839249 355.361804 
L 277.179636 354.459168 
L 282.520024 352.856998 
L 287.860411 364.086707 
L 293.200798 361.181086 
L 298.541186 345.358264 
L 303.881573 341.158698 
L 309.221961 334.796068 
L 314.562348 343.296998 
L 319.902735 348.63441 
L 325.243123 347.671453 
L 330.58351 344.632596 
L 335.923897 353.670777 
L 341.264285 354.235407 
L 346.604672 343.640729 
L 351.945059 336.843146 
L 357.285447 336.140625 
L 362.625834 337.695504 
L 367.966221 340.570299 
L 373.306609 333.870035 
L 378.646996 333.61317 
L 383.987383 343.407385 
L 389.327771 356.650508 
L 394.668158 356.813637 
L 400.008545 355.585689 
L 405.348933 360.723234 
L 410.68932 356.798168 
L 416.029707 350.671159 
L 421.370095 355.669319 
L 426.710482 352.196293 
L 432.050869 357.338443 
L 437.391257 354.94054 
L 442.731644 341.632977 
L 448.072031 331.645243 
L 453.412419 334.838381 
L 458.752806 335.505184 
L 464.093194 335.956651 
L 469.433581 326.89872 
L 474.773968 331.318312 
L 480.114356 333.195267 
L 485.454743 334.526882 
L 490.79513 349.12076 
L 496.135518 342.361881 
L 501.475905 348.524147 
L 506.816292 350.354184 
L 512.15668 353.926148 
L 517.497067 344.682749 
L 522.837454 332.028673 
L 528.177842 341.343258 
L 533.518229 350.779803 
L 538.858616 357.012135 
L 544.199004 356.355786 
L 549.539391 352.85787 
L 554.879778 351.47874 
L 560.220166 355.045825 
L 565.560553 352.591671 
L 570.90094 351.832526 
L 576.241328 353.433824 
L 581.581715 350.198995 
L 586.922102 356.250128 
L 592.26249 355.295347 
L 597.602877 342.854703 
L 602.943264 329.630372 
" clip-path="url(#p876deee8d4)" style="fill: none; stroke: #ffa500; stroke-width: 1.5; stroke-linecap: square"/>
   </g>
   <g id="line2d_15">
    <path d="M 47.81 139.816893 
L 629.378182 139.816893 
" clip-path="url(#p876deee8d4)" style="fill: none; stroke-dasharray: 9.6,2.4,1.5,2.4; stroke-dashoffset: 0; stroke: #1e66a3; stroke-width: 1.5"/>
   </g>
   <g id="line2d_16">
    <path d="M 47.81 356.089562 
L 629.378182 356.089562 
" clip-path="url(#p876deee8d4)" style="fill: none; stroke-dasharray: 9.6,2.4,1.5,2.4; stroke-dashoffset: 0; stroke: #bb5e0d; stroke-width: 1.5"/>
   </g>
   <g id="patch_3">
    <path d="M 47.81 398.79 
L 47.81 25.44 
" style="fill: none; stroke: #000000; stroke-width: 0.8; stroke-linejoin: miter; stroke-linecap: square"/>
   </g>
   <g id="patch_4">
    <path d="M 629.378182 398.79 
L 629.378182 25.44 
" style="fill: none; stroke: #000000; stroke-width: 0.8; stroke-linejoin: miter; stroke-linecap: square"/>
   </g>
   <g id="patch_5">
    <path d="M 47.81 398.79 
L 629.378182 398.79 
" style="fill: none; stroke: #000000; stroke-width: 0.8; stroke-linejoin: miter; stroke-linecap: square"/>
   </g>
   <g id="patch_6">
    <path d="M 47.81 25.44 
L 629.378182 25.44 
" style="fill: none; stroke: #000000; stroke-width: 0.8; stroke-linejoin: miter; stroke-linecap: square"/>
   </g>
   <g id="text_15">
    <!-- New Training -->
    <g style="fill: #0000ff" transform="translate(642.59564 126.40729) scale(0.09 -0.09)">
     <defs>
      <path id="DejaVuSans-4e" d="M 628 4666 
L 1478 4666 
L 3547 763 
L 3547 4666 
L 4159 4666 
L 4159 0 
L 3309 0 
L 1241 3903 
L 1241 0 
L 628 0 
L 628 4666 
z
" transform="scale(0.015625)"/>
      <path id="DejaVuSans-65" d="M 3597 1894 
L 3597 1613 
L 953 1613 
Q 991 1019 1311 708 
Q 1631 397 2203 397 
Q 2534 397 2845 478 
Q 3156 559 3463 722 
L 3463 178 
Q 3153 47 2828 -22 
Q 2503 -91 2169 -91 
Q 1331 -91 842 396 
Q 353 884 353 1716 
Q 353 2575 817 3079 
Q 1281 3584 2069 3584 
Q 2775 3584 3186 3129 
Q 3597 2675 3597 1894 
z
M 3022 2063 
Q 3016 2534 2758 2815 
Q 2500 3097 2075 3097 
Q 1594 3097 1305 2825 
Q 1016 2553 972 2059 
L 3022 2063 
z
" transform="scale(0.015625)"/>
      <path id="DejaVuSans-77" d="M 269 3500 
L 844 3500 
L 1563 769 
L 2278 3500 
L 2956 3500 
L 3675 769 
L 4391 3500 
L 4966 3500 
L 4050 0 
L 3372 0 
L 2619 2869 
L 1863 0 
L 1184 0 
L 269 3500 
z
" transform="scale(0.015625)"/>
      <path id="DejaVuSans-54" d="M -19 4666 
L 3928 4666 
L 3928 4134 
L 2272 4134 
L 2272 0 
L 1638 0 
L 1638 4134 
L -19 4134 
L -19 4666 
z
" transform="scale(0.015625)"/>
      <path id="DejaVuSans-69" d="M 603 3500 
L 1178 3500 
L 1178 0 
L 603 0 
L 603 3500 
z
M 603 4863 
L 1178 4863 
L 1178 4134 
L 603 4134 
L 603 4863 
z
" transform="scale(0.015625)"/>
      <path id="DejaVuSans-6e" d="M 3513 2113 
L 3513 0 
L 2938 0 
L 2938 2094 
Q 2938 2591 2744 2837 
Q 2550 3084 2163 3084 
Q 1697 3084 1428 2787 
Q 1159 2491 1159 1978 
L 1159 0 
L 581 0 
L 581 3500 
L 1159 3500 
L 1159 2956 
Q 1366 3272 1645 3428 
Q 1925 3584 2291 3584 
Q 2894 3584 3203 3211 
Q 3513 2838 3513 2113 
z
" transform="scale(0.015625)"/>
      <path id="DejaVuSans-67" d="M 2906 1791 
Q 2906 2416 2648 2759 
Q 2391 3103 1925 3103 
Q 1463 3103 1205 2759 
Q 947 2416 947 1791 
Q 947 1169 1205 825 
Q 1463 481 1925 481 
Q 2391 481 2648 825 
Q 2906 1169 2906 1791 
z
M 3481 434 
Q 3481 -459 3084 -895 
Q 2688 -1331 1869 -1331 
Q 1566 -1331 1297 -1286 
Q 1028 -1241 775 -1147 
L 775 -588 
Q 1028 -725 1275 -790 
Q 1522 -856 1778 -856 
Q 2344 -856 2625 -561 
Q 2906 -266 2906 331 
L 2906 616 
Q 2728 306 2450 153 
Q 2172 0 1784 0 
Q 1141 0 747 490 
Q 353 981 353 1791 
Q 353 2603 747 3093 
Q 1141 3584 1784 3584 
Q 2172 3584 2450 3431 
Q 2728 3278 2906 2969 
L 2906 3500 
L 3481 3500 
L 3481 434 
z
" transform="scale(0.015625)"/>
     </defs>
     <use xlink:href="#DejaVuSans-4e"/>
     <use xlink:href="#DejaVuSans-65" transform="translate(74.804688 0)"/>
     <use xlink:href="#DejaVuSans-77" transform="translate(136.328125 0)"/>
     <use xlink:href="#DejaVuSans-20" transform="translate(218.115234 0)"/>
     <use xlink:href="#DejaVuSans-54" transform="translate(249.902344 0)"/>
     <use xlink:href="#DejaVuSans-72" transform="translate(296.236328 0)"/>
     <use xlink:href="#DejaVuSans-61" transform="translate(337.349609 0)"/>
     <use xlink:href="#DejaVuSans-69" transform="translate(398.628906 0)"/>
     <use xlink:href="#DejaVuSans-6e" transform="translate(426.412109 0)"/>
     <use xlink:href="#DejaVuSans-69" transform="translate(489.791016 0)"/>
     <use xlink:href="#DejaVuSans-6e" transform="translate(517.574219 0)"/>
     <use xlink:href="#DejaVuSans-67" transform="translate(580.953125 0)"/>
    </g>
   </g>
   <g id="text_16">
    <!-- New Validation -->
    <g style="fill: #ffa500" transform="translate(642.59564 327.758653) scale(0.09 -0.09)">
     <defs>
      <path id="DejaVuSans-56" d="M 1831 0 
L 50 4666 
L 709 4666 
L 2188 738 
L 3669 4666 
L 4325 4666 
L 2547 0 
L 1831 0 
z
" transform="scale(0.015625)"/>
      <path id="DejaVuSans-6c" d="M 603 4863 
L 1178 4863 
L 1178 0 
L 603 0 
L 603 4863 
z
" transform="scale(0.015625)"/>
      <path id="DejaVuSans-64" d="M 2906 2969 
L 2906 4863 
L 3481 4863 
L 3481 0 
L 2906 0 
L 2906 525 
Q 2725 213 2448 61 
Q 2172 -91 1784 -91 
Q 1150 -91 751 415 
Q 353 922 353 1747 
Q 353 2572 751 3078 
Q 1150 3584 1784 3584 
Q 2172 3584 2448 3432 
Q 2725 3281 2906 2969 
z
M 947 1747 
Q 947 1113 1208 752 
Q 1469 391 1925 391 
Q 2381 391 2643 752 
Q 2906 1113 2906 1747 
Q 2906 2381 2643 2742 
Q 2381 3103 1925 3103 
Q 1469 3103 1208 2742 
Q 947 2381 947 1747 
z
" transform="scale(0.015625)"/>
      <path id="DejaVuSans-74" d="M 1172 4494 
L 1172 3500 
L 2356 3500 
L 2356 3053 
L 1172 3053 
L 1172 1153 
Q 1172 725 1289 603 
Q 1406 481 1766 481 
L 2356 481 
L 2356 0 
L 1766 0 
Q 1100 0 847 248 
Q 594 497 594 1153 
L 594 3053 
L 172 3053 
L 172 3500 
L 594 3500 
L 594 4494 
L 1172 4494 
z
" transform="scale(0.015625)"/>
     </defs>
     <use xlink:href="#DejaVuSans-4e"/>
     <use xlink:href="#DejaVuSans-65" transform="translate(74.804688 0)"/>
     <use xlink:href="#DejaVuSans-77" transform="translate(136.328125 0)"/>
     <use xlink:href="#DejaVuSans-20" transform="translate(218.115234 0)"/>
     <use xlink:href="#DejaVuSans-56" transform="translate(249.902344 0)"/>
     <use xlink:href="#DejaVuSans-61" transform="translate(310.560547 0)"/>
     <use xlink:href="#DejaVuSans-6c" transform="translate(371.839844 0)"/>
     <use xlink:href="#DejaVuSans-69" transform="translate(399.623047 0)"/>
     <use xlink:href="#DejaVuSans-64" transform="translate(427.40625 0)"/>
     <use xlink:href="#DejaVuSans-61" transform="translate(490.882812 0)"/>
     <use xlink:href="#DejaVuSans-74" transform="translate(552.162109 0)"/>
     <use xlink:href="#DejaVuSans-69" transform="translate(591.371094 0)"/>
     <use xlink:href="#DejaVuSans-6f" transform="translate(619.154297 0)"/>
     <use xlink:href="#DejaVuSans-6e" transform="translate(680.335938 0)"/>
    </g>
   </g>
   <g id="text_17">
    <!-- Ref Training -->
    <g style="fill: #1e66a3" transform="translate(642.59564 137.945174) scale(0.09 -0.09)">
     <defs>
      <path id="DejaVuSans-66" d="M 2375 4863 
L 2375 4384 
L 1825 4384 
Q 1516 4384 1395 4259 
Q 1275 4134 1275 3809 
L 1275 3500 
L 2222 3500 
L 2222 3053 
L 1275 3053 
L 1275 0 
L 697 0 
L 697 3053 
L 147 3053 
L 147 3500 
L 697 3500 
L 697 3744 
Q 697 4328 969 4595 
Q 1241 4863 1831 4863 
L 2375 4863 
z
" transform="scale(0.015625)"/>
     </defs>
     <use xlink:href="#DejaVuSans-52"/>
     <use xlink:href="#DejaVuSans-65" transform="translate(64.982422 0)"/>
     <use xlink:href="#DejaVuSans-66" transform="translate(126.505859 0)"/>
     <use xlink:href="#DejaVuSans-20" transform="translate(161.710938 0)"/>
     <use xlink:href="#DejaVuSans-54" transform="translate(193.498047 0)"/>
     <use xlink:href="#DejaVuSans-72" transform="translate(239.832031 0)"/>
     <use xlink:href="#DejaVuSans-61" transform="translate(280.945312 0)"/>
     <use xlink:href="#DejaVuSans-69" transform="translate(342.224609 0)"/>
     <use xlink:href="#DejaVuSans-6e" transform="translate(370.007812 0)"/>
     <use xlink:href="#DejaVuSans-69" transform="translate(433.386719 0)"/>
     <use xlink:href="#DejaVuSans-6e" transform="translate(461.169922 0)"/>
     <use xlink:href="#DejaVuSans-67" transform="translate(524.548828 0)"/>
    </g>
   </g>
   <g id="text_18">
    <!-- Ref Validation -->
    <g style="fill: #bb5e0d" transform="translate(642.59564 354.217844) scale(0.09 -0.09)">
     <use xlink:href="#DejaVuSans-52"/>
     <use xlink:href="#DejaVuSans-65" transform="translate(64.982422 0)"/>
     <use xlink:href="#DejaVuSans-66" transform="translate(126.505859 0)"/>
     <use xlink:href="#DejaVuSans-20" transform="translate(161.710938 0)"/>
     <use xlink:href="#DejaVuSans-56" transform="translate(193.498047 0)"/>
     <use xlink:href="#DejaVuSans-61" transform="translate(254.15625 0)"/>
     <use xlink:href="#DejaVuSans-6c" transform="translate(315.435547 0)"/>
     <use xlink:href="#DejaVuSans-69" transform="translate(343.21875 0)"/>
     <use xlink:href="#DejaVuSans-64" transform="translate(371.001953 0)"/>
     <use xlink:href="#DejaVuSans-61" transform="translate(434.478516 0)"/>
     <use xlink:href="#DejaVuSans-74" transform="translate(495.757812 0)"/>
     <use xlink:href="#DejaVuSans-69" transform="translate(534.966797 0)"/>
     <use xlink:href="#DejaVuSans-6f" transform="translate(562.75 0)"/>
     <use xlink:href="#DejaVuSans-6e" transform="translate(623.931641 0)"/>
    </g>
   </g>
   <g id="text_19">
    <!-- Training and Validation accuracy over epochs for New (New) and Reference (Ref) models -->
    <g transform="translate(72.470653 19.44) scale(0.12 -0.12)">
     <defs>
      <path id="DejaVuSans-76" d="M 191 3500 
L 800 3500 
L 1894 563 
L 2988 3500 
L 3597 3500 
L 2284 0 
L 1503 0 
L 191 3500 
z
" transform="scale(0.015625)"/>
      <path id="DejaVuSans-73" d="M 2834 3397 
L 2834 2853 
Q 2591 2978 2328 3040 
Q 2066 3103 1784 3103 
Q 1356 3103 1142 2972 
Q 928 2841 928 2578 
Q 928 2378 1081 2264 
Q 1234 2150 1697 2047 
L 1894 2003 
Q 2506 1872 2764 1633 
Q 3022 1394 3022 966 
Q 3022 478 2636 193 
Q 2250 -91 1575 -91 
Q 1294 -91 989 -36 
Q 684 19 347 128 
L 347 722 
Q 666 556 975 473 
Q 1284 391 1588 391 
Q 1994 391 2212 530 
Q 2431 669 2431 922 
Q 2431 1156 2273 1281 
Q 2116 1406 1581 1522 
L 1381 1569 
Q 847 1681 609 1914 
Q 372 2147 372 2553 
Q 372 3047 722 3315 
Q 1072 3584 1716 3584 
Q 2034 3584 2315 3537 
Q 2597 3491 2834 3397 
z
" transform="scale(0.015625)"/>
      <path id="DejaVuSans-6d" d="M 3328 2828 
Q 3544 3216 3844 3400 
Q 4144 3584 4550 3584 
Q 5097 3584 5394 3201 
Q 5691 2819 5691 2113 
L 5691 0 
L 5113 0 
L 5113 2094 
Q 5113 2597 4934 2840 
Q 4756 3084 4391 3084 
Q 3944 3084 3684 2787 
Q 3425 2491 3425 1978 
L 3425 0 
L 2847 0 
L 2847 2094 
Q 2847 2600 2669 2842 
Q 2491 3084 2119 3084 
Q 1678 3084 1418 2786 
Q 1159 2488 1159 1978 
L 1159 0 
L 581 0 
L 581 3500 
L 1159 3500 
L 1159 2956 
Q 1356 3278 1631 3431 
Q 1906 3584 2284 3584 
Q 2666 3584 2933 3390 
Q 3200 3197 3328 2828 
z
" transform="scale(0.015625)"/>
     </defs>
     <use xlink:href="#DejaVuSans-54"/>
     <use xlink:href="#DejaVuSans-72" transform="translate(46.333984 0)"/>
     <use xlink:href="#DejaVuSans-61" transform="translate(87.447266 0)"/>
     <use xlink:href="#DejaVuSans-69" transform="translate(148.726562 0)"/>
     <use xlink:href="#DejaVuSans-6e" transform="translate(176.509766 0)"/>
     <use xlink:href="#DejaVuSans-69" transform="translate(239.888672 0)"/>
     <use xlink:href="#DejaVuSans-6e" transform="translate(267.671875 0)"/>
     <use xlink:href="#DejaVuSans-67" transform="translate(331.050781 0)"/>
     <use xlink:href="#DejaVuSans-20" transform="translate(394.527344 0)"/>
     <use xlink:href="#DejaVuSans-61" transform="translate(426.314453 0)"/>
     <use xlink:href="#DejaVuSans-6e" transform="translate(487.59375 0)"/>
     <use xlink:href="#DejaVuSans-64" transform="translate(550.972656 0)"/>
     <use xlink:href="#DejaVuSans-20" transform="translate(614.449219 0)"/>
     <use xlink:href="#DejaVuSans-56" transform="translate(646.236328 0)"/>
     <use xlink:href="#DejaVuSans-61" transform="translate(706.894531 0)"/>
     <use xlink:href="#DejaVuSans-6c" transform="translate(768.173828 0)"/>
     <use xlink:href="#DejaVuSans-69" transform="translate(795.957031 0)"/>
     <use xlink:href="#DejaVuSans-64" transform="translate(823.740234 0)"/>
     <use xlink:href="#DejaVuSans-61" transform="translate(887.216797 0)"/>
     <use xlink:href="#DejaVuSans-74" transform="translate(948.496094 0)"/>
     <use xlink:href="#DejaVuSans-69" transform="translate(987.705078 0)"/>
     <use xlink:href="#DejaVuSans-6f" transform="translate(1015.488281 0)"/>
     <use xlink:href="#DejaVuSans-6e" transform="translate(1076.669922 0)"/>
     <use xlink:href="#DejaVuSans-20" transform="translate(1140.048828 0)"/>
     <use xlink:href="#DejaVuSans-61" transform="translate(1171.835938 0)"/>
     <use xlink:href="#DejaVuSans-63" transform="translate(1233.115234 0)"/>
     <use xlink:href="#DejaVuSans-63" transform="translate(1288.095703 0)"/>
     <use xlink:href="#DejaVuSans-75" transform="translate(1343.076172 0)"/>
     <use xlink:href="#DejaVuSans-72" transform="translate(1406.455078 0)"/>
     <use xlink:href="#DejaVuSans-61" transform="translate(1447.568359 0)"/>
     <use xlink:href="#DejaVuSans-63" transform="translate(1508.847656 0)"/>
     <use xlink:href="#DejaVuSans-79" transform="translate(1563.828125 0)"/>
     <use xlink:href="#DejaVuSans-20" transform="translate(1623.007812 0)"/>
     <use xlink:href="#DejaVuSans-6f" transform="translate(1654.794922 0)"/>
     <use xlink:href="#DejaVuSans-76" transform="translate(1715.976562 0)"/>
     <use xlink:href="#DejaVuSans-65" transform="translate(1775.15625 0)"/>
     <use xlink:href="#DejaVuSans-72" transform="translate(1836.679688 0)"/>
     <use xlink:href="#DejaVuSans-20" transform="translate(1877.792969 0)"/>
     <use xlink:href="#DejaVuSans-65" transform="translate(1909.580078 0)"/>
     <use xlink:href="#DejaVuSans-70" transform="translate(1971.103516 0)"/>
     <use xlink:href="#DejaVuSans-6f" transform="translate(2034.580078 0)"/>
     <use xlink:href="#DejaVuSans-63" transform="translate(2095.761719 0)"/>
     <use xlink:href="#DejaVuSans-68" transform="translate(2150.742188 0)"/>
     <use xlink:href="#DejaVuSans-73" transform="translate(2214.121094 0)"/>
     <use xlink:href="#DejaVuSans-20" transform="translate(2266.220703 0)"/>
     <use xlink:href="#DejaVuSans-66" transform="translate(2298.007812 0)"/>
     <use xlink:href="#DejaVuSans-6f" transform="translate(2333.212891 0)"/>
     <use xlink:href="#DejaVuSans-72" transform="translate(2394.394531 0)"/>
     <use xlink:href="#DejaVuSans-20" transform="translate(2435.507812 0)"/>
     <use xlink:href="#DejaVuSans-4e" transform="translate(2467.294922 0)"/>
     <use xlink:href="#DejaVuSans-65" transform="translate(2542.099609 0)"/>
     <use xlink:href="#DejaVuSans-77" transform="translate(2603.623047 0)"/>
     <use xlink:href="#DejaVuSans-20" transform="translate(2685.410156 0)"/>
     <use xlink:href="#DejaVuSans-28" transform="translate(2717.197266 0)"/>
     <use xlink:href="#DejaVuSans-4e" transform="translate(2756.210938 0)"/>
     <use xlink:href="#DejaVuSans-65" transform="translate(2831.015625 0)"/>
     <use xlink:href="#DejaVuSans-77" transform="translate(2892.539062 0)"/>
     <use xlink:href="#DejaVuSans-29" transform="translate(2974.326172 0)"/>
     <use xlink:href="#DejaVuSans-20" transform="translate(3013.339844 0)"/>
     <use xlink:href="#DejaVuSans-61" transform="translate(3045.126953 0)"/>
     <use xlink:href="#DejaVuSans-6e" transform="translate(3106.40625 0)"/>
     <use xlink:href="#DejaVuSans-64" transform="translate(3169.785156 0)"/>
     <use xlink:href="#DejaVuSans-20" transform="translate(3233.261719 0)"/>
     <use xlink:href="#DejaVuSans-52" transform="translate(3265.048828 0)"/>
     <use xlink:href="#DejaVuSans-65" transform="translate(3330.03125 0)"/>
     <use xlink:href="#DejaVuSans-66" transform="translate(3391.554688 0)"/>
     <use xlink:href="#DejaVuSans-65" transform="translate(3426.759766 0)"/>
     <use xlink:href="#DejaVuSans-72" transform="translate(3488.283203 0)"/>
     <use xlink:href="#DejaVuSans-65" transform="translate(3527.146484 0)"/>
     <use xlink:href="#DejaVuSans-6e" transform="translate(3588.669922 0)"/>
     <use xlink:href="#DejaVuSans-63" transform="translate(3652.048828 0)"/>
     <use xlink:href="#DejaVuSans-65" transform="translate(3707.029297 0)"/>
     <use xlink:href="#DejaVuSans-20" transform="translate(3768.552734 0)"/>
     <use xlink:href="#DejaVuSans-28" transform="translate(3800.339844 0)"/>
     <use xlink:href="#DejaVuSans-52" transform="translate(3839.353516 0)"/>
     <use xlink:href="#DejaVuSans-65" transform="translate(3904.335938 0)"/>
     <use xlink:href="#DejaVuSans-66" transform="translate(3965.859375 0)"/>
     <use xlink:href="#DejaVuSans-29" transform="translate(4001.064453 0)"/>
     <use xlink:href="#DejaVuSans-20" transform="translate(4040.078125 0)"/>
     <use xlink:href="#DejaVuSans-6d" transform="translate(4071.865234 0)"/>
     <use xlink:href="#DejaVuSans-6f" transform="translate(4169.277344 0)"/>
     <use xlink:href="#DejaVuSans-64" transform="translate(4230.458984 0)"/>
     <use xlink:href="#DejaVuSans-65" transform="translate(4293.935547 0)"/>
     <use xlink:href="#DejaVuSans-6c" transform="translate(4355.458984 0)"/>
     <use xlink:href="#DejaVuSans-73" transform="translate(4383.242188 0)"/>
    </g>
   </g>
   <g id="legend_1">
    <g id="patch_7">
     <path d="M 467.171932 92.1525 
L 622.378182 92.1525 
Q 624.378182 92.1525 624.378182 90.1525 
L 624.378182 32.44 
Q 624.378182 30.44 622.378182 30.44 
L 467.171932 30.44 
Q 465.171932 30.44 465.171932 32.44 
L 465.171932 90.1525 
Q 465.171932 92.1525 467.171932 92.1525 
z
" style="fill: #ffffff; opacity: 0.8; stroke: #cccccc; stroke-linejoin: miter"/>
    </g>
    <g id="line2d_17">
     <path d="M 469.171932 38.538437 
L 479.171932 38.538437 
L 489.171932 38.538437 
" style="fill: none; stroke: #0000ff; stroke-width: 1.5; stroke-linecap: square"/>
    </g>
    <g id="text_20">
     <!-- Ref Training Accuracy -->
     <g transform="translate(497.171932 42.038437) scale(0.1 -0.1)">
      <use xlink:href="#DejaVuSans-52"/>
      <use xlink:href="#DejaVuSans-65" transform="translate(64.982422 0)"/>
      <use xlink:href="#DejaVuSans-66" transform="translate(126.505859 0)"/>
      <use xlink:href="#DejaVuSans-20" transform="translate(161.710938 0)"/>
      <use xlink:href="#DejaVuSans-54" transform="translate(193.498047 0)"/>
      <use xlink:href="#DejaVuSans-72" transform="translate(239.832031 0)"/>
      <use xlink:href="#DejaVuSans-61" transform="translate(280.945312 0)"/>
      <use xlink:href="#DejaVuSans-69" transform="translate(342.224609 0)"/>
      <use xlink:href="#DejaVuSans-6e" transform="translate(370.007812 0)"/>
      <use xlink:href="#DejaVuSans-69" transform="translate(433.386719 0)"/>
      <use xlink:href="#DejaVuSans-6e" transform="translate(461.169922 0)"/>
      <use xlink:href="#DejaVuSans-67" transform="translate(524.548828 0)"/>
      <use xlink:href="#DejaVuSans-20" transform="translate(588.025391 0)"/>
      <use xlink:href="#DejaVuSans-41" transform="translate(619.8125 0)"/>
      <use xlink:href="#DejaVuSans-63" transform="translate(686.470703 0)"/>
      <use xlink:href="#DejaVuSans-63" transform="translate(741.451172 0)"/>
      <use xlink:href="#DejaVuSans-75" transform="translate(796.431641 0)"/>
      <use xlink:href="#DejaVuSans-72" transform="translate(859.810547 0)"/>
      <use xlink:href="#DejaVuSans-61" transform="translate(900.923828 0)"/>
      <use xlink:href="#DejaVuSans-63" transform="translate(962.203125 0)"/>
      <use xlink:href="#DejaVuSans-79" transform="translate(1017.183594 0)"/>
     </g>
    </g>
    <g id="line2d_18">
     <path d="M 469.171932 53.216562 
L 479.171932 53.216562 
L 489.171932 53.216562 
" style="fill: none; stroke: #ffa500; stroke-width: 1.5; stroke-linecap: square"/>
    </g>
    <g id="text_21">
     <!-- Ref Validation Accuracy -->
     <g transform="translate(497.171932 56.716562) scale(0.1 -0.1)">
      <use xlink:href="#DejaVuSans-52"/>
      <use xlink:href="#DejaVuSans-65" transform="translate(64.982422 0)"/>
      <use xlink:href="#DejaVuSans-66" transform="translate(126.505859 0)"/>
      <use xlink:href="#DejaVuSans-20" transform="translate(161.710938 0)"/>
      <use xlink:href="#DejaVuSans-56" transform="translate(193.498047 0)"/>
      <use xlink:href="#DejaVuSans-61" transform="translate(254.15625 0)"/>
      <use xlink:href="#DejaVuSans-6c" transform="translate(315.435547 0)"/>
      <use xlink:href="#DejaVuSans-69" transform="translate(343.21875 0)"/>
      <use xlink:href="#DejaVuSans-64" transform="translate(371.001953 0)"/>
      <use xlink:href="#DejaVuSans-61" transform="translate(434.478516 0)"/>
      <use xlink:href="#DejaVuSans-74" transform="translate(495.757812 0)"/>
      <use xlink:href="#DejaVuSans-69" transform="translate(534.966797 0)"/>
      <use xlink:href="#DejaVuSans-6f" transform="translate(562.75 0)"/>
      <use xlink:href="#DejaVuSans-6e" transform="translate(623.931641 0)"/>
      <use xlink:href="#DejaVuSans-20" transform="translate(687.310547 0)"/>
      <use xlink:href="#DejaVuSans-41" transform="translate(719.097656 0)"/>
      <use xlink:href="#DejaVuSans-63" transform="translate(785.755859 0)"/>
      <use xlink:href="#DejaVuSans-63" transform="translate(840.736328 0)"/>
      <use xlink:href="#DejaVuSans-75" transform="translate(895.716797 0)"/>
      <use xlink:href="#DejaVuSans-72" transform="translate(959.095703 0)"/>
      <use xlink:href="#DejaVuSans-61" transform="translate(1000.208984 0)"/>
      <use xlink:href="#DejaVuSans-63" transform="translate(1061.488281 0)"/>
      <use xlink:href="#DejaVuSans-79" transform="translate(1116.46875 0)"/>
     </g>
    </g>
    <g id="line2d_19">
     <path d="M 469.171932 67.894687 
L 479.171932 67.894687 
L 489.171932 67.894687 
" style="fill: none; stroke-dasharray: 9.6,2.4,1.5,2.4; stroke-dashoffset: 0; stroke: #1e66a3; stroke-width: 1.5"/>
    </g>
    <g id="text_22">
     <!-- New Training Accuracy -->
     <g transform="translate(497.171932 71.394687) scale(0.1 -0.1)">
      <use xlink:href="#DejaVuSans-4e"/>
      <use xlink:href="#DejaVuSans-65" transform="translate(74.804688 0)"/>
      <use xlink:href="#DejaVuSans-77" transform="translate(136.328125 0)"/>
      <use xlink:href="#DejaVuSans-20" transform="translate(218.115234 0)"/>
      <use xlink:href="#DejaVuSans-54" transform="translate(249.902344 0)"/>
      <use xlink:href="#DejaVuSans-72" transform="translate(296.236328 0)"/>
      <use xlink:href="#DejaVuSans-61" transform="translate(337.349609 0)"/>
      <use xlink:href="#DejaVuSans-69" transform="translate(398.628906 0)"/>
      <use xlink:href="#DejaVuSans-6e" transform="translate(426.412109 0)"/>
      <use xlink:href="#DejaVuSans-69" transform="translate(489.791016 0)"/>
      <use xlink:href="#DejaVuSans-6e" transform="translate(517.574219 0)"/>
      <use xlink:href="#DejaVuSans-67" transform="translate(580.953125 0)"/>
      <use xlink:href="#DejaVuSans-20" transform="translate(644.429688 0)"/>
      <use xlink:href="#DejaVuSans-41" transform="translate(676.216797 0)"/>
      <use xlink:href="#DejaVuSans-63" transform="translate(742.875 0)"/>
      <use xlink:href="#DejaVuSans-63" transform="translate(797.855469 0)"/>
      <use xlink:href="#DejaVuSans-75" transform="translate(852.835938 0)"/>
      <use xlink:href="#DejaVuSans-72" transform="translate(916.214844 0)"/>
      <use xlink:href="#DejaVuSans-61" transform="translate(957.328125 0)"/>
      <use xlink:href="#DejaVuSans-63" transform="translate(1018.607422 0)"/>
      <use xlink:href="#DejaVuSans-79" transform="translate(1073.587891 0)"/>
     </g>
    </g>
    <g id="line2d_20">
     <path d="M 469.171932 82.572812 
L 479.171932 82.572812 
L 489.171932 82.572812 
" style="fill: none; stroke-dasharray: 9.6,2.4,1.5,2.4; stroke-dashoffset: 0; stroke: #bb5e0d; stroke-width: 1.5"/>
    </g>
    <g id="text_23">
     <!-- New Validation Accuracy -->
     <g transform="translate(497.171932 86.072812) scale(0.1 -0.1)">
      <use xlink:href="#DejaVuSans-4e"/>
      <use xlink:href="#DejaVuSans-65" transform="translate(74.804688 0)"/>
      <use xlink:href="#DejaVuSans-77" transform="translate(136.328125 0)"/>
      <use xlink:href="#DejaVuSans-20" transform="translate(218.115234 0)"/>
      <use xlink:href="#DejaVuSans-56" transform="translate(249.902344 0)"/>
      <use xlink:href="#DejaVuSans-61" transform="translate(310.560547 0)"/>
      <use xlink:href="#DejaVuSans-6c" transform="translate(371.839844 0)"/>
      <use xlink:href="#DejaVuSans-69" transform="translate(399.623047 0)"/>
      <use xlink:href="#DejaVuSans-64" transform="translate(427.40625 0)"/>
      <use xlink:href="#DejaVuSans-61" transform="translate(490.882812 0)"/>
      <use xlink:href="#DejaVuSans-74" transform="translate(552.162109 0)"/>
      <use xlink:href="#DejaVuSans-69" transform="translate(591.371094 0)"/>
      <use xlink:href="#DejaVuSans-6f" transform="translate(619.154297 0)"/>
      <use xlink:href="#DejaVuSans-6e" transform="translate(680.335938 0)"/>
      <use xlink:href="#DejaVuSans-20" transform="translate(743.714844 0)"/>
      <use xlink:href="#DejaVuSans-41" transform="translate(775.501953 0)"/>
      <use xlink:href="#DejaVuSans-63" transform="translate(842.160156 0)"/>
      <use xlink:href="#DejaVuSans-63" transform="translate(897.140625 0)"/>
      <use xlink:href="#DejaVuSans-75" transform="translate(952.121094 0)"/>
      <use xlink:href="#DejaVuSans-72" transform="translate(1015.5 0)"/>
      <use xlink:href="#DejaVuSans-61" transform="translate(1056.613281 0)"/>
      <use xlink:href="#DejaVuSans-63" transform="translate(1117.892578 0)"/>
      <use xlink:href="#DejaVuSans-79" transform="translate(1172.873047 0)"/>
     </g>
    </g>
   </g>
  </g>
  <g id="axes_2">
   <g id="table_1">
    <g id="patch_8">
     <path d="M 157.709091 482.233333 
L 274.922841 482.233333 
L 274.922841 461.491667 
L 157.709091 461.491667 
z
" style="fill: #ffffff; stroke: #000000; stroke-linejoin: miter"/>
    </g>
    <g id="text_24">
     <!-- Metric -->
     <g transform="translate(200.771435 474.621875) scale(0.1 -0.1)">
      <use xlink:href="#DejaVuSans-4d"/>
      <use xlink:href="#DejaVuSans-65" transform="translate(86.279297 0)"/>
      <use xlink:href="#DejaVuSans-74" transform="translate(147.802734 0)"/>
      <use xlink:href="#DejaVuSans-72" transform="translate(187.011719 0)"/>
      <use xlink:href="#DejaVuSans-69" transform="translate(228.125 0)"/>
      <use xlink:href="#DejaVuSans-63" transform="translate(255.908203 0)"/>
     </g>
    </g>
    <g id="patch_9">
     <path d="M 274.922841 482.233333 
L 366.180966 482.233333 
L 366.180966 461.491667 
L 274.922841 461.491667 
z
" style="fill: #ffffff; stroke: #000000; stroke-linejoin: miter"/>
    </g>
    <g id="text_25">
     <!-- New -->
     <g transform="translate(309.645653 474.621875) scale(0.1 -0.1)">
      <use xlink:href="#DejaVuSans-4e"/>
      <use xlink:href="#DejaVuSans-65" transform="translate(74.804688 0)"/>
      <use xlink:href="#DejaVuSans-77" transform="translate(136.328125 0)"/>
     </g>
    </g>
    <g id="patch_10">
     <path d="M 366.180966 482.233333 
L 457.439091 482.233333 
L 457.439091 461.491667 
L 366.180966 461.491667 
z
" style="fill: #ffffff; stroke: #000000; stroke-linejoin: miter"/>
    </g>
    <g id="text_26">
     <!-- Ref -->
     <g transform="translate(403.724091 474.621875) scale(0.1 -0.1)">
      <use xlink:href="#DejaVuSans-52"/>
      <use xlink:href="#DejaVuSans-65" transform="translate(64.982422 0)"/>
      <use xlink:href="#DejaVuSans-66" transform="translate(126.505859 0)"/>
     </g>
    </g>
    <g id="patch_11">
     <path d="M 457.439091 482.233333 
L 519.479091 482.233333 
L 519.479091 461.491667 
L 457.439091 461.491667 
z
" style="fill: #ffffff; stroke: #000000; stroke-linejoin: miter"/>
    </g>
    <g id="text_27">
     <!-- Difference -->
     <g transform="translate(462.609091 474.621875) scale(0.1 -0.1)">
      <defs>
       <path id="DejaVuSans-44" d="M 1259 4147 
L 1259 519 
L 2022 519 
Q 2988 519 3436 956 
Q 3884 1394 3884 2338 
Q 3884 3275 3436 3711 
Q 2988 4147 2022 4147 
L 1259 4147 
z
M 628 4666 
L 1925 4666 
Q 3281 4666 3915 4102 
Q 4550 3538 4550 2338 
Q 4550 1131 3912 565 
Q 3275 0 1925 0 
L 628 0 
L 628 4666 
z
" transform="scale(0.015625)"/>
      </defs>
      <use xlink:href="#DejaVuSans-44"/>
      <use xlink:href="#DejaVuSans-69" transform="translate(77.001953 0)"/>
      <use xlink:href="#DejaVuSans-66" transform="translate(104.785156 0)"/>
      <use xlink:href="#DejaVuSans-66" transform="translate(139.990234 0)"/>
      <use xlink:href="#DejaVuSans-65" transform="translate(175.195312 0)"/>
      <use xlink:href="#DejaVuSans-72" transform="translate(236.71875 0)"/>
      <use xlink:href="#DejaVuSans-65" transform="translate(275.582031 0)"/>
      <use xlink:href="#DejaVuSans-6e" transform="translate(337.105469 0)"/>
      <use xlink:href="#DejaVuSans-63" transform="translate(400.484375 0)"/>
      <use xlink:href="#DejaVuSans-65" transform="translate(455.464844 0)"/>
     </g>
    </g>
    <g id="patch_12">
     <path d="M 157.709091 502.975 
L 274.922841 502.975 
L 274.922841 482.233333 
L 157.709091 482.233333 
z
" style="fill: #ffffff; stroke: #000000; stroke-linejoin: miter"/>
    </g>
    <g id="text_28">
     <!-- Training time -->
     <g transform="translate(183.705028 495.363542) scale(0.1 -0.1)">
      <use xlink:href="#DejaVuSans-54"/>
      <use xlink:href="#DejaVuSans-72" transform="translate(46.333984 0)"/>
      <use xlink:href="#DejaVuSans-61" transform="translate(87.447266 0)"/>
      <use xlink:href="#DejaVuSans-69" transform="translate(148.726562 0)"/>
      <use xlink:href="#DejaVuSans-6e" transform="translate(176.509766 0)"/>
      <use xlink:href="#DejaVuSans-69" transform="translate(239.888672 0)"/>
      <use xlink:href="#DejaVuSans-6e" transform="translate(267.671875 0)"/>
      <use xlink:href="#DejaVuSans-67" transform="translate(331.050781 0)"/>
      <use xlink:href="#DejaVuSans-20" transform="translate(394.527344 0)"/>
      <use xlink:href="#DejaVuSans-74" transform="translate(426.314453 0)"/>
      <use xlink:href="#DejaVuSans-69" transform="translate(465.523438 0)"/>
      <use xlink:href="#DejaVuSans-6d" transform="translate(493.306641 0)"/>
      <use xlink:href="#DejaVuSans-65" transform="translate(590.71875 0)"/>
     </g>
    </g>
    <g id="patch_13">
     <path d="M 274.922841 502.975 
L 366.180966 502.975 
L 366.180966 482.233333 
L 274.922841 482.233333 
z
" style="fill: #ffffff; stroke: #000000; stroke-linejoin: miter"/>
    </g>
    <g id="text_29">
     <!-- 29.08s  0.18s -->
     <g transform="translate(282.527685 495.363542) scale(0.1 -0.1)">
      <defs>
       <path id="DejaVuSans-39" d="M 703 97 
L 703 672 
Q 941 559 1184 500 
Q 1428 441 1663 441 
Q 2288 441 2617 861 
Q 2947 1281 2994 2138 
Q 2813 1869 2534 1725 
Q 2256 1581 1919 1581 
Q 1219 1581 811 2004 
Q 403 2428 403 3163 
Q 403 3881 828 4315 
Q 1253 4750 1959 4750 
Q 2769 4750 3195 4129 
Q 3622 3509 3622 2328 
Q 3622 1225 3098 567 
Q 2575 -91 1691 -91 
Q 1453 -91 1209 -44 
Q 966 3 703 97 
z
M 1959 2075 
Q 2384 2075 2632 2365 
Q 2881 2656 2881 3163 
Q 2881 3666 2632 3958 
Q 2384 4250 1959 4250 
Q 1534 4250 1286 3958 
Q 1038 3666 1038 3163 
Q 1038 2656 1286 2365 
Q 1534 2075 1959 2075 
z
" transform="scale(0.015625)"/>
       <path id="DejaVuSans-b1" d="M 2944 4013 
L 2944 2803 
L 4684 2803 
L 4684 2272 
L 2944 2272 
L 2944 1063 
L 2419 1063 
L 2419 2272 
L 678 2272 
L 678 2803 
L 2419 2803 
L 2419 4013 
L 2944 4013 
z
M 678 531 
L 4684 531 
L 4684 0 
L 678 0 
L 678 531 
z
" transform="scale(0.015625)"/>
      </defs>
      <use xlink:href="#DejaVuSans-32"/>
      <use xlink:href="#DejaVuSans-39" transform="translate(63.623047 0)"/>
      <use xlink:href="#DejaVuSans-2e" transform="translate(127.246094 0)"/>
      <use xlink:href="#DejaVuSans-30" transform="translate(159.033203 0)"/>
      <use xlink:href="#DejaVuSans-38" transform="translate(222.65625 0)"/>
      <use xlink:href="#DejaVuSans-73" transform="translate(286.279297 0)"/>
      <use xlink:href="#DejaVuSans-20" transform="translate(338.378906 0)"/>
      <use xlink:href="#DejaVuSans-b1" transform="translate(370.166016 0)"/>
      <use xlink:href="#DejaVuSans-20" transform="translate(453.955078 0)"/>
      <use xlink:href="#DejaVuSans-30" transform="translate(485.742188 0)"/>
      <use xlink:href="#DejaVuSans-2e" transform="translate(549.365234 0)"/>
      <use xlink:href="#DejaVuSans-31" transform="translate(581.152344 0)"/>
      <use xlink:href="#DejaVuSans-38" transform="translate(644.775391 0)"/>
      <use xlink:href="#DejaVuSans-73" transform="translate(708.398438 0)"/>
     </g>
    </g>
    <g id="patch_14">
     <path d="M 366.180966 502.975 
L 457.439091 502.975 
L 457.439091 482.233333 
L 366.180966 482.233333 
z
" style="fill: #ffffff; stroke: #000000; stroke-linejoin: miter"/>
    </g>
    <g id="text_30">
     <!-- 28.18s  0.65s -->
     <g transform="translate(373.78581 495.363542) scale(0.1 -0.1)">
      <defs>
       <path id="DejaVuSans-35" d="M 691 4666 
L 3169 4666 
L 3169 4134 
L 1269 4134 
L 1269 2991 
Q 1406 3038 1543 3061 
Q 1681 3084 1819 3084 
Q 2600 3084 3056 2656 
Q 3513 2228 3513 1497 
Q 3513 744 3044 326 
Q 2575 -91 1722 -91 
Q 1428 -91 1123 -41 
Q 819 9 494 109 
L 494 744 
Q 775 591 1075 516 
Q 1375 441 1709 441 
Q 2250 441 2565 725 
Q 2881 1009 2881 1497 
Q 2881 1984 2565 2268 
Q 2250 2553 1709 2553 
Q 1456 2553 1204 2497 
Q 953 2441 691 2322 
L 691 4666 
z
" transform="scale(0.015625)"/>
      </defs>
      <use xlink:href="#DejaVuSans-32"/>
      <use xlink:href="#DejaVuSans-38" transform="translate(63.623047 0)"/>
      <use xlink:href="#DejaVuSans-2e" transform="translate(127.246094 0)"/>
      <use xlink:href="#DejaVuSans-31" transform="translate(159.033203 0)"/>
      <use xlink:href="#DejaVuSans-38" transform="translate(222.65625 0)"/>
      <use xlink:href="#DejaVuSans-73" transform="translate(286.279297 0)"/>
      <use xlink:href="#DejaVuSans-20" transform="translate(338.378906 0)"/>
      <use xlink:href="#DejaVuSans-b1" transform="translate(370.166016 0)"/>
      <use xlink:href="#DejaVuSans-20" transform="translate(453.955078 0)"/>
      <use xlink:href="#DejaVuSans-30" transform="translate(485.742188 0)"/>
      <use xlink:href="#DejaVuSans-2e" transform="translate(549.365234 0)"/>
      <use xlink:href="#DejaVuSans-36" transform="translate(581.152344 0)"/>
      <use xlink:href="#DejaVuSans-35" transform="translate(644.775391 0)"/>
      <use xlink:href="#DejaVuSans-73" transform="translate(708.398438 0)"/>
     </g>
    </g>
    <g id="patch_15">
     <path d="M 457.439091 502.975 
L 519.479091 502.975 
L 519.479091 482.233333 
L 457.439091 482.233333 
z
" style="fill: #ffffff; stroke: #000000; stroke-linejoin: miter"/>
    </g>
    <g id="text_31">
     <!-- +0.90s -->
     <g style="fill: #ff0000" transform="translate(470.531747 495.363542) scale(0.1 -0.1)">
      <defs>
       <path id="DejaVuSans-2b" d="M 2944 4013 
L 2944 2272 
L 4684 2272 
L 4684 1741 
L 2944 1741 
L 2944 0 
L 2419 0 
L 2419 1741 
L 678 1741 
L 678 2272 
L 2419 2272 
L 2419 4013 
L 2944 4013 
z
" transform="scale(0.015625)"/>
      </defs>
      <use xlink:href="#DejaVuSans-2b"/>
      <use xlink:href="#DejaVuSans-30" transform="translate(83.789062 0)"/>
      <use xlink:href="#DejaVuSans-2e" transform="translate(147.412109 0)"/>
      <use xlink:href="#DejaVuSans-39" transform="translate(179.199219 0)"/>
      <use xlink:href="#DejaVuSans-30" transform="translate(242.822266 0)"/>
      <use xlink:href="#DejaVuSans-73" transform="translate(306.445312 0)"/>
     </g>
    </g>
    <g id="patch_16">
     <path d="M 157.709091 523.716667 
L 274.922841 523.716667 
L 274.922841 502.975 
L 157.709091 502.975 
z
" style="fill: #ffffff; stroke: #000000; stroke-linejoin: miter"/>
    </g>
    <g id="text_32">
     <!-- Training accuracy -->
     <g transform="translate(172.441747 516.105208) scale(0.1 -0.1)">
      <use xlink:href="#DejaVuSans-54"/>
      <use xlink:href="#DejaVuSans-72" transform="translate(46.333984 0)"/>
      <use xlink:href="#DejaVuSans-61" transform="translate(87.447266 0)"/>
      <use xlink:href="#DejaVuSans-69" transform="translate(148.726562 0)"/>
      <use xlink:href="#DejaVuSans-6e" transform="translate(176.509766 0)"/>
      <use xlink:href="#DejaVuSans-69" transform="translate(239.888672 0)"/>
      <use xlink:href="#DejaVuSans-6e" transform="translate(267.671875 0)"/>
      <use xlink:href="#DejaVuSans-67" transform="translate(331.050781 0)"/>
      <use xlink:href="#DejaVuSans-20" transform="translate(394.527344 0)"/>
      <use xlink:href="#DejaVuSans-61" transform="translate(426.314453 0)"/>
      <use xlink:href="#DejaVuSans-63" transform="translate(487.59375 0)"/>
      <use xlink:href="#DejaVuSans-63" transform="translate(542.574219 0)"/>
      <use xlink:href="#DejaVuSans-75" transform="translate(597.554688 0)"/>
      <use xlink:href="#DejaVuSans-72" transform="translate(660.933594 0)"/>
      <use xlink:href="#DejaVuSans-61" transform="translate(702.046875 0)"/>
      <use xlink:href="#DejaVuSans-63" transform="translate(763.326172 0)"/>
      <use xlink:href="#DejaVuSans-79" transform="translate(818.306641 0)"/>
     </g>
    </g>
    <g id="patch_17">
     <path d="M 274.922841 523.716667 
L 366.180966 523.716667 
L 366.180966 502.975 
L 274.922841 502.975 
z
" style="fill: #ffffff; stroke: #000000; stroke-linejoin: miter"/>
    </g>
    <g id="text_33">
     <!-- 0.70 -->
     <g transform="translate(309.419091 516.105208) scale(0.1 -0.1)">
      <defs>
       <path id="DejaVuSans-37" d="M 525 4666 
L 3525 4666 
L 3525 4397 
L 1831 0 
L 1172 0 
L 2766 4134 
L 525 4134 
L 525 4666 
z
" transform="scale(0.015625)"/>
      </defs>
      <use xlink:href="#DejaVuSans-30"/>
      <use xlink:href="#DejaVuSans-2e" transform="translate(63.623047 0)"/>
      <use xlink:href="#DejaVuSans-37" transform="translate(95.410156 0)"/>
      <use xlink:href="#DejaVuSans-30" transform="translate(159.033203 0)"/>
     </g>
    </g>
    <g id="patch_18">
     <path d="M 366.180966 523.716667 
L 457.439091 523.716667 
L 457.439091 502.975 
L 366.180966 502.975 
z
" style="fill: #ffffff; stroke: #000000; stroke-linejoin: miter"/>
    </g>
    <g id="text_34">
     <!-- 0.69 -->
     <g transform="translate(400.677216 516.105208) scale(0.1 -0.1)">
      <use xlink:href="#DejaVuSans-30"/>
      <use xlink:href="#DejaVuSans-2e" transform="translate(63.623047 0)"/>
      <use xlink:href="#DejaVuSans-36" transform="translate(95.410156 0)"/>
      <use xlink:href="#DejaVuSans-39" transform="translate(159.033203 0)"/>
     </g>
    </g>
    <g id="patch_19">
     <path d="M 457.439091 523.716667 
L 519.479091 523.716667 
L 519.479091 502.975 
L 457.439091 502.975 
z
" style="fill: #ffffff; stroke: #000000; stroke-linejoin: miter"/>
    </g>
    <g id="text_35">
     <!-- +0.01 -->
     <g style="fill: #008000" transform="translate(473.136435 516.105208) scale(0.1 -0.1)">
      <use xlink:href="#DejaVuSans-2b"/>
      <use xlink:href="#DejaVuSans-30" transform="translate(83.789062 0)"/>
      <use xlink:href="#DejaVuSans-2e" transform="translate(147.412109 0)"/>
      <use xlink:href="#DejaVuSans-30" transform="translate(179.199219 0)"/>
      <use xlink:href="#DejaVuSans-31" transform="translate(242.822266 0)"/>
     </g>
    </g>
    <g id="patch_20">
     <path d="M 157.709091 544.458333 
L 274.922841 544.458333 
L 274.922841 523.716667 
L 157.709091 523.716667 
z
" style="fill: #ffffff; stroke: #000000; stroke-linejoin: miter"/>
    </g>
    <g id="text_36">
     <!-- Validation accuracy -->
     <g transform="translate(167.476903 536.846875) scale(0.1 -0.1)">
      <use xlink:href="#DejaVuSans-56"/>
      <use xlink:href="#DejaVuSans-61" transform="translate(60.658203 0)"/>
      <use xlink:href="#DejaVuSans-6c" transform="translate(121.9375 0)"/>
      <use xlink:href="#DejaVuSans-69" transform="translate(149.720703 0)"/>
      <use xlink:href="#DejaVuSans-64" transform="translate(177.503906 0)"/>
      <use xlink:href="#DejaVuSans-61" transform="translate(240.980469 0)"/>
      <use xlink:href="#DejaVuSans-74" transform="translate(302.259766 0)"/>
      <use xlink:href="#DejaVuSans-69" transform="translate(341.46875 0)"/>
      <use xlink:href="#DejaVuSans-6f" transform="translate(369.251953 0)"/>
      <use xlink:href="#DejaVuSans-6e" transform="translate(430.433594 0)"/>
      <use xlink:href="#DejaVuSans-20" transform="translate(493.8125 0)"/>
      <use xlink:href="#DejaVuSans-61" transform="translate(525.599609 0)"/>
      <use xlink:href="#DejaVuSans-63" transform="translate(586.878906 0)"/>
      <use xlink:href="#DejaVuSans-63" transform="translate(641.859375 0)"/>
      <use xlink:href="#DejaVuSans-75" transform="translate(696.839844 0)"/>
      <use xlink:href="#DejaVuSans-72" transform="translate(760.21875 0)"/>
      <use xlink:href="#DejaVuSans-61" transform="translate(801.332031 0)"/>
      <use xlink:href="#DejaVuSans-63" transform="translate(862.611328 0)"/>
      <use xlink:href="#DejaVuSans-79" transform="translate(917.591797 0)"/>
     </g>
    </g>
    <g id="patch_21">
     <path d="M 274.922841 544.458333 
L 366.180966 544.458333 
L 366.180966 523.716667 
L 274.922841 523.716667 
z
" style="fill: #ffffff; stroke: #000000; stroke-linejoin: miter"/>
    </g>
    <g id="text_37">
     <!-- 0.19 -->
     <g transform="translate(309.419091 536.846875) scale(0.1 -0.1)">
      <use xlink:href="#DejaVuSans-30"/>
      <use xlink:href="#DejaVuSans-2e" transform="translate(63.623047 0)"/>
      <use xlink:href="#DejaVuSans-31" transform="translate(95.410156 0)"/>
      <use xlink:href="#DejaVuSans-39" transform="translate(159.033203 0)"/>
     </g>
    </g>
    <g id="patch_22">
     <path d="M 366.180966 544.458333 
L 457.439091 544.458333 
L 457.439091 523.716667 
L 366.180966 523.716667 
z
" style="fill: #ffffff; stroke: #000000; stroke-linejoin: miter"/>
    </g>
    <g id="text_38">
     <!-- 0.11 -->
     <g transform="translate(400.677216 536.846875) scale(0.1 -0.1)">
      <use xlink:href="#DejaVuSans-30"/>
      <use xlink:href="#DejaVuSans-2e" transform="translate(63.623047 0)"/>
      <use xlink:href="#DejaVuSans-31" transform="translate(95.410156 0)"/>
      <use xlink:href="#DejaVuSans-31" transform="translate(159.033203 0)"/>
     </g>
    </g>
    <g id="patch_23">
     <path d="M 457.439091 544.458333 
L 519.479091 544.458333 
L 519.479091 523.716667 
L 457.439091 523.716667 
z
" style="fill: #ffffff; stroke: #000000; stroke-linejoin: miter"/>
    </g>
    <g id="text_39">
     <!-- +0.07 -->
     <g style="fill: #008000" transform="translate(473.136435 536.846875) scale(0.1 -0.1)">
      <use xlink:href="#DejaVuSans-2b"/>
      <use xlink:href="#DejaVuSans-30" transform="translate(83.789062 0)"/>
      <use xlink:href="#DejaVuSans-2e" transform="translate(147.412109 0)"/>
      <use xlink:href="#DejaVuSans-30" transform="translate(179.199219 0)"/>
      <use xlink:href="#DejaVuSans-37" transform="translate(242.822266 0)"/>
     </g>
    </g>
   </g>
   <g id="text_40">
    <!-- Summary of Training and Validation results -->
    <g transform="translate(188.097372 457.058125) scale(0.14 -0.14)">
     <defs>
      <path id="DejaVuSans-53" d="M 3425 4513 
L 3425 3897 
Q 3066 4069 2747 4153 
Q 2428 4238 2131 4238 
Q 1616 4238 1336 4038 
Q 1056 3838 1056 3469 
Q 1056 3159 1242 3001 
Q 1428 2844 1947 2747 
L 2328 2669 
Q 3034 2534 3370 2195 
Q 3706 1856 3706 1288 
Q 3706 609 3251 259 
Q 2797 -91 1919 -91 
Q 1588 -91 1214 -16 
Q 841 59 441 206 
L 441 856 
Q 825 641 1194 531 
Q 1563 422 1919 422 
Q 2459 422 2753 634 
Q 3047 847 3047 1241 
Q 3047 1584 2836 1778 
Q 2625 1972 2144 2069 
L 1759 2144 
Q 1053 2284 737 2584 
Q 422 2884 422 3419 
Q 422 4038 858 4394 
Q 1294 4750 2059 4750 
Q 2388 4750 2728 4690 
Q 3069 4631 3425 4513 
z
" transform="scale(0.015625)"/>
     </defs>
     <use xlink:href="#DejaVuSans-53"/>
     <use xlink:href="#DejaVuSans-75" transform="translate(63.476562 0)"/>
     <use xlink:href="#DejaVuSans-6d" transform="translate(126.855469 0)"/>
     <use xlink:href="#DejaVuSans-6d" transform="translate(224.267578 0)"/>
     <use xlink:href="#DejaVuSans-61" transform="translate(321.679688 0)"/>
     <use xlink:href="#DejaVuSans-72" transform="translate(382.958984 0)"/>
     <use xlink:href="#DejaVuSans-79" transform="translate(424.072266 0)"/>
     <use xlink:href="#DejaVuSans-20" transform="translate(483.251953 0)"/>
     <use xlink:href="#DejaVuSans-6f" transform="translate(515.039062 0)"/>
     <use xlink:href="#DejaVuSans-66" transform="translate(576.220703 0)"/>
     <use xlink:href="#DejaVuSans-20" transform="translate(611.425781 0)"/>
     <use xlink:href="#DejaVuSans-54" transform="translate(643.212891 0)"/>
     <use xlink:href="#DejaVuSans-72" transform="translate(689.546875 0)"/>
     <use xlink:href="#DejaVuSans-61" transform="translate(730.660156 0)"/>
     <use xlink:href="#DejaVuSans-69" transform="translate(791.939453 0)"/>
     <use xlink:href="#DejaVuSans-6e" transform="translate(819.722656 0)"/>
     <use xlink:href="#DejaVuSans-69" transform="translate(883.101562 0)"/>
     <use xlink:href="#DejaVuSans-6e" transform="translate(910.884766 0)"/>
     <use xlink:href="#DejaVuSans-67" transform="translate(974.263672 0)"/>
     <use xlink:href="#DejaVuSans-20" transform="translate(1037.740234 0)"/>
     <use xlink:href="#DejaVuSans-61" transform="translate(1069.527344 0)"/>
     <use xlink:href="#DejaVuSans-6e" transform="translate(1130.806641 0)"/>
     <use xlink:href="#DejaVuSans-64" transform="translate(1194.185547 0)"/>
     <use xlink:href="#DejaVuSans-20" transform="translate(1257.662109 0)"/>
     <use xlink:href="#DejaVuSans-56" transform="translate(1289.449219 0)"/>
     <use xlink:href="#DejaVuSans-61" transform="translate(1350.107422 0)"/>
     <use xlink:href="#DejaVuSans-6c" transform="translate(1411.386719 0)"/>
     <use xlink:href="#DejaVuSans-69" transform="translate(1439.169922 0)"/>
     <use xlink:href="#DejaVuSans-64" transform="translate(1466.953125 0)"/>
     <use xlink:href="#DejaVuSans-61" transform="translate(1530.429688 0)"/>
     <use xlink:href="#DejaVuSans-74" transform="translate(1591.708984 0)"/>
     <use xlink:href="#DejaVuSans-69" transform="translate(1630.917969 0)"/>
     <use xlink:href="#DejaVuSans-6f" transform="translate(1658.701172 0)"/>
     <use xlink:href="#DejaVuSans-6e" transform="translate(1719.882812 0)"/>
     <use xlink:href="#DejaVuSans-20" transform="translate(1783.261719 0)"/>
     <use xlink:href="#DejaVuSans-72" transform="translate(1815.048828 0)"/>
     <use xlink:href="#DejaVuSans-65" transform="translate(1853.912109 0)"/>
     <use xlink:href="#DejaVuSans-73" transform="translate(1915.435547 0)"/>
     <use xlink:href="#DejaVuSans-75" transform="translate(1967.535156 0)"/>
     <use xlink:href="#DejaVuSans-6c" transform="translate(2030.914062 0)"/>
     <use xlink:href="#DejaVuSans-74" transform="translate(2058.697266 0)"/>
     <use xlink:href="#DejaVuSans-73" transform="translate(2097.90625 0)"/>
    </g>
   </g>
  </g>
 </g>
 <defs>
  <clipPath id="p876deee8d4">
   <rect x="47.81" y="25.44" width="581.568182" height="373.35"/>
  </clipPath>
 </defs>
</svg>
