<?xml version="1.0" encoding="utf-8" standalone="no"?>
<!DOCTYPE svg PUBLIC "-//W3C//DTD SVG 1.1//EN"
  "http://www.w3.org/Graphics/SVG/1.1/DTD/svg11.dtd">
<svg xmlns:xlink="http://www.w3.org/1999/xlink" width="720pt" height="432pt" viewBox="0 0 720 432" xmlns="http://www.w3.org/2000/svg" version="1.1">
 <metadata>
  <rdf:RDF xmlns:dc="http://purl.org/dc/elements/1.1/" xmlns:cc="http://creativecommons.org/ns#" xmlns:rdf="http://www.w3.org/1999/02/22-rdf-syntax-ns#">
   <cc:Work>
    <dc:type rdf:resource="http://purl.org/dc/dcmitype/StillImage"/>
    <dc:date>1980-01-01T00:00:00+00:00</dc:date>
    <dc:format>image/svg+xml</dc:format>
    <dc:creator>
     <cc:Agent>
      <dc:title>Matplotlib v3.10.1, https://matplotlib.org/</dc:title>
     </cc:Agent>
    </dc:creator>
   </cc:Work>
  </rdf:RDF>
 </metadata>
 <defs>
  <style type="text/css">*{stroke-linejoin: round; stroke-linecap: butt}</style>
 </defs>
 <g id="figure_1">
  <g id="patch_1">
   <path d="M 0 432 
L 720 432 
L 720 0 
L 0 0 
z
" style="fill: #ffffff"/>
  </g>
  <g id="axes_1">
   <g id="patch_2">
    <path d="M 90 384.48 
L 648 384.48 
L 648 51.84 
L 90 51.84 
z
" style="fill: #ffffff"/>
   </g>
   <g id="matplotlib.axis_1">
    <g id="xtick_1">
     <g id="line2d_1">
      <path d="M 115.363636 384.48 
L 115.363636 51.84 
" clip-path="url(#p00dcdc55bc)" style="fill: none; stroke: #b0b0b0; stroke-width: 0.8; stroke-linecap: square"/>
     </g>
     <g id="line2d_2">
      <defs>
       <path id="md7500810bf" d="M 0 0 
L 0 3.5 
" style="stroke: #000000; stroke-width: 0.8"/>
      </defs>
      <g>
       <use xlink:href="#md7500810bf" x="115.363636" y="384.48" style="stroke: #000000; stroke-width: 0.8"/>
      </g>
     </g>
     <g id="text_1">
      <!-- 1 -->
      <g transform="translate(110.909886 402.117813) scale(0.14 -0.14)">
       <defs>
        <path id="DejaVuSans-31" d="M 794 531 
L 1825 531 
L 1825 4091 
L 703 3866 
L 703 4441 
L 1819 4666 
L 2450 4666 
L 2450 531 
L 3481 531 
L 3481 0 
L 794 0 
L 794 531 
z
" transform="scale(0.015625)"/>
       </defs>
       <use xlink:href="#DejaVuSans-31"/>
      </g>
     </g>
    </g>
    <g id="xtick_2">
     <g id="line2d_3">
      <path d="M 187.831169 384.48 
L 187.831169 51.84 
" clip-path="url(#p00dcdc55bc)" style="fill: none; stroke: #b0b0b0; stroke-width: 0.8; stroke-linecap: square"/>
     </g>
     <g id="line2d_4">
      <g>
       <use xlink:href="#md7500810bf" x="187.831169" y="384.48" style="stroke: #000000; stroke-width: 0.8"/>
      </g>
     </g>
     <g id="text_2">
      <!-- 2 -->
      <g transform="translate(183.377419 402.117813) scale(0.14 -0.14)">
       <defs>
        <path id="DejaVuSans-32" d="M 1228 531 
L 3431 531 
L 3431 0 
L 469 0 
L 469 531 
Q 828 903 1448 1529 
Q 2069 2156 2228 2338 
Q 2531 2678 2651 2914 
Q 2772 3150 2772 3378 
Q 2772 3750 2511 3984 
Q 2250 4219 1831 4219 
Q 1534 4219 1204 4116 
Q 875 4013 500 3803 
L 500 4441 
Q 881 4594 1212 4672 
Q 1544 4750 1819 4750 
Q 2544 4750 2975 4387 
Q 3406 4025 3406 3419 
Q 3406 3131 3298 2873 
Q 3191 2616 2906 2266 
Q 2828 2175 2409 1742 
Q 1991 1309 1228 531 
z
" transform="scale(0.015625)"/>
       </defs>
       <use xlink:href="#DejaVuSans-32"/>
      </g>
     </g>
    </g>
    <g id="xtick_3">
     <g id="line2d_5">
      <path d="M 260.298701 384.48 
L 260.298701 51.84 
" clip-path="url(#p00dcdc55bc)" style="fill: none; stroke: #b0b0b0; stroke-width: 0.8; stroke-linecap: square"/>
     </g>
     <g id="line2d_6">
      <g>
       <use xlink:href="#md7500810bf" x="260.298701" y="384.48" style="stroke: #000000; stroke-width: 0.8"/>
      </g>
     </g>
     <g id="text_3">
      <!-- 3 -->
      <g transform="translate(255.844951 402.117813) scale(0.14 -0.14)">
       <defs>
        <path id="DejaVuSans-33" d="M 2597 2516 
Q 3050 2419 3304 2112 
Q 3559 1806 3559 1356 
Q 3559 666 3084 287 
Q 2609 -91 1734 -91 
Q 1441 -91 1130 -33 
Q 819 25 488 141 
L 488 750 
Q 750 597 1062 519 
Q 1375 441 1716 441 
Q 2309 441 2620 675 
Q 2931 909 2931 1356 
Q 2931 1769 2642 2001 
Q 2353 2234 1838 2234 
L 1294 2234 
L 1294 2753 
L 1863 2753 
Q 2328 2753 2575 2939 
Q 2822 3125 2822 3475 
Q 2822 3834 2567 4026 
Q 2313 4219 1838 4219 
Q 1578 4219 1281 4162 
Q 984 4106 628 3988 
L 628 4550 
Q 988 4650 1302 4700 
Q 1616 4750 1894 4750 
Q 2613 4750 3031 4423 
Q 3450 4097 3450 3541 
Q 3450 3153 3228 2886 
Q 3006 2619 2597 2516 
z
" transform="scale(0.015625)"/>
       </defs>
       <use xlink:href="#DejaVuSans-33"/>
      </g>
     </g>
    </g>
    <g id="xtick_4">
     <g id="line2d_7">
      <path d="M 332.766234 384.48 
L 332.766234 51.84 
" clip-path="url(#p00dcdc55bc)" style="fill: none; stroke: #b0b0b0; stroke-width: 0.8; stroke-linecap: square"/>
     </g>
     <g id="line2d_8">
      <g>
       <use xlink:href="#md7500810bf" x="332.766234" y="384.48" style="stroke: #000000; stroke-width: 0.8"/>
      </g>
     </g>
     <g id="text_4">
      <!-- 4 -->
      <g transform="translate(328.312484 402.117813) scale(0.14 -0.14)">
       <defs>
        <path id="DejaVuSans-34" d="M 2419 4116 
L 825 1625 
L 2419 1625 
L 2419 4116 
z
M 2253 4666 
L 3047 4666 
L 3047 1625 
L 3713 1625 
L 3713 1100 
L 3047 1100 
L 3047 0 
L 2419 0 
L 2419 1100 
L 313 1100 
L 313 1709 
L 2253 4666 
z
" transform="scale(0.015625)"/>
       </defs>
       <use xlink:href="#DejaVuSans-34"/>
      </g>
     </g>
    </g>
    <g id="xtick_5">
     <g id="line2d_9">
      <path d="M 405.233766 384.48 
L 405.233766 51.84 
" clip-path="url(#p00dcdc55bc)" style="fill: none; stroke: #b0b0b0; stroke-width: 0.8; stroke-linecap: square"/>
     </g>
     <g id="line2d_10">
      <g>
       <use xlink:href="#md7500810bf" x="405.233766" y="384.48" style="stroke: #000000; stroke-width: 0.8"/>
      </g>
     </g>
     <g id="text_5">
      <!-- 5 -->
      <g transform="translate(400.780016 402.117813) scale(0.14 -0.14)">
       <defs>
        <path id="DejaVuSans-35" d="M 691 4666 
L 3169 4666 
L 3169 4134 
L 1269 4134 
L 1269 2991 
Q 1406 3038 1543 3061 
Q 1681 3084 1819 3084 
Q 2600 3084 3056 2656 
Q 3513 2228 3513 1497 
Q 3513 744 3044 326 
Q 2575 -91 1722 -91 
Q 1428 -91 1123 -41 
Q 819 9 494 109 
L 494 744 
Q 775 591 1075 516 
Q 1375 441 1709 441 
Q 2250 441 2565 725 
Q 2881 1009 2881 1497 
Q 2881 1984 2565 2268 
Q 2250 2553 1709 2553 
Q 1456 2553 1204 2497 
Q 953 2441 691 2322 
L 691 4666 
z
" transform="scale(0.015625)"/>
       </defs>
       <use xlink:href="#DejaVuSans-35"/>
      </g>
     </g>
    </g>
    <g id="xtick_6">
     <g id="line2d_11">
      <path d="M 477.701299 384.48 
L 477.701299 51.84 
" clip-path="url(#p00dcdc55bc)" style="fill: none; stroke: #b0b0b0; stroke-width: 0.8; stroke-linecap: square"/>
     </g>
     <g id="line2d_12">
      <g>
       <use xlink:href="#md7500810bf" x="477.701299" y="384.48" style="stroke: #000000; stroke-width: 0.8"/>
      </g>
     </g>
     <g id="text_6">
      <!-- 6 -->
      <g transform="translate(473.247549 402.117813) scale(0.14 -0.14)">
       <defs>
        <path id="DejaVuSans-36" d="M 2113 2584 
Q 1688 2584 1439 2293 
Q 1191 2003 1191 1497 
Q 1191 994 1439 701 
Q 1688 409 2113 409 
Q 2538 409 2786 701 
Q 3034 994 3034 1497 
Q 3034 2003 2786 2293 
Q 2538 2584 2113 2584 
z
M 3366 4563 
L 3366 3988 
Q 3128 4100 2886 4159 
Q 2644 4219 2406 4219 
Q 1781 4219 1451 3797 
Q 1122 3375 1075 2522 
Q 1259 2794 1537 2939 
Q 1816 3084 2150 3084 
Q 2853 3084 3261 2657 
Q 3669 2231 3669 1497 
Q 3669 778 3244 343 
Q 2819 -91 2113 -91 
Q 1303 -91 875 529 
Q 447 1150 447 2328 
Q 447 3434 972 4092 
Q 1497 4750 2381 4750 
Q 2619 4750 2861 4703 
Q 3103 4656 3366 4563 
z
" transform="scale(0.015625)"/>
       </defs>
       <use xlink:href="#DejaVuSans-36"/>
      </g>
     </g>
    </g>
    <g id="xtick_7">
     <g id="line2d_13">
      <path d="M 550.168831 384.48 
L 550.168831 51.84 
" clip-path="url(#p00dcdc55bc)" style="fill: none; stroke: #b0b0b0; stroke-width: 0.8; stroke-linecap: square"/>
     </g>
     <g id="line2d_14">
      <g>
       <use xlink:href="#md7500810bf" x="550.168831" y="384.48" style="stroke: #000000; stroke-width: 0.8"/>
      </g>
     </g>
     <g id="text_7">
      <!-- 7 -->
      <g transform="translate(545.715081 402.117813) scale(0.14 -0.14)">
       <defs>
        <path id="DejaVuSans-37" d="M 525 4666 
L 3525 4666 
L 3525 4397 
L 1831 0 
L 1172 0 
L 2766 4134 
L 525 4134 
L 525 4666 
z
" transform="scale(0.015625)"/>
       </defs>
       <use xlink:href="#DejaVuSans-37"/>
      </g>
     </g>
    </g>
    <g id="xtick_8">
     <g id="line2d_15">
      <path d="M 622.636364 384.48 
L 622.636364 51.84 
" clip-path="url(#p00dcdc55bc)" style="fill: none; stroke: #b0b0b0; stroke-width: 0.8; stroke-linecap: square"/>
     </g>
     <g id="line2d_16">
      <g>
       <use xlink:href="#md7500810bf" x="622.636364" y="384.48" style="stroke: #000000; stroke-width: 0.8"/>
      </g>
     </g>
     <g id="text_8">
      <!-- 8 -->
      <g transform="translate(618.182614 402.117813) scale(0.14 -0.14)">
       <defs>
        <path id="DejaVuSans-38" d="M 2034 2216 
Q 1584 2216 1326 1975 
Q 1069 1734 1069 1313 
Q 1069 891 1326 650 
Q 1584 409 2034 409 
Q 2484 409 2743 651 
Q 3003 894 3003 1313 
Q 3003 1734 2745 1975 
Q 2488 2216 2034 2216 
z
M 1403 2484 
Q 997 2584 770 2862 
Q 544 3141 544 3541 
Q 544 4100 942 4425 
Q 1341 4750 2034 4750 
Q 2731 4750 3128 4425 
Q 3525 4100 3525 3541 
Q 3525 3141 3298 2862 
Q 3072 2584 2669 2484 
Q 3125 2378 3379 2068 
Q 3634 1759 3634 1313 
Q 3634 634 3220 271 
Q 2806 -91 2034 -91 
Q 1263 -91 848 271 
Q 434 634 434 1313 
Q 434 1759 690 2068 
Q 947 2378 1403 2484 
z
M 1172 3481 
Q 1172 3119 1398 2916 
Q 1625 2713 2034 2713 
Q 2441 2713 2670 2916 
Q 2900 3119 2900 3481 
Q 2900 3844 2670 4047 
Q 2441 4250 2034 4250 
Q 1625 4250 1398 4047 
Q 1172 3844 1172 3481 
z
" transform="scale(0.015625)"/>
       </defs>
       <use xlink:href="#DejaVuSans-38"/>
      </g>
     </g>
    </g>
    <g id="text_9">
     <!-- Number of Threads -->
     <g transform="translate(291.93 421.186875) scale(0.16 -0.16)">
      <defs>
       <path id="DejaVuSans-4e" d="M 628 4666 
L 1478 4666 
L 3547 763 
L 3547 4666 
L 4159 4666 
L 4159 0 
L 3309 0 
L 1241 3903 
L 1241 0 
L 628 0 
L 628 4666 
z
" transform="scale(0.015625)"/>
       <path id="DejaVuSans-75" d="M 544 1381 
L 544 3500 
L 1119 3500 
L 1119 1403 
Q 1119 906 1312 657 
Q 1506 409 1894 409 
Q 2359 409 2629 706 
Q 2900 1003 2900 1516 
L 2900 3500 
L 3475 3500 
L 3475 0 
L 2900 0 
L 2900 538 
Q 2691 219 2414 64 
Q 2138 -91 1772 -91 
Q 1169 -91 856 284 
Q 544 659 544 1381 
z
M 1991 3584 
L 1991 3584 
z
" transform="scale(0.015625)"/>
       <path id="DejaVuSans-6d" d="M 3328 2828 
Q 3544 3216 3844 3400 
Q 4144 3584 4550 3584 
Q 5097 3584 5394 3201 
Q 5691 2819 5691 2113 
L 5691 0 
L 5113 0 
L 5113 2094 
Q 5113 2597 4934 2840 
Q 4756 3084 4391 3084 
Q 3944 3084 3684 2787 
Q 3425 2491 3425 1978 
L 3425 0 
L 2847 0 
L 2847 2094 
Q 2847 2600 2669 2842 
Q 2491 3084 2119 3084 
Q 1678 3084 1418 2786 
Q 1159 2488 1159 1978 
L 1159 0 
L 581 0 
L 581 3500 
L 1159 3500 
L 1159 2956 
Q 1356 3278 1631 3431 
Q 1906 3584 2284 3584 
Q 2666 3584 2933 3390 
Q 3200 3197 3328 2828 
z
" transform="scale(0.015625)"/>
       <path id="DejaVuSans-62" d="M 3116 1747 
Q 3116 2381 2855 2742 
Q 2594 3103 2138 3103 
Q 1681 3103 1420 2742 
Q 1159 2381 1159 1747 
Q 1159 1113 1420 752 
Q 1681 391 2138 391 
Q 2594 391 2855 752 
Q 3116 1113 3116 1747 
z
M 1159 2969 
Q 1341 3281 1617 3432 
Q 1894 3584 2278 3584 
Q 2916 3584 3314 3078 
Q 3713 2572 3713 1747 
Q 3713 922 3314 415 
Q 2916 -91 2278 -91 
Q 1894 -91 1617 61 
Q 1341 213 1159 525 
L 1159 0 
L 581 0 
L 581 4863 
L 1159 4863 
L 1159 2969 
z
" transform="scale(0.015625)"/>
       <path id="DejaVuSans-65" d="M 3597 1894 
L 3597 1613 
L 953 1613 
Q 991 1019 1311 708 
Q 1631 397 2203 397 
Q 2534 397 2845 478 
Q 3156 559 3463 722 
L 3463 178 
Q 3153 47 2828 -22 
Q 2503 -91 2169 -91 
Q 1331 -91 842 396 
Q 353 884 353 1716 
Q 353 2575 817 3079 
Q 1281 3584 2069 3584 
Q 2775 3584 3186 3129 
Q 3597 2675 3597 1894 
z
M 3022 2063 
Q 3016 2534 2758 2815 
Q 2500 3097 2075 3097 
Q 1594 3097 1305 2825 
Q 1016 2553 972 2059 
L 3022 2063 
z
" transform="scale(0.015625)"/>
       <path id="DejaVuSans-72" d="M 2631 2963 
Q 2534 3019 2420 3045 
Q 2306 3072 2169 3072 
Q 1681 3072 1420 2755 
Q 1159 2438 1159 1844 
L 1159 0 
L 581 0 
L 581 3500 
L 1159 3500 
L 1159 2956 
Q 1341 3275 1631 3429 
Q 1922 3584 2338 3584 
Q 2397 3584 2469 3576 
Q 2541 3569 2628 3553 
L 2631 2963 
z
" transform="scale(0.015625)"/>
       <path id="DejaVuSans-20" transform="scale(0.015625)"/>
       <path id="DejaVuSans-6f" d="M 1959 3097 
Q 1497 3097 1228 2736 
Q 959 2375 959 1747 
Q 959 1119 1226 758 
Q 1494 397 1959 397 
Q 2419 397 2687 759 
Q 2956 1122 2956 1747 
Q 2956 2369 2687 2733 
Q 2419 3097 1959 3097 
z
M 1959 3584 
Q 2709 3584 3137 3096 
Q 3566 2609 3566 1747 
Q 3566 888 3137 398 
Q 2709 -91 1959 -91 
Q 1206 -91 779 398 
Q 353 888 353 1747 
Q 353 2609 779 3096 
Q 1206 3584 1959 3584 
z
" transform="scale(0.015625)"/>
       <path id="DejaVuSans-66" d="M 2375 4863 
L 2375 4384 
L 1825 4384 
Q 1516 4384 1395 4259 
Q 1275 4134 1275 3809 
L 1275 3500 
L 2222 3500 
L 2222 3053 
L 1275 3053 
L 1275 0 
L 697 0 
L 697 3053 
L 147 3053 
L 147 3500 
L 697 3500 
L 697 3744 
Q 697 4328 969 4595 
Q 1241 4863 1831 4863 
L 2375 4863 
z
" transform="scale(0.015625)"/>
       <path id="DejaVuSans-54" d="M -19 4666 
L 3928 4666 
L 3928 4134 
L 2272 4134 
L 2272 0 
L 1638 0 
L 1638 4134 
L -19 4134 
L -19 4666 
z
" transform="scale(0.015625)"/>
       <path id="DejaVuSans-68" d="M 3513 2113 
L 3513 0 
L 2938 0 
L 2938 2094 
Q 2938 2591 2744 2837 
Q 2550 3084 2163 3084 
Q 1697 3084 1428 2787 
Q 1159 2491 1159 1978 
L 1159 0 
L 581 0 
L 581 4863 
L 1159 4863 
L 1159 2956 
Q 1366 3272 1645 3428 
Q 1925 3584 2291 3584 
Q 2894 3584 3203 3211 
Q 3513 2838 3513 2113 
z
" transform="scale(0.015625)"/>
       <path id="DejaVuSans-61" d="M 2194 1759 
Q 1497 1759 1228 1600 
Q 959 1441 959 1056 
Q 959 750 1161 570 
Q 1363 391 1709 391 
Q 2188 391 2477 730 
Q 2766 1069 2766 1631 
L 2766 1759 
L 2194 1759 
z
M 3341 1997 
L 3341 0 
L 2766 0 
L 2766 531 
Q 2569 213 2275 61 
Q 1981 -91 1556 -91 
Q 1019 -91 701 211 
Q 384 513 384 1019 
Q 384 1609 779 1909 
Q 1175 2209 1959 2209 
L 2766 2209 
L 2766 2266 
Q 2766 2663 2505 2880 
Q 2244 3097 1772 3097 
Q 1472 3097 1187 3025 
Q 903 2953 641 2809 
L 641 3341 
Q 956 3463 1253 3523 
Q 1550 3584 1831 3584 
Q 2591 3584 2966 3190 
Q 3341 2797 3341 1997 
z
" transform="scale(0.015625)"/>
       <path id="DejaVuSans-64" d="M 2906 2969 
L 2906 4863 
L 3481 4863 
L 3481 0 
L 2906 0 
L 2906 525 
Q 2725 213 2448 61 
Q 2172 -91 1784 -91 
Q 1150 -91 751 415 
Q 353 922 353 1747 
Q 353 2572 751 3078 
Q 1150 3584 1784 3584 
Q 2172 3584 2448 3432 
Q 2725 3281 2906 2969 
z
M 947 1747 
Q 947 1113 1208 752 
Q 1469 391 1925 391 
Q 2381 391 2643 752 
Q 2906 1113 2906 1747 
Q 2906 2381 2643 2742 
Q 2381 3103 1925 3103 
Q 1469 3103 1208 2742 
Q 947 2381 947 1747 
z
" transform="scale(0.015625)"/>
       <path id="DejaVuSans-73" d="M 2834 3397 
L 2834 2853 
Q 2591 2978 2328 3040 
Q 2066 3103 1784 3103 
Q 1356 3103 1142 2972 
Q 928 2841 928 2578 
Q 928 2378 1081 2264 
Q 1234 2150 1697 2047 
L 1894 2003 
Q 2506 1872 2764 1633 
Q 3022 1394 3022 966 
Q 3022 478 2636 193 
Q 2250 -91 1575 -91 
Q 1294 -91 989 -36 
Q 684 19 347 128 
L 347 722 
Q 666 556 975 473 
Q 1284 391 1588 391 
Q 1994 391 2212 530 
Q 2431 669 2431 922 
Q 2431 1156 2273 1281 
Q 2116 1406 1581 1522 
L 1381 1569 
Q 847 1681 609 1914 
Q 372 2147 372 2553 
Q 372 3047 722 3315 
Q 1072 3584 1716 3584 
Q 2034 3584 2315 3537 
Q 2597 3491 2834 3397 
z
" transform="scale(0.015625)"/>
      </defs>
      <use xlink:href="#DejaVuSans-4e"/>
      <use xlink:href="#DejaVuSans-75" transform="translate(74.804688 0)"/>
      <use xlink:href="#DejaVuSans-6d" transform="translate(138.183594 0)"/>
      <use xlink:href="#DejaVuSans-62" transform="translate(235.595703 0)"/>
      <use xlink:href="#DejaVuSans-65" transform="translate(299.072266 0)"/>
      <use xlink:href="#DejaVuSans-72" transform="translate(360.595703 0)"/>
      <use xlink:href="#DejaVuSans-20" transform="translate(401.708984 0)"/>
      <use xlink:href="#DejaVuSans-6f" transform="translate(433.496094 0)"/>
      <use xlink:href="#DejaVuSans-66" transform="translate(494.677734 0)"/>
      <use xlink:href="#DejaVuSans-20" transform="translate(529.882812 0)"/>
      <use xlink:href="#DejaVuSans-54" transform="translate(561.669922 0)"/>
      <use xlink:href="#DejaVuSans-68" transform="translate(622.753906 0)"/>
      <use xlink:href="#DejaVuSans-72" transform="translate(686.132812 0)"/>
      <use xlink:href="#DejaVuSans-65" transform="translate(724.996094 0)"/>
      <use xlink:href="#DejaVuSans-61" transform="translate(786.519531 0)"/>
      <use xlink:href="#DejaVuSans-64" transform="translate(847.798828 0)"/>
      <use xlink:href="#DejaVuSans-73" transform="translate(911.275391 0)"/>
     </g>
    </g>
   </g>
   <g id="matplotlib.axis_2">
    <g id="ytick_1">
     <g id="line2d_17">
      <path d="M 90 342.698786 
L 648 342.698786 
" clip-path="url(#p00dcdc55bc)" style="fill: none; stroke: #b0b0b0; stroke-width: 0.8; stroke-linecap: square"/>
     </g>
     <g id="line2d_18">
      <defs>
       <path id="m7ad2c2a67f" d="M 0 0 
L -3.5 0 
" style="stroke: #000000; stroke-width: 0.8"/>
      </defs>
      <g>
       <use xlink:href="#m7ad2c2a67f" x="90" y="342.698786" style="stroke: #000000; stroke-width: 0.8"/>
      </g>
     </g>
     <g id="text_10">
      <!-- 100 -->
      <g transform="translate(56.2775 348.017692) scale(0.14 -0.14)">
       <defs>
        <path id="DejaVuSans-30" d="M 2034 4250 
Q 1547 4250 1301 3770 
Q 1056 3291 1056 2328 
Q 1056 1369 1301 889 
Q 1547 409 2034 409 
Q 2525 409 2770 889 
Q 3016 1369 3016 2328 
Q 3016 3291 2770 3770 
Q 2525 4250 2034 4250 
z
M 2034 4750 
Q 2819 4750 3233 4129 
Q 3647 3509 3647 2328 
Q 3647 1150 3233 529 
Q 2819 -91 2034 -91 
Q 1250 -91 836 529 
Q 422 1150 422 2328 
Q 422 3509 836 4129 
Q 1250 4750 2034 4750 
z
" transform="scale(0.015625)"/>
       </defs>
       <use xlink:href="#DejaVuSans-31"/>
       <use xlink:href="#DejaVuSans-30" transform="translate(63.623047 0)"/>
       <use xlink:href="#DejaVuSans-30" transform="translate(127.246094 0)"/>
      </g>
     </g>
    </g>
    <g id="ytick_2">
     <g id="line2d_19">
      <path d="M 90 279.109559 
L 648 279.109559 
" clip-path="url(#p00dcdc55bc)" style="fill: none; stroke: #b0b0b0; stroke-width: 0.8; stroke-linecap: square"/>
     </g>
     <g id="line2d_20">
      <g>
       <use xlink:href="#m7ad2c2a67f" x="90" y="279.109559" style="stroke: #000000; stroke-width: 0.8"/>
      </g>
     </g>
     <g id="text_11">
      <!-- 200 -->
      <g transform="translate(56.2775 284.428465) scale(0.14 -0.14)">
       <use xlink:href="#DejaVuSans-32"/>
       <use xlink:href="#DejaVuSans-30" transform="translate(63.623047 0)"/>
       <use xlink:href="#DejaVuSans-30" transform="translate(127.246094 0)"/>
      </g>
     </g>
    </g>
    <g id="ytick_3">
     <g id="line2d_21">
      <path d="M 90 215.520332 
L 648 215.520332 
" clip-path="url(#p00dcdc55bc)" style="fill: none; stroke: #b0b0b0; stroke-width: 0.8; stroke-linecap: square"/>
     </g>
     <g id="line2d_22">
      <g>
       <use xlink:href="#m7ad2c2a67f" x="90" y="215.520332" style="stroke: #000000; stroke-width: 0.8"/>
      </g>
     </g>
     <g id="text_12">
      <!-- 300 -->
      <g transform="translate(56.2775 220.839238) scale(0.14 -0.14)">
       <use xlink:href="#DejaVuSans-33"/>
       <use xlink:href="#DejaVuSans-30" transform="translate(63.623047 0)"/>
       <use xlink:href="#DejaVuSans-30" transform="translate(127.246094 0)"/>
      </g>
     </g>
    </g>
    <g id="ytick_4">
     <g id="line2d_23">
      <path d="M 90 151.931105 
L 648 151.931105 
" clip-path="url(#p00dcdc55bc)" style="fill: none; stroke: #b0b0b0; stroke-width: 0.8; stroke-linecap: square"/>
     </g>
     <g id="line2d_24">
      <g>
       <use xlink:href="#m7ad2c2a67f" x="90" y="151.931105" style="stroke: #000000; stroke-width: 0.8"/>
      </g>
     </g>
     <g id="text_13">
      <!-- 400 -->
      <g transform="translate(56.2775 157.250011) scale(0.14 -0.14)">
       <use xlink:href="#DejaVuSans-34"/>
       <use xlink:href="#DejaVuSans-30" transform="translate(63.623047 0)"/>
       <use xlink:href="#DejaVuSans-30" transform="translate(127.246094 0)"/>
      </g>
     </g>
    </g>
    <g id="ytick_5">
     <g id="line2d_25">
      <path d="M 90 88.341878 
L 648 88.341878 
" clip-path="url(#p00dcdc55bc)" style="fill: none; stroke: #b0b0b0; stroke-width: 0.8; stroke-linecap: square"/>
     </g>
     <g id="line2d_26">
      <g>
       <use xlink:href="#m7ad2c2a67f" x="90" y="88.341878" style="stroke: #000000; stroke-width: 0.8"/>
      </g>
     </g>
     <g id="text_14">
      <!-- 500 -->
      <g transform="translate(56.2775 93.660784) scale(0.14 -0.14)">
       <use xlink:href="#DejaVuSans-35"/>
       <use xlink:href="#DejaVuSans-30" transform="translate(63.623047 0)"/>
       <use xlink:href="#DejaVuSans-30" transform="translate(127.246094 0)"/>
      </g>
     </g>
    </g>
    <g id="text_15">
     <!-- Time (s) -->
     <g transform="translate(48.95 250.68625) rotate(-90) scale(0.16 -0.16)">
      <defs>
       <path id="DejaVuSans-69" d="M 603 3500 
L 1178 3500 
L 1178 0 
L 603 0 
L 603 3500 
z
M 603 4863 
L 1178 4863 
L 1178 4134 
L 603 4134 
L 603 4863 
z
" transform="scale(0.015625)"/>
       <path id="DejaVuSans-28" d="M 1984 4856 
Q 1566 4138 1362 3434 
Q 1159 2731 1159 2009 
Q 1159 1288 1364 580 
Q 1569 -128 1984 -844 
L 1484 -844 
Q 1016 -109 783 600 
Q 550 1309 550 2009 
Q 550 2706 781 3412 
Q 1013 4119 1484 4856 
L 1984 4856 
z
" transform="scale(0.015625)"/>
       <path id="DejaVuSans-29" d="M 513 4856 
L 1013 4856 
Q 1481 4119 1714 3412 
Q 1947 2706 1947 2009 
Q 1947 1309 1714 600 
Q 1481 -109 1013 -844 
L 513 -844 
Q 928 -128 1133 580 
Q 1338 1288 1338 2009 
Q 1338 2731 1133 3434 
Q 928 4138 513 4856 
z
" transform="scale(0.015625)"/>
      </defs>
      <use xlink:href="#DejaVuSans-54"/>
      <use xlink:href="#DejaVuSans-69" transform="translate(57.958984 0)"/>
      <use xlink:href="#DejaVuSans-6d" transform="translate(85.742188 0)"/>
      <use xlink:href="#DejaVuSans-65" transform="translate(183.154297 0)"/>
      <use xlink:href="#DejaVuSans-20" transform="translate(244.677734 0)"/>
      <use xlink:href="#DejaVuSans-28" transform="translate(276.464844 0)"/>
      <use xlink:href="#DejaVuSans-73" transform="translate(315.478516 0)"/>
      <use xlink:href="#DejaVuSans-29" transform="translate(367.578125 0)"/>
     </g>
    </g>
   </g>
   <g id="line2d_27">
    <path d="M 115.363636 110.86391 
L 187.831169 146.428729 
L 260.298701 245.147824 
L 332.766234 288.490877 
L 405.233766 295.064096 
L 477.701299 284.528633 
L 550.168831 300.981709 
L 622.636364 305.584298 
" clip-path="url(#p00dcdc55bc)" style="fill: none; stroke: #0000ff; stroke-width: 1.5; stroke-linecap: square"/>
    <defs>
     <path id="mfbdef652ac" d="M 0 3 
C 0.795609 3 1.55874 2.683901 2.12132 2.12132 
C 2.683901 1.55874 3 0.795609 3 0 
C 3 -0.795609 2.683901 -1.55874 2.12132 -2.12132 
C 1.55874 -2.683901 0.795609 -3 0 -3 
C -0.795609 -3 -1.55874 -2.683901 -2.12132 -2.12132 
C -2.683901 -1.55874 -3 -0.795609 -3 0 
C -3 0.795609 -2.683901 1.55874 -2.12132 2.12132 
C -1.55874 2.683901 -0.795609 3 0 3 
z
" style="stroke: #0000ff"/>
    </defs>
    <g clip-path="url(#p00dcdc55bc)">
     <use xlink:href="#mfbdef652ac" x="115.363636" y="110.86391" style="fill: #0000ff; stroke: #0000ff"/>
     <use xlink:href="#mfbdef652ac" x="187.831169" y="146.428729" style="fill: #0000ff; stroke: #0000ff"/>
     <use xlink:href="#mfbdef652ac" x="260.298701" y="245.147824" style="fill: #0000ff; stroke: #0000ff"/>
     <use xlink:href="#mfbdef652ac" x="332.766234" y="288.490877" style="fill: #0000ff; stroke: #0000ff"/>
     <use xlink:href="#mfbdef652ac" x="405.233766" y="295.064096" style="fill: #0000ff; stroke: #0000ff"/>
     <use xlink:href="#mfbdef652ac" x="477.701299" y="284.528633" style="fill: #0000ff; stroke: #0000ff"/>
     <use xlink:href="#mfbdef652ac" x="550.168831" y="300.981709" style="fill: #0000ff; stroke: #0000ff"/>
     <use xlink:href="#mfbdef652ac" x="622.636364" y="305.584298" style="fill: #0000ff; stroke: #0000ff"/>
    </g>
   </g>
   <g id="line2d_28">
    <path d="M 115.363636 87.446541 
L 187.831169 129.395718 
L 260.298701 220.451676 
L 332.766234 217.958343 
L 405.233766 227.950118 
L 477.701299 247.952745 
L 550.168831 240.962381 
L 622.636364 256.176104 
" clip-path="url(#p00dcdc55bc)" style="fill: none; stroke: #ffa500; stroke-width: 1.5; stroke-linecap: square"/>
    <defs>
     <path id="m399b3a4ccb" d="M 0 3 
C 0.795609 3 1.55874 2.683901 2.12132 2.12132 
C 2.683901 1.55874 3 0.795609 3 0 
C 3 -0.795609 2.683901 -1.55874 2.12132 -2.12132 
C 1.55874 -2.683901 0.795609 -3 0 -3 
C -0.795609 -3 -1.55874 -2.683901 -2.12132 -2.12132 
C -2.683901 -1.55874 -3 -0.795609 -3 0 
C -3 0.795609 -2.683901 1.55874 -2.12132 2.12132 
C -1.55874 2.683901 -0.795609 3 0 3 
z
" style="stroke: #ffa500"/>
    </defs>
    <g clip-path="url(#p00dcdc55bc)">
     <use xlink:href="#m399b3a4ccb" x="115.363636" y="87.446541" style="fill: #ffa500; stroke: #ffa500"/>
     <use xlink:href="#m399b3a4ccb" x="187.831169" y="129.395718" style="fill: #ffa500; stroke: #ffa500"/>
     <use xlink:href="#m399b3a4ccb" x="260.298701" y="220.451676" style="fill: #ffa500; stroke: #ffa500"/>
     <use xlink:href="#m399b3a4ccb" x="332.766234" y="217.958343" style="fill: #ffa500; stroke: #ffa500"/>
     <use xlink:href="#m399b3a4ccb" x="405.233766" y="227.950118" style="fill: #ffa500; stroke: #ffa500"/>
     <use xlink:href="#m399b3a4ccb" x="477.701299" y="247.952745" style="fill: #ffa500; stroke: #ffa500"/>
     <use xlink:href="#m399b3a4ccb" x="550.168831" y="240.962381" style="fill: #ffa500; stroke: #ffa500"/>
     <use xlink:href="#m399b3a4ccb" x="622.636364" y="256.176104" style="fill: #ffa500; stroke: #ffa500"/>
    </g>
   </g>
   <g id="line2d_29">
    <path d="M 115.363636 110.86391 
L 187.831169 258.575961 
L 260.298701 307.813312 
L 332.766234 332.431987 
L 405.233766 347.203192 
L 477.701299 357.050662 
L 550.168831 364.08457 
L 622.636364 369.36 
" clip-path="url(#p00dcdc55bc)" style="fill: none; stroke-dasharray: 1.5,2.475; stroke-dashoffset: 0; stroke: #0000ff; stroke-width: 1.5"/>
   </g>
   <g id="line2d_30">
    <path d="M 115.363636 87.446541 
L 187.831169 246.867277 
L 260.298701 300.007522 
L 332.766234 326.577645 
L 405.233766 342.519719 
L 477.701299 353.147768 
L 550.168831 360.739231 
L 622.636364 366.432829 
" clip-path="url(#p00dcdc55bc)" style="fill: none; stroke-dasharray: 1.5,2.475; stroke-dashoffset: 0; stroke: #ffa500; stroke-width: 1.5"/>
   </g>
   <g id="LineCollection_1">
    <path d="M 115.363636 154.087415 
L 115.363636 67.640405 
" clip-path="url(#p00dcdc55bc)" style="fill: none; stroke: #0000ff; stroke-width: 1.5"/>
    <path d="M 187.831169 156.127994 
L 187.831169 136.729464 
" clip-path="url(#p00dcdc55bc)" style="fill: none; stroke: #0000ff; stroke-width: 1.5"/>
    <path d="M 260.298701 254.307853 
L 260.298701 235.987796 
" clip-path="url(#p00dcdc55bc)" style="fill: none; stroke: #0000ff; stroke-width: 1.5"/>
    <path d="M 332.766234 318.634079 
L 332.766234 258.347676 
" clip-path="url(#p00dcdc55bc)" style="fill: none; stroke: #0000ff; stroke-width: 1.5"/>
    <path d="M 405.233766 325.178046 
L 405.233766 264.950146 
" clip-path="url(#p00dcdc55bc)" style="fill: none; stroke: #0000ff; stroke-width: 1.5"/>
    <path d="M 477.701299 310.414217 
L 477.701299 258.643048 
" clip-path="url(#p00dcdc55bc)" style="fill: none; stroke: #0000ff; stroke-width: 1.5"/>
    <path d="M 550.168831 318.882395 
L 550.168831 283.081024 
" clip-path="url(#p00dcdc55bc)" style="fill: none; stroke: #0000ff; stroke-width: 1.5"/>
    <path d="M 622.636364 307.147003 
L 622.636364 304.021592 
" clip-path="url(#p00dcdc55bc)" style="fill: none; stroke: #0000ff; stroke-width: 1.5"/>
   </g>
   <g id="line2d_31">
    <defs>
     <path id="m680be16f5b" d="M 5 0 
L -5 -0 
" style="stroke: #0000ff"/>
    </defs>
    <g clip-path="url(#p00dcdc55bc)">
     <use xlink:href="#m680be16f5b" x="115.363636" y="154.087415" style="fill: #0000ff; stroke: #0000ff"/>
     <use xlink:href="#m680be16f5b" x="187.831169" y="156.127994" style="fill: #0000ff; stroke: #0000ff"/>
     <use xlink:href="#m680be16f5b" x="260.298701" y="254.307853" style="fill: #0000ff; stroke: #0000ff"/>
     <use xlink:href="#m680be16f5b" x="332.766234" y="318.634079" style="fill: #0000ff; stroke: #0000ff"/>
     <use xlink:href="#m680be16f5b" x="405.233766" y="325.178046" style="fill: #0000ff; stroke: #0000ff"/>
     <use xlink:href="#m680be16f5b" x="477.701299" y="310.414217" style="fill: #0000ff; stroke: #0000ff"/>
     <use xlink:href="#m680be16f5b" x="550.168831" y="318.882395" style="fill: #0000ff; stroke: #0000ff"/>
     <use xlink:href="#m680be16f5b" x="622.636364" y="307.147003" style="fill: #0000ff; stroke: #0000ff"/>
    </g>
   </g>
   <g id="line2d_32">
    <g clip-path="url(#p00dcdc55bc)">
     <use xlink:href="#m680be16f5b" x="115.363636" y="67.640405" style="fill: #0000ff; stroke: #0000ff"/>
     <use xlink:href="#m680be16f5b" x="187.831169" y="136.729464" style="fill: #0000ff; stroke: #0000ff"/>
     <use xlink:href="#m680be16f5b" x="260.298701" y="235.987796" style="fill: #0000ff; stroke: #0000ff"/>
     <use xlink:href="#m680be16f5b" x="332.766234" y="258.347676" style="fill: #0000ff; stroke: #0000ff"/>
     <use xlink:href="#m680be16f5b" x="405.233766" y="264.950146" style="fill: #0000ff; stroke: #0000ff"/>
     <use xlink:href="#m680be16f5b" x="477.701299" y="258.643048" style="fill: #0000ff; stroke: #0000ff"/>
     <use xlink:href="#m680be16f5b" x="550.168831" y="283.081024" style="fill: #0000ff; stroke: #0000ff"/>
     <use xlink:href="#m680be16f5b" x="622.636364" y="304.021592" style="fill: #0000ff; stroke: #0000ff"/>
    </g>
   </g>
   <g id="LineCollection_2">
    <path d="M 115.363636 107.933083 
L 115.363636 66.96 
" clip-path="url(#p00dcdc55bc)" style="fill: none; stroke: #ffa500; stroke-width: 1.5"/>
    <path d="M 187.831169 153.540866 
L 187.831169 105.250571 
" clip-path="url(#p00dcdc55bc)" style="fill: none; stroke: #ffa500; stroke-width: 1.5"/>
    <path d="M 260.298701 227.673187 
L 260.298701 213.230166 
" clip-path="url(#p00dcdc55bc)" style="fill: none; stroke: #ffa500; stroke-width: 1.5"/>
    <path d="M 332.766234 222.977122 
L 332.766234 212.939563 
" clip-path="url(#p00dcdc55bc)" style="fill: none; stroke: #ffa500; stroke-width: 1.5"/>
    <path d="M 405.233766 236.483156 
L 405.233766 219.41708 
" clip-path="url(#p00dcdc55bc)" style="fill: none; stroke: #ffa500; stroke-width: 1.5"/>
    <path d="M 477.701299 274.677072 
L 477.701299 221.228419 
" clip-path="url(#p00dcdc55bc)" style="fill: none; stroke: #ffa500; stroke-width: 1.5"/>
    <path d="M 550.168831 266.089665 
L 550.168831 215.835098 
" clip-path="url(#p00dcdc55bc)" style="fill: none; stroke: #ffa500; stroke-width: 1.5"/>
    <path d="M 622.636364 269.005866 
L 622.636364 243.346342 
" clip-path="url(#p00dcdc55bc)" style="fill: none; stroke: #ffa500; stroke-width: 1.5"/>
   </g>
   <g id="line2d_33">
    <defs>
     <path id="m56811919ca" d="M 5 0 
L -5 -0 
" style="stroke: #ffa500"/>
    </defs>
    <g clip-path="url(#p00dcdc55bc)">
     <use xlink:href="#m56811919ca" x="115.363636" y="107.933083" style="fill: #ffa500; stroke: #ffa500"/>
     <use xlink:href="#m56811919ca" x="187.831169" y="153.540866" style="fill: #ffa500; stroke: #ffa500"/>
     <use xlink:href="#m56811919ca" x="260.298701" y="227.673187" style="fill: #ffa500; stroke: #ffa500"/>
     <use xlink:href="#m56811919ca" x="332.766234" y="222.977122" style="fill: #ffa500; stroke: #ffa500"/>
     <use xlink:href="#m56811919ca" x="405.233766" y="236.483156" style="fill: #ffa500; stroke: #ffa500"/>
     <use xlink:href="#m56811919ca" x="477.701299" y="274.677072" style="fill: #ffa500; stroke: #ffa500"/>
     <use xlink:href="#m56811919ca" x="550.168831" y="266.089665" style="fill: #ffa500; stroke: #ffa500"/>
     <use xlink:href="#m56811919ca" x="622.636364" y="269.005866" style="fill: #ffa500; stroke: #ffa500"/>
    </g>
   </g>
   <g id="line2d_34">
    <g clip-path="url(#p00dcdc55bc)">
     <use xlink:href="#m56811919ca" x="115.363636" y="66.96" style="fill: #ffa500; stroke: #ffa500"/>
     <use xlink:href="#m56811919ca" x="187.831169" y="105.250571" style="fill: #ffa500; stroke: #ffa500"/>
     <use xlink:href="#m56811919ca" x="260.298701" y="213.230166" style="fill: #ffa500; stroke: #ffa500"/>
     <use xlink:href="#m56811919ca" x="332.766234" y="212.939563" style="fill: #ffa500; stroke: #ffa500"/>
     <use xlink:href="#m56811919ca" x="405.233766" y="219.41708" style="fill: #ffa500; stroke: #ffa500"/>
     <use xlink:href="#m56811919ca" x="477.701299" y="221.228419" style="fill: #ffa500; stroke: #ffa500"/>
     <use xlink:href="#m56811919ca" x="550.168831" y="215.835098" style="fill: #ffa500; stroke: #ffa500"/>
     <use xlink:href="#m56811919ca" x="622.636364" y="243.346342" style="fill: #ffa500; stroke: #ffa500"/>
    </g>
   </g>
   <g id="line2d_35">
    <g clip-path="url(#p00dcdc55bc)">
     <use xlink:href="#mfbdef652ac" x="115.363636" y="110.86391" style="fill: #0000ff; stroke: #0000ff"/>
     <use xlink:href="#mfbdef652ac" x="187.831169" y="146.428729" style="fill: #0000ff; stroke: #0000ff"/>
     <use xlink:href="#mfbdef652ac" x="260.298701" y="245.147824" style="fill: #0000ff; stroke: #0000ff"/>
     <use xlink:href="#mfbdef652ac" x="332.766234" y="288.490877" style="fill: #0000ff; stroke: #0000ff"/>
     <use xlink:href="#mfbdef652ac" x="405.233766" y="295.064096" style="fill: #0000ff; stroke: #0000ff"/>
     <use xlink:href="#mfbdef652ac" x="477.701299" y="284.528633" style="fill: #0000ff; stroke: #0000ff"/>
     <use xlink:href="#mfbdef652ac" x="550.168831" y="300.981709" style="fill: #0000ff; stroke: #0000ff"/>
     <use xlink:href="#mfbdef652ac" x="622.636364" y="305.584298" style="fill: #0000ff; stroke: #0000ff"/>
    </g>
   </g>
   <g id="line2d_36">
    <g clip-path="url(#p00dcdc55bc)">
     <use xlink:href="#m399b3a4ccb" x="115.363636" y="87.446541" style="fill: #ffa500; stroke: #ffa500"/>
     <use xlink:href="#m399b3a4ccb" x="187.831169" y="129.395718" style="fill: #ffa500; stroke: #ffa500"/>
     <use xlink:href="#m399b3a4ccb" x="260.298701" y="220.451676" style="fill: #ffa500; stroke: #ffa500"/>
     <use xlink:href="#m399b3a4ccb" x="332.766234" y="217.958343" style="fill: #ffa500; stroke: #ffa500"/>
     <use xlink:href="#m399b3a4ccb" x="405.233766" y="227.950118" style="fill: #ffa500; stroke: #ffa500"/>
     <use xlink:href="#m399b3a4ccb" x="477.701299" y="247.952745" style="fill: #ffa500; stroke: #ffa500"/>
     <use xlink:href="#m399b3a4ccb" x="550.168831" y="240.962381" style="fill: #ffa500; stroke: #ffa500"/>
     <use xlink:href="#m399b3a4ccb" x="622.636364" y="256.176104" style="fill: #ffa500; stroke: #ffa500"/>
    </g>
   </g>
   <g id="patch_3">
    <path d="M 90 384.48 
L 90 51.84 
" style="fill: none; stroke: #000000; stroke-width: 0.8; stroke-linejoin: miter; stroke-linecap: square"/>
   </g>
   <g id="patch_4">
    <path d="M 648 384.48 
L 648 51.84 
" style="fill: none; stroke: #000000; stroke-width: 0.8; stroke-linejoin: miter; stroke-linecap: square"/>
   </g>
   <g id="patch_5">
    <path d="M 90 384.48 
L 648 384.48 
" style="fill: none; stroke: #000000; stroke-width: 0.8; stroke-linejoin: miter; stroke-linecap: square"/>
   </g>
   <g id="patch_6">
    <path d="M 90 51.84 
L 648 51.84 
" style="fill: none; stroke: #000000; stroke-width: 0.8; stroke-linejoin: miter; stroke-linecap: square"/>
   </g>
   <g id="legend_1">
    <g id="patch_7">
     <path d="M 428.834375 120.5525 
L 643 120.5525 
Q 645 120.5525 645 118.5525 
L 645 60.84 
Q 645 58.84 643 58.84 
L 428.834375 58.84 
Q 426.834375 58.84 426.834375 60.84 
L 426.834375 118.5525 
Q 426.834375 120.5525 428.834375 120.5525 
z
" style="fill: #4d4d4d; opacity: 0.5; stroke: #4d4d4d; stroke-linejoin: miter"/>
    </g>
    <g id="patch_8">
     <path d="M 426.834375 118.5525 
L 641 118.5525 
Q 643 118.5525 643 116.5525 
L 643 58.84 
Q 643 56.84 641 56.84 
L 426.834375 56.84 
Q 424.834375 56.84 424.834375 58.84 
L 424.834375 116.5525 
Q 424.834375 118.5525 426.834375 118.5525 
z
" style="fill: #ffffff; stroke: #cccccc; stroke-linejoin: miter"/>
    </g>
    <g id="line2d_37">
     <path d="M 428.834375 64.938438 
L 438.834375 64.938438 
L 448.834375 64.938438 
" style="fill: none; stroke: #0000ff; stroke-width: 1.5; stroke-linecap: square"/>
     <g>
      <use xlink:href="#mfbdef652ac" x="438.834375" y="64.938438" style="fill: #0000ff; stroke: #0000ff"/>
     </g>
    </g>
    <g id="text_16">
     <!-- With Early Stopping -->
     <g transform="translate(456.834375 68.438438) scale(0.1 -0.1)">
      <defs>
       <path id="DejaVuSans-57" d="M 213 4666 
L 850 4666 
L 1831 722 
L 2809 4666 
L 3519 4666 
L 4500 722 
L 5478 4666 
L 6119 4666 
L 4947 0 
L 4153 0 
L 3169 4050 
L 2175 0 
L 1381 0 
L 213 4666 
z
" transform="scale(0.015625)"/>
       <path id="DejaVuSans-74" d="M 1172 4494 
L 1172 3500 
L 2356 3500 
L 2356 3053 
L 1172 3053 
L 1172 1153 
Q 1172 725 1289 603 
Q 1406 481 1766 481 
L 2356 481 
L 2356 0 
L 1766 0 
Q 1100 0 847 248 
Q 594 497 594 1153 
L 594 3053 
L 172 3053 
L 172 3500 
L 594 3500 
L 594 4494 
L 1172 4494 
z
" transform="scale(0.015625)"/>
       <path id="DejaVuSans-45" d="M 628 4666 
L 3578 4666 
L 3578 4134 
L 1259 4134 
L 1259 2753 
L 3481 2753 
L 3481 2222 
L 1259 2222 
L 1259 531 
L 3634 531 
L 3634 0 
L 628 0 
L 628 4666 
z
" transform="scale(0.015625)"/>
       <path id="DejaVuSans-6c" d="M 603 4863 
L 1178 4863 
L 1178 0 
L 603 0 
L 603 4863 
z
" transform="scale(0.015625)"/>
       <path id="DejaVuSans-79" d="M 2059 -325 
Q 1816 -950 1584 -1140 
Q 1353 -1331 966 -1331 
L 506 -1331 
L 506 -850 
L 844 -850 
Q 1081 -850 1212 -737 
Q 1344 -625 1503 -206 
L 1606 56 
L 191 3500 
L 800 3500 
L 1894 763 
L 2988 3500 
L 3597 3500 
L 2059 -325 
z
" transform="scale(0.015625)"/>
       <path id="DejaVuSans-53" d="M 3425 4513 
L 3425 3897 
Q 3066 4069 2747 4153 
Q 2428 4238 2131 4238 
Q 1616 4238 1336 4038 
Q 1056 3838 1056 3469 
Q 1056 3159 1242 3001 
Q 1428 2844 1947 2747 
L 2328 2669 
Q 3034 2534 3370 2195 
Q 3706 1856 3706 1288 
Q 3706 609 3251 259 
Q 2797 -91 1919 -91 
Q 1588 -91 1214 -16 
Q 841 59 441 206 
L 441 856 
Q 825 641 1194 531 
Q 1563 422 1919 422 
Q 2459 422 2753 634 
Q 3047 847 3047 1241 
Q 3047 1584 2836 1778 
Q 2625 1972 2144 2069 
L 1759 2144 
Q 1053 2284 737 2584 
Q 422 2884 422 3419 
Q 422 4038 858 4394 
Q 1294 4750 2059 4750 
Q 2388 4750 2728 4690 
Q 3069 4631 3425 4513 
z
" transform="scale(0.015625)"/>
       <path id="DejaVuSans-70" d="M 1159 525 
L 1159 -1331 
L 581 -1331 
L 581 3500 
L 1159 3500 
L 1159 2969 
Q 1341 3281 1617 3432 
Q 1894 3584 2278 3584 
Q 2916 3584 3314 3078 
Q 3713 2572 3713 1747 
Q 3713 922 3314 415 
Q 2916 -91 2278 -91 
Q 1894 -91 1617 61 
Q 1341 213 1159 525 
z
M 3116 1747 
Q 3116 2381 2855 2742 
Q 2594 3103 2138 3103 
Q 1681 3103 1420 2742 
Q 1159 2381 1159 1747 
Q 1159 1113 1420 752 
Q 1681 391 2138 391 
Q 2594 391 2855 752 
Q 3116 1113 3116 1747 
z
" transform="scale(0.015625)"/>
       <path id="DejaVuSans-6e" d="M 3513 2113 
L 3513 0 
L 2938 0 
L 2938 2094 
Q 2938 2591 2744 2837 
Q 2550 3084 2163 3084 
Q 1697 3084 1428 2787 
Q 1159 2491 1159 1978 
L 1159 0 
L 581 0 
L 581 3500 
L 1159 3500 
L 1159 2956 
Q 1366 3272 1645 3428 
Q 1925 3584 2291 3584 
Q 2894 3584 3203 3211 
Q 3513 2838 3513 2113 
z
" transform="scale(0.015625)"/>
       <path id="DejaVuSans-67" d="M 2906 1791 
Q 2906 2416 2648 2759 
Q 2391 3103 1925 3103 
Q 1463 3103 1205 2759 
Q 947 2416 947 1791 
Q 947 1169 1205 825 
Q 1463 481 1925 481 
Q 2391 481 2648 825 
Q 2906 1169 2906 1791 
z
M 3481 434 
Q 3481 -459 3084 -895 
Q 2688 -1331 1869 -1331 
Q 1566 -1331 1297 -1286 
Q 1028 -1241 775 -1147 
L 775 -588 
Q 1028 -725 1275 -790 
Q 1522 -856 1778 -856 
Q 2344 -856 2625 -561 
Q 2906 -266 2906 331 
L 2906 616 
Q 2728 306 2450 153 
Q 2172 0 1784 0 
Q 1141 0 747 490 
Q 353 981 353 1791 
Q 353 2603 747 3093 
Q 1141 3584 1784 3584 
Q 2172 3584 2450 3431 
Q 2728 3278 2906 2969 
L 2906 3500 
L 3481 3500 
L 3481 434 
z
" transform="scale(0.015625)"/>
      </defs>
      <use xlink:href="#DejaVuSans-57"/>
      <use xlink:href="#DejaVuSans-69" transform="translate(96.626953 0)"/>
      <use xlink:href="#DejaVuSans-74" transform="translate(124.410156 0)"/>
      <use xlink:href="#DejaVuSans-68" transform="translate(163.619141 0)"/>
      <use xlink:href="#DejaVuSans-20" transform="translate(226.998047 0)"/>
      <use xlink:href="#DejaVuSans-45" transform="translate(258.785156 0)"/>
      <use xlink:href="#DejaVuSans-61" transform="translate(321.96875 0)"/>
      <use xlink:href="#DejaVuSans-72" transform="translate(383.248047 0)"/>
      <use xlink:href="#DejaVuSans-6c" transform="translate(424.361328 0)"/>
      <use xlink:href="#DejaVuSans-79" transform="translate(452.144531 0)"/>
      <use xlink:href="#DejaVuSans-20" transform="translate(511.324219 0)"/>
      <use xlink:href="#DejaVuSans-53" transform="translate(543.111328 0)"/>
      <use xlink:href="#DejaVuSans-74" transform="translate(606.587891 0)"/>
      <use xlink:href="#DejaVuSans-6f" transform="translate(645.796875 0)"/>
      <use xlink:href="#DejaVuSans-70" transform="translate(706.978516 0)"/>
      <use xlink:href="#DejaVuSans-70" transform="translate(770.455078 0)"/>
      <use xlink:href="#DejaVuSans-69" transform="translate(833.931641 0)"/>
      <use xlink:href="#DejaVuSans-6e" transform="translate(861.714844 0)"/>
      <use xlink:href="#DejaVuSans-67" transform="translate(925.09375 0)"/>
     </g>
    </g>
    <g id="line2d_38">
     <path d="M 428.834375 79.616563 
L 438.834375 79.616563 
L 448.834375 79.616563 
" style="fill: none; stroke: #ffa500; stroke-width: 1.5; stroke-linecap: square"/>
     <g>
      <use xlink:href="#m399b3a4ccb" x="438.834375" y="79.616563" style="fill: #ffa500; stroke: #ffa500"/>
     </g>
    </g>
    <g id="text_17">
     <!-- Without Early Stopping -->
     <g transform="translate(456.834375 83.116563) scale(0.1 -0.1)">
      <use xlink:href="#DejaVuSans-57"/>
      <use xlink:href="#DejaVuSans-69" transform="translate(96.626953 0)"/>
      <use xlink:href="#DejaVuSans-74" transform="translate(124.410156 0)"/>
      <use xlink:href="#DejaVuSans-68" transform="translate(163.619141 0)"/>
      <use xlink:href="#DejaVuSans-6f" transform="translate(226.998047 0)"/>
      <use xlink:href="#DejaVuSans-75" transform="translate(288.179688 0)"/>
      <use xlink:href="#DejaVuSans-74" transform="translate(351.558594 0)"/>
      <use xlink:href="#DejaVuSans-20" transform="translate(390.767578 0)"/>
      <use xlink:href="#DejaVuSans-45" transform="translate(422.554688 0)"/>
      <use xlink:href="#DejaVuSans-61" transform="translate(485.738281 0)"/>
      <use xlink:href="#DejaVuSans-72" transform="translate(547.017578 0)"/>
      <use xlink:href="#DejaVuSans-6c" transform="translate(588.130859 0)"/>
      <use xlink:href="#DejaVuSans-79" transform="translate(615.914062 0)"/>
      <use xlink:href="#DejaVuSans-20" transform="translate(675.09375 0)"/>
      <use xlink:href="#DejaVuSans-53" transform="translate(706.880859 0)"/>
      <use xlink:href="#DejaVuSans-74" transform="translate(770.357422 0)"/>
      <use xlink:href="#DejaVuSans-6f" transform="translate(809.566406 0)"/>
      <use xlink:href="#DejaVuSans-70" transform="translate(870.748047 0)"/>
      <use xlink:href="#DejaVuSans-70" transform="translate(934.224609 0)"/>
      <use xlink:href="#DejaVuSans-69" transform="translate(997.701172 0)"/>
      <use xlink:href="#DejaVuSans-6e" transform="translate(1025.484375 0)"/>
      <use xlink:href="#DejaVuSans-67" transform="translate(1088.863281 0)"/>
     </g>
    </g>
    <g id="line2d_39">
     <path d="M 428.834375 94.294688 
L 438.834375 94.294688 
L 448.834375 94.294688 
" style="fill: none; stroke-dasharray: 1.5,2.475; stroke-dashoffset: 0; stroke: #0000ff; stroke-width: 1.5"/>
    </g>
    <g id="text_18">
     <!-- Ideal Scaling With Early Stopping -->
     <g transform="translate(456.834375 97.794688) scale(0.1 -0.1)">
      <defs>
       <path id="DejaVuSans-49" d="M 628 4666 
L 1259 4666 
L 1259 0 
L 628 0 
L 628 4666 
z
" transform="scale(0.015625)"/>
       <path id="DejaVuSans-63" d="M 3122 3366 
L 3122 2828 
Q 2878 2963 2633 3030 
Q 2388 3097 2138 3097 
Q 1578 3097 1268 2742 
Q 959 2388 959 1747 
Q 959 1106 1268 751 
Q 1578 397 2138 397 
Q 2388 397 2633 464 
Q 2878 531 3122 666 
L 3122 134 
Q 2881 22 2623 -34 
Q 2366 -91 2075 -91 
Q 1284 -91 818 406 
Q 353 903 353 1747 
Q 353 2603 823 3093 
Q 1294 3584 2113 3584 
Q 2378 3584 2631 3529 
Q 2884 3475 3122 3366 
z
" transform="scale(0.015625)"/>
      </defs>
      <use xlink:href="#DejaVuSans-49"/>
      <use xlink:href="#DejaVuSans-64" transform="translate(29.492188 0)"/>
      <use xlink:href="#DejaVuSans-65" transform="translate(92.96875 0)"/>
      <use xlink:href="#DejaVuSans-61" transform="translate(154.492188 0)"/>
      <use xlink:href="#DejaVuSans-6c" transform="translate(215.771484 0)"/>
      <use xlink:href="#DejaVuSans-20" transform="translate(243.554688 0)"/>
      <use xlink:href="#DejaVuSans-53" transform="translate(275.341797 0)"/>
      <use xlink:href="#DejaVuSans-63" transform="translate(338.818359 0)"/>
      <use xlink:href="#DejaVuSans-61" transform="translate(393.798828 0)"/>
      <use xlink:href="#DejaVuSans-6c" transform="translate(455.078125 0)"/>
      <use xlink:href="#DejaVuSans-69" transform="translate(482.861328 0)"/>
      <use xlink:href="#DejaVuSans-6e" transform="translate(510.644531 0)"/>
      <use xlink:href="#DejaVuSans-67" transform="translate(574.023438 0)"/>
      <use xlink:href="#DejaVuSans-20" transform="translate(637.5 0)"/>
      <use xlink:href="#DejaVuSans-57" transform="translate(669.287109 0)"/>
      <use xlink:href="#DejaVuSans-69" transform="translate(765.914062 0)"/>
      <use xlink:href="#DejaVuSans-74" transform="translate(793.697266 0)"/>
      <use xlink:href="#DejaVuSans-68" transform="translate(832.90625 0)"/>
      <use xlink:href="#DejaVuSans-20" transform="translate(896.285156 0)"/>
      <use xlink:href="#DejaVuSans-45" transform="translate(928.072266 0)"/>
      <use xlink:href="#DejaVuSans-61" transform="translate(991.255859 0)"/>
      <use xlink:href="#DejaVuSans-72" transform="translate(1052.535156 0)"/>
      <use xlink:href="#DejaVuSans-6c" transform="translate(1093.648438 0)"/>
      <use xlink:href="#DejaVuSans-79" transform="translate(1121.431641 0)"/>
      <use xlink:href="#DejaVuSans-20" transform="translate(1180.611328 0)"/>
      <use xlink:href="#DejaVuSans-53" transform="translate(1212.398438 0)"/>
      <use xlink:href="#DejaVuSans-74" transform="translate(1275.875 0)"/>
      <use xlink:href="#DejaVuSans-6f" transform="translate(1315.083984 0)"/>
      <use xlink:href="#DejaVuSans-70" transform="translate(1376.265625 0)"/>
      <use xlink:href="#DejaVuSans-70" transform="translate(1439.742188 0)"/>
      <use xlink:href="#DejaVuSans-69" transform="translate(1503.21875 0)"/>
      <use xlink:href="#DejaVuSans-6e" transform="translate(1531.001953 0)"/>
      <use xlink:href="#DejaVuSans-67" transform="translate(1594.380859 0)"/>
     </g>
    </g>
    <g id="line2d_40">
     <path d="M 428.834375 108.972813 
L 438.834375 108.972813 
L 448.834375 108.972813 
" style="fill: none; stroke-dasharray: 1.5,2.475; stroke-dashoffset: 0; stroke: #ffa500; stroke-width: 1.5"/>
    </g>
    <g id="text_19">
     <!-- Ideal Scaling Without Early Stopping -->
     <g transform="translate(456.834375 112.472813) scale(0.1 -0.1)">
      <use xlink:href="#DejaVuSans-49"/>
      <use xlink:href="#DejaVuSans-64" transform="translate(29.492188 0)"/>
      <use xlink:href="#DejaVuSans-65" transform="translate(92.96875 0)"/>
      <use xlink:href="#DejaVuSans-61" transform="translate(154.492188 0)"/>
      <use xlink:href="#DejaVuSans-6c" transform="translate(215.771484 0)"/>
      <use xlink:href="#DejaVuSans-20" transform="translate(243.554688 0)"/>
      <use xlink:href="#DejaVuSans-53" transform="translate(275.341797 0)"/>
      <use xlink:href="#DejaVuSans-63" transform="translate(338.818359 0)"/>
      <use xlink:href="#DejaVuSans-61" transform="translate(393.798828 0)"/>
      <use xlink:href="#DejaVuSans-6c" transform="translate(455.078125 0)"/>
      <use xlink:href="#DejaVuSans-69" transform="translate(482.861328 0)"/>
      <use xlink:href="#DejaVuSans-6e" transform="translate(510.644531 0)"/>
      <use xlink:href="#DejaVuSans-67" transform="translate(574.023438 0)"/>
      <use xlink:href="#DejaVuSans-20" transform="translate(637.5 0)"/>
      <use xlink:href="#DejaVuSans-57" transform="translate(669.287109 0)"/>
      <use xlink:href="#DejaVuSans-69" transform="translate(765.914062 0)"/>
      <use xlink:href="#DejaVuSans-74" transform="translate(793.697266 0)"/>
      <use xlink:href="#DejaVuSans-68" transform="translate(832.90625 0)"/>
      <use xlink:href="#DejaVuSans-6f" transform="translate(896.285156 0)"/>
      <use xlink:href="#DejaVuSans-75" transform="translate(957.466797 0)"/>
      <use xlink:href="#DejaVuSans-74" transform="translate(1020.845703 0)"/>
      <use xlink:href="#DejaVuSans-20" transform="translate(1060.054688 0)"/>
      <use xlink:href="#DejaVuSans-45" transform="translate(1091.841797 0)"/>
      <use xlink:href="#DejaVuSans-61" transform="translate(1155.025391 0)"/>
      <use xlink:href="#DejaVuSans-72" transform="translate(1216.304688 0)"/>
      <use xlink:href="#DejaVuSans-6c" transform="translate(1257.417969 0)"/>
      <use xlink:href="#DejaVuSans-79" transform="translate(1285.201172 0)"/>
      <use xlink:href="#DejaVuSans-20" transform="translate(1344.380859 0)"/>
      <use xlink:href="#DejaVuSans-53" transform="translate(1376.167969 0)"/>
      <use xlink:href="#DejaVuSans-74" transform="translate(1439.644531 0)"/>
      <use xlink:href="#DejaVuSans-6f" transform="translate(1478.853516 0)"/>
      <use xlink:href="#DejaVuSans-70" transform="translate(1540.035156 0)"/>
      <use xlink:href="#DejaVuSans-70" transform="translate(1603.511719 0)"/>
      <use xlink:href="#DejaVuSans-69" transform="translate(1666.988281 0)"/>
      <use xlink:href="#DejaVuSans-6e" transform="translate(1694.771484 0)"/>
      <use xlink:href="#DejaVuSans-67" transform="translate(1758.150391 0)"/>
     </g>
    </g>
   </g>
  </g>
 </g>
 <defs>
  <clipPath id="p00dcdc55bc">
   <rect x="90" y="51.84" width="558" height="332.64"/>
  </clipPath>
 </defs>
</svg>
