<?xml version="1.0" encoding="utf-8" standalone="no"?>
<!DOCTYPE svg PUBLIC "-//W3C//DTD SVG 1.1//EN"
  "http://www.w3.org/Graphics/SVG/1.1/DTD/svg11.dtd">
<svg xmlns:xlink="http://www.w3.org/1999/xlink" width="460.8pt" height="345.6pt" viewBox="0 0 460.8 345.6" xmlns="http://www.w3.org/2000/svg" version="1.1">
 <metadata>
  <rdf:RDF xmlns:dc="http://purl.org/dc/elements/1.1/" xmlns:cc="http://creativecommons.org/ns#" xmlns:rdf="http://www.w3.org/1999/02/22-rdf-syntax-ns#">
   <cc:Work>
    <dc:type rdf:resource="http://purl.org/dc/dcmitype/StillImage"/>
    <dc:date>1980-01-01T00:00:00+00:00</dc:date>
    <dc:format>image/svg+xml</dc:format>
    <dc:creator>
     <cc:Agent>
      <dc:title>Matplotlib v3.8.4, https://matplotlib.org/</dc:title>
     </cc:Agent>
    </dc:creator>
   </cc:Work>
  </rdf:RDF>
 </metadata>
 <defs>
  <style type="text/css">*{stroke-linejoin: round; stroke-linecap: butt}</style>
 </defs>
 <g id="figure_1">
  <g id="patch_1">
   <path d="M 0 345.6 
L 460.8 345.6 
L 460.8 0 
L 0 0 
z
" style="fill: #ffffff"/>
  </g>
  <g id="axes_1">
   <g id="patch_2">
    <path d="M 57.6 307.584 
L 414.72 307.584 
L 414.72 41.472 
L 57.6 41.472 
z
" style="fill: #ffffff"/>
   </g>
   <g id="matplotlib.axis_1">
    <g id="xtick_1">
     <g id="line2d_1">
      <defs>
       <path id="m7cc2c0006e" d="M 0 0 
L 0 3.5 
" style="stroke: #000000; stroke-width: 0.8"/>
      </defs>
      <g>
       <use xlink:href="#m7cc2c0006e" x="73.832727" y="307.584" style="stroke: #000000; stroke-width: 0.8"/>
      </g>
     </g>
     <g id="text_1">
      <!-- 0 -->
      <g transform="translate(70.651477 322.182437) scale(0.1 -0.1)">
       <defs>
        <path id="DejaVuSans-30" d="M 2034 4250 
Q 1547 4250 1301 3770 
Q 1056 3291 1056 2328 
Q 1056 1369 1301 889 
Q 1547 409 2034 409 
Q 2525 409 2770 889 
Q 3016 1369 3016 2328 
Q 3016 3291 2770 3770 
Q 2525 4250 2034 4250 
z
M 2034 4750 
Q 2819 4750 3233 4129 
Q 3647 3509 3647 2328 
Q 3647 1150 3233 529 
Q 2819 -91 2034 -91 
Q 1250 -91 836 529 
Q 422 1150 422 2328 
Q 422 3509 836 4129 
Q 1250 4750 2034 4750 
z
" transform="scale(0.015625)"/>
       </defs>
       <use xlink:href="#DejaVuSans-30"/>
      </g>
     </g>
    </g>
    <g id="xtick_2">
     <g id="line2d_2">
      <g>
       <use xlink:href="#m7cc2c0006e" x="114.414545" y="307.584" style="stroke: #000000; stroke-width: 0.8"/>
      </g>
     </g>
     <g id="text_2">
      <!-- 50 -->
      <g transform="translate(108.052045 322.182437) scale(0.1 -0.1)">
       <defs>
        <path id="DejaVuSans-35" d="M 691 4666 
L 3169 4666 
L 3169 4134 
L 1269 4134 
L 1269 2991 
Q 1406 3038 1543 3061 
Q 1681 3084 1819 3084 
Q 2600 3084 3056 2656 
Q 3513 2228 3513 1497 
Q 3513 744 3044 326 
Q 2575 -91 1722 -91 
Q 1428 -91 1123 -41 
Q 819 9 494 109 
L 494 744 
Q 775 591 1075 516 
Q 1375 441 1709 441 
Q 2250 441 2565 725 
Q 2881 1009 2881 1497 
Q 2881 1984 2565 2268 
Q 2250 2553 1709 2553 
Q 1456 2553 1204 2497 
Q 953 2441 691 2322 
L 691 4666 
z
" transform="scale(0.015625)"/>
       </defs>
       <use xlink:href="#DejaVuSans-35"/>
       <use xlink:href="#DejaVuSans-30" x="63.623047"/>
      </g>
     </g>
    </g>
    <g id="xtick_3">
     <g id="line2d_3">
      <g>
       <use xlink:href="#m7cc2c0006e" x="154.996364" y="307.584" style="stroke: #000000; stroke-width: 0.8"/>
      </g>
     </g>
     <g id="text_3">
      <!-- 100 -->
      <g transform="translate(145.452614 322.182437) scale(0.1 -0.1)">
       <defs>
        <path id="DejaVuSans-31" d="M 794 531 
L 1825 531 
L 1825 4091 
L 703 3866 
L 703 4441 
L 1819 4666 
L 2450 4666 
L 2450 531 
L 3481 531 
L 3481 0 
L 794 0 
L 794 531 
z
" transform="scale(0.015625)"/>
       </defs>
       <use xlink:href="#DejaVuSans-31"/>
       <use xlink:href="#DejaVuSans-30" x="63.623047"/>
       <use xlink:href="#DejaVuSans-30" x="127.246094"/>
      </g>
     </g>
    </g>
    <g id="xtick_4">
     <g id="line2d_4">
      <g>
       <use xlink:href="#m7cc2c0006e" x="195.578182" y="307.584" style="stroke: #000000; stroke-width: 0.8"/>
      </g>
     </g>
     <g id="text_4">
      <!-- 150 -->
      <g transform="translate(186.034432 322.182437) scale(0.1 -0.1)">
       <use xlink:href="#DejaVuSans-31"/>
       <use xlink:href="#DejaVuSans-35" x="63.623047"/>
       <use xlink:href="#DejaVuSans-30" x="127.246094"/>
      </g>
     </g>
    </g>
    <g id="xtick_5">
     <g id="line2d_5">
      <g>
       <use xlink:href="#m7cc2c0006e" x="236.16" y="307.584" style="stroke: #000000; stroke-width: 0.8"/>
      </g>
     </g>
     <g id="text_5">
      <!-- 200 -->
      <g transform="translate(226.61625 322.182437) scale(0.1 -0.1)">
       <defs>
        <path id="DejaVuSans-32" d="M 1228 531 
L 3431 531 
L 3431 0 
L 469 0 
L 469 531 
Q 828 903 1448 1529 
Q 2069 2156 2228 2338 
Q 2531 2678 2651 2914 
Q 2772 3150 2772 3378 
Q 2772 3750 2511 3984 
Q 2250 4219 1831 4219 
Q 1534 4219 1204 4116 
Q 875 4013 500 3803 
L 500 4441 
Q 881 4594 1212 4672 
Q 1544 4750 1819 4750 
Q 2544 4750 2975 4387 
Q 3406 4025 3406 3419 
Q 3406 3131 3298 2873 
Q 3191 2616 2906 2266 
Q 2828 2175 2409 1742 
Q 1991 1309 1228 531 
z
" transform="scale(0.015625)"/>
       </defs>
       <use xlink:href="#DejaVuSans-32"/>
       <use xlink:href="#DejaVuSans-30" x="63.623047"/>
       <use xlink:href="#DejaVuSans-30" x="127.246094"/>
      </g>
     </g>
    </g>
    <g id="xtick_6">
     <g id="line2d_6">
      <g>
       <use xlink:href="#m7cc2c0006e" x="276.741818" y="307.584" style="stroke: #000000; stroke-width: 0.8"/>
      </g>
     </g>
     <g id="text_6">
      <!-- 250 -->
      <g transform="translate(267.198068 322.182437) scale(0.1 -0.1)">
       <use xlink:href="#DejaVuSans-32"/>
       <use xlink:href="#DejaVuSans-35" x="63.623047"/>
       <use xlink:href="#DejaVuSans-30" x="127.246094"/>
      </g>
     </g>
    </g>
    <g id="xtick_7">
     <g id="line2d_7">
      <g>
       <use xlink:href="#m7cc2c0006e" x="317.323636" y="307.584" style="stroke: #000000; stroke-width: 0.8"/>
      </g>
     </g>
     <g id="text_7">
      <!-- 300 -->
      <g transform="translate(307.779886 322.182437) scale(0.1 -0.1)">
       <defs>
        <path id="DejaVuSans-33" d="M 2597 2516 
Q 3050 2419 3304 2112 
Q 3559 1806 3559 1356 
Q 3559 666 3084 287 
Q 2609 -91 1734 -91 
Q 1441 -91 1130 -33 
Q 819 25 488 141 
L 488 750 
Q 750 597 1062 519 
Q 1375 441 1716 441 
Q 2309 441 2620 675 
Q 2931 909 2931 1356 
Q 2931 1769 2642 2001 
Q 2353 2234 1838 2234 
L 1294 2234 
L 1294 2753 
L 1863 2753 
Q 2328 2753 2575 2939 
Q 2822 3125 2822 3475 
Q 2822 3834 2567 4026 
Q 2313 4219 1838 4219 
Q 1578 4219 1281 4162 
Q 984 4106 628 3988 
L 628 4550 
Q 988 4650 1302 4700 
Q 1616 4750 1894 4750 
Q 2613 4750 3031 4423 
Q 3450 4097 3450 3541 
Q 3450 3153 3228 2886 
Q 3006 2619 2597 2516 
z
" transform="scale(0.015625)"/>
       </defs>
       <use xlink:href="#DejaVuSans-33"/>
       <use xlink:href="#DejaVuSans-30" x="63.623047"/>
       <use xlink:href="#DejaVuSans-30" x="127.246094"/>
      </g>
     </g>
    </g>
    <g id="xtick_8">
     <g id="line2d_8">
      <g>
       <use xlink:href="#m7cc2c0006e" x="357.905455" y="307.584" style="stroke: #000000; stroke-width: 0.8"/>
      </g>
     </g>
     <g id="text_8">
      <!-- 350 -->
      <g transform="translate(348.361705 322.182437) scale(0.1 -0.1)">
       <use xlink:href="#DejaVuSans-33"/>
       <use xlink:href="#DejaVuSans-35" x="63.623047"/>
       <use xlink:href="#DejaVuSans-30" x="127.246094"/>
      </g>
     </g>
    </g>
    <g id="xtick_9">
     <g id="line2d_9">
      <g>
       <use xlink:href="#m7cc2c0006e" x="398.487273" y="307.584" style="stroke: #000000; stroke-width: 0.8"/>
      </g>
     </g>
     <g id="text_9">
      <!-- 400 -->
      <g transform="translate(388.943523 322.182437) scale(0.1 -0.1)">
       <defs>
        <path id="DejaVuSans-34" d="M 2419 4116 
L 825 1625 
L 2419 1625 
L 2419 4116 
z
M 2253 4666 
L 3047 4666 
L 3047 1625 
L 3713 1625 
L 3713 1100 
L 3047 1100 
L 3047 0 
L 2419 0 
L 2419 1100 
L 313 1100 
L 313 1709 
L 2253 4666 
z
" transform="scale(0.015625)"/>
       </defs>
       <use xlink:href="#DejaVuSans-34"/>
       <use xlink:href="#DejaVuSans-30" x="63.623047"/>
       <use xlink:href="#DejaVuSans-30" x="127.246094"/>
      </g>
     </g>
    </g>
    <g id="text_10">
     <!-- Number of Epochs -->
     <g transform="translate(190.160781 335.860562) scale(0.1 -0.1)">
      <defs>
       <path id="DejaVuSans-4e" d="M 628 4666 
L 1478 4666 
L 3547 763 
L 3547 4666 
L 4159 4666 
L 4159 0 
L 3309 0 
L 1241 3903 
L 1241 0 
L 628 0 
L 628 4666 
z
" transform="scale(0.015625)"/>
       <path id="DejaVuSans-75" d="M 544 1381 
L 544 3500 
L 1119 3500 
L 1119 1403 
Q 1119 906 1312 657 
Q 1506 409 1894 409 
Q 2359 409 2629 706 
Q 2900 1003 2900 1516 
L 2900 3500 
L 3475 3500 
L 3475 0 
L 2900 0 
L 2900 538 
Q 2691 219 2414 64 
Q 2138 -91 1772 -91 
Q 1169 -91 856 284 
Q 544 659 544 1381 
z
M 1991 3584 
L 1991 3584 
z
" transform="scale(0.015625)"/>
       <path id="DejaVuSans-6d" d="M 3328 2828 
Q 3544 3216 3844 3400 
Q 4144 3584 4550 3584 
Q 5097 3584 5394 3201 
Q 5691 2819 5691 2113 
L 5691 0 
L 5113 0 
L 5113 2094 
Q 5113 2597 4934 2840 
Q 4756 3084 4391 3084 
Q 3944 3084 3684 2787 
Q 3425 2491 3425 1978 
L 3425 0 
L 2847 0 
L 2847 2094 
Q 2847 2600 2669 2842 
Q 2491 3084 2119 3084 
Q 1678 3084 1418 2786 
Q 1159 2488 1159 1978 
L 1159 0 
L 581 0 
L 581 3500 
L 1159 3500 
L 1159 2956 
Q 1356 3278 1631 3431 
Q 1906 3584 2284 3584 
Q 2666 3584 2933 3390 
Q 3200 3197 3328 2828 
z
" transform="scale(0.015625)"/>
       <path id="DejaVuSans-62" d="M 3116 1747 
Q 3116 2381 2855 2742 
Q 2594 3103 2138 3103 
Q 1681 3103 1420 2742 
Q 1159 2381 1159 1747 
Q 1159 1113 1420 752 
Q 1681 391 2138 391 
Q 2594 391 2855 752 
Q 3116 1113 3116 1747 
z
M 1159 2969 
Q 1341 3281 1617 3432 
Q 1894 3584 2278 3584 
Q 2916 3584 3314 3078 
Q 3713 2572 3713 1747 
Q 3713 922 3314 415 
Q 2916 -91 2278 -91 
Q 1894 -91 1617 61 
Q 1341 213 1159 525 
L 1159 0 
L 581 0 
L 581 4863 
L 1159 4863 
L 1159 2969 
z
" transform="scale(0.015625)"/>
       <path id="DejaVuSans-65" d="M 3597 1894 
L 3597 1613 
L 953 1613 
Q 991 1019 1311 708 
Q 1631 397 2203 397 
Q 2534 397 2845 478 
Q 3156 559 3463 722 
L 3463 178 
Q 3153 47 2828 -22 
Q 2503 -91 2169 -91 
Q 1331 -91 842 396 
Q 353 884 353 1716 
Q 353 2575 817 3079 
Q 1281 3584 2069 3584 
Q 2775 3584 3186 3129 
Q 3597 2675 3597 1894 
z
M 3022 2063 
Q 3016 2534 2758 2815 
Q 2500 3097 2075 3097 
Q 1594 3097 1305 2825 
Q 1016 2553 972 2059 
L 3022 2063 
z
" transform="scale(0.015625)"/>
       <path id="DejaVuSans-72" d="M 2631 2963 
Q 2534 3019 2420 3045 
Q 2306 3072 2169 3072 
Q 1681 3072 1420 2755 
Q 1159 2438 1159 1844 
L 1159 0 
L 581 0 
L 581 3500 
L 1159 3500 
L 1159 2956 
Q 1341 3275 1631 3429 
Q 1922 3584 2338 3584 
Q 2397 3584 2469 3576 
Q 2541 3569 2628 3553 
L 2631 2963 
z
" transform="scale(0.015625)"/>
       <path id="DejaVuSans-20" transform="scale(0.015625)"/>
       <path id="DejaVuSans-6f" d="M 1959 3097 
Q 1497 3097 1228 2736 
Q 959 2375 959 1747 
Q 959 1119 1226 758 
Q 1494 397 1959 397 
Q 2419 397 2687 759 
Q 2956 1122 2956 1747 
Q 2956 2369 2687 2733 
Q 2419 3097 1959 3097 
z
M 1959 3584 
Q 2709 3584 3137 3096 
Q 3566 2609 3566 1747 
Q 3566 888 3137 398 
Q 2709 -91 1959 -91 
Q 1206 -91 779 398 
Q 353 888 353 1747 
Q 353 2609 779 3096 
Q 1206 3584 1959 3584 
z
" transform="scale(0.015625)"/>
       <path id="DejaVuSans-66" d="M 2375 4863 
L 2375 4384 
L 1825 4384 
Q 1516 4384 1395 4259 
Q 1275 4134 1275 3809 
L 1275 3500 
L 2222 3500 
L 2222 3053 
L 1275 3053 
L 1275 0 
L 697 0 
L 697 3053 
L 147 3053 
L 147 3500 
L 697 3500 
L 697 3744 
Q 697 4328 969 4595 
Q 1241 4863 1831 4863 
L 2375 4863 
z
" transform="scale(0.015625)"/>
       <path id="DejaVuSans-45" d="M 628 4666 
L 3578 4666 
L 3578 4134 
L 1259 4134 
L 1259 2753 
L 3481 2753 
L 3481 2222 
L 1259 2222 
L 1259 531 
L 3634 531 
L 3634 0 
L 628 0 
L 628 4666 
z
" transform="scale(0.015625)"/>
       <path id="DejaVuSans-70" d="M 1159 525 
L 1159 -1331 
L 581 -1331 
L 581 3500 
L 1159 3500 
L 1159 2969 
Q 1341 3281 1617 3432 
Q 1894 3584 2278 3584 
Q 2916 3584 3314 3078 
Q 3713 2572 3713 1747 
Q 3713 922 3314 415 
Q 2916 -91 2278 -91 
Q 1894 -91 1617 61 
Q 1341 213 1159 525 
z
M 3116 1747 
Q 3116 2381 2855 2742 
Q 2594 3103 2138 3103 
Q 1681 3103 1420 2742 
Q 1159 2381 1159 1747 
Q 1159 1113 1420 752 
Q 1681 391 2138 391 
Q 2594 391 2855 752 
Q 3116 1113 3116 1747 
z
" transform="scale(0.015625)"/>
       <path id="DejaVuSans-63" d="M 3122 3366 
L 3122 2828 
Q 2878 2963 2633 3030 
Q 2388 3097 2138 3097 
Q 1578 3097 1268 2742 
Q 959 2388 959 1747 
Q 959 1106 1268 751 
Q 1578 397 2138 397 
Q 2388 397 2633 464 
Q 2878 531 3122 666 
L 3122 134 
Q 2881 22 2623 -34 
Q 2366 -91 2075 -91 
Q 1284 -91 818 406 
Q 353 903 353 1747 
Q 353 2603 823 3093 
Q 1294 3584 2113 3584 
Q 2378 3584 2631 3529 
Q 2884 3475 3122 3366 
z
" transform="scale(0.015625)"/>
       <path id="DejaVuSans-68" d="M 3513 2113 
L 3513 0 
L 2938 0 
L 2938 2094 
Q 2938 2591 2744 2837 
Q 2550 3084 2163 3084 
Q 1697 3084 1428 2787 
Q 1159 2491 1159 1978 
L 1159 0 
L 581 0 
L 581 4863 
L 1159 4863 
L 1159 2956 
Q 1366 3272 1645 3428 
Q 1925 3584 2291 3584 
Q 2894 3584 3203 3211 
Q 3513 2838 3513 2113 
z
" transform="scale(0.015625)"/>
       <path id="DejaVuSans-73" d="M 2834 3397 
L 2834 2853 
Q 2591 2978 2328 3040 
Q 2066 3103 1784 3103 
Q 1356 3103 1142 2972 
Q 928 2841 928 2578 
Q 928 2378 1081 2264 
Q 1234 2150 1697 2047 
L 1894 2003 
Q 2506 1872 2764 1633 
Q 3022 1394 3022 966 
Q 3022 478 2636 193 
Q 2250 -91 1575 -91 
Q 1294 -91 989 -36 
Q 684 19 347 128 
L 347 722 
Q 666 556 975 473 
Q 1284 391 1588 391 
Q 1994 391 2212 530 
Q 2431 669 2431 922 
Q 2431 1156 2273 1281 
Q 2116 1406 1581 1522 
L 1381 1569 
Q 847 1681 609 1914 
Q 372 2147 372 2553 
Q 372 3047 722 3315 
Q 1072 3584 1716 3584 
Q 2034 3584 2315 3537 
Q 2597 3491 2834 3397 
z
" transform="scale(0.015625)"/>
      </defs>
      <use xlink:href="#DejaVuSans-4e"/>
      <use xlink:href="#DejaVuSans-75" x="74.804688"/>
      <use xlink:href="#DejaVuSans-6d" x="138.183594"/>
      <use xlink:href="#DejaVuSans-62" x="235.595703"/>
      <use xlink:href="#DejaVuSans-65" x="299.072266"/>
      <use xlink:href="#DejaVuSans-72" x="360.595703"/>
      <use xlink:href="#DejaVuSans-20" x="401.708984"/>
      <use xlink:href="#DejaVuSans-6f" x="433.496094"/>
      <use xlink:href="#DejaVuSans-66" x="494.677734"/>
      <use xlink:href="#DejaVuSans-20" x="529.882812"/>
      <use xlink:href="#DejaVuSans-45" x="561.669922"/>
      <use xlink:href="#DejaVuSans-70" x="624.853516"/>
      <use xlink:href="#DejaVuSans-6f" x="688.330078"/>
      <use xlink:href="#DejaVuSans-63" x="749.511719"/>
      <use xlink:href="#DejaVuSans-68" x="804.492188"/>
      <use xlink:href="#DejaVuSans-73" x="867.871094"/>
     </g>
    </g>
   </g>
   <g id="matplotlib.axis_2">
    <g id="ytick_1">
     <g id="line2d_10">
      <defs>
       <path id="m9c00e24bf7" d="M 0 0 
L -3.5 0 
" style="stroke: #000000; stroke-width: 0.8"/>
      </defs>
      <g>
       <use xlink:href="#m9c00e24bf7" x="57.6" y="279.556138" style="stroke: #000000; stroke-width: 0.8"/>
      </g>
     </g>
     <g id="text_11">
      <!-- $\mathdefault{10^{-15}}$ -->
      <g transform="translate(22.7 283.355356) scale(0.1 -0.1)">
       <defs>
        <path id="DejaVuSans-2212" d="M 678 2272 
L 4684 2272 
L 4684 1741 
L 678 1741 
L 678 2272 
z
" transform="scale(0.015625)"/>
       </defs>
       <use xlink:href="#DejaVuSans-31" transform="translate(0 0.684375)"/>
       <use xlink:href="#DejaVuSans-30" transform="translate(63.623047 0.684375)"/>
       <use xlink:href="#DejaVuSans-2212" transform="translate(128.203125 38.965625) scale(0.7)"/>
       <use xlink:href="#DejaVuSans-31" transform="translate(186.855469 38.965625) scale(0.7)"/>
       <use xlink:href="#DejaVuSans-35" transform="translate(231.391602 38.965625) scale(0.7)"/>
      </g>
     </g>
    </g>
    <g id="ytick_2">
     <g id="line2d_11">
      <g>
       <use xlink:href="#m9c00e24bf7" x="57.6" y="245.431345" style="stroke: #000000; stroke-width: 0.8"/>
      </g>
     </g>
     <g id="text_12">
      <!-- $\mathdefault{10^{-13}}$ -->
      <g transform="translate(22.7 249.230563) scale(0.1 -0.1)">
       <use xlink:href="#DejaVuSans-31" transform="translate(0 0.765625)"/>
       <use xlink:href="#DejaVuSans-30" transform="translate(63.623047 0.765625)"/>
       <use xlink:href="#DejaVuSans-2212" transform="translate(128.203125 39.046875) scale(0.7)"/>
       <use xlink:href="#DejaVuSans-31" transform="translate(186.855469 39.046875) scale(0.7)"/>
       <use xlink:href="#DejaVuSans-33" transform="translate(231.391602 39.046875) scale(0.7)"/>
      </g>
     </g>
    </g>
    <g id="ytick_3">
     <g id="line2d_12">
      <g>
       <use xlink:href="#m9c00e24bf7" x="57.6" y="211.306552" style="stroke: #000000; stroke-width: 0.8"/>
      </g>
     </g>
     <g id="text_13">
      <!-- $\mathdefault{10^{-11}}$ -->
      <g transform="translate(22.7 215.10577) scale(0.1 -0.1)">
       <use xlink:href="#DejaVuSans-31" transform="translate(0 0.684375)"/>
       <use xlink:href="#DejaVuSans-30" transform="translate(63.623047 0.684375)"/>
       <use xlink:href="#DejaVuSans-2212" transform="translate(128.203125 38.965625) scale(0.7)"/>
       <use xlink:href="#DejaVuSans-31" transform="translate(186.855469 38.965625) scale(0.7)"/>
       <use xlink:href="#DejaVuSans-31" transform="translate(231.391602 38.965625) scale(0.7)"/>
      </g>
     </g>
    </g>
    <g id="ytick_4">
     <g id="line2d_13">
      <g>
       <use xlink:href="#m9c00e24bf7" x="57.6" y="177.181759" style="stroke: #000000; stroke-width: 0.8"/>
      </g>
     </g>
     <g id="text_14">
      <!-- $\mathdefault{10^{-9}}$ -->
      <g transform="translate(27.1 180.980978) scale(0.1 -0.1)">
       <defs>
        <path id="DejaVuSans-39" d="M 703 97 
L 703 672 
Q 941 559 1184 500 
Q 1428 441 1663 441 
Q 2288 441 2617 861 
Q 2947 1281 2994 2138 
Q 2813 1869 2534 1725 
Q 2256 1581 1919 1581 
Q 1219 1581 811 2004 
Q 403 2428 403 3163 
Q 403 3881 828 4315 
Q 1253 4750 1959 4750 
Q 2769 4750 3195 4129 
Q 3622 3509 3622 2328 
Q 3622 1225 3098 567 
Q 2575 -91 1691 -91 
Q 1453 -91 1209 -44 
Q 966 3 703 97 
z
M 1959 2075 
Q 2384 2075 2632 2365 
Q 2881 2656 2881 3163 
Q 2881 3666 2632 3958 
Q 2384 4250 1959 4250 
Q 1534 4250 1286 3958 
Q 1038 3666 1038 3163 
Q 1038 2656 1286 2365 
Q 1534 2075 1959 2075 
z
" transform="scale(0.015625)"/>
       </defs>
       <use xlink:href="#DejaVuSans-31" transform="translate(0 0.765625)"/>
       <use xlink:href="#DejaVuSans-30" transform="translate(63.623047 0.765625)"/>
       <use xlink:href="#DejaVuSans-2212" transform="translate(128.203125 39.046875) scale(0.7)"/>
       <use xlink:href="#DejaVuSans-39" transform="translate(186.855469 39.046875) scale(0.7)"/>
      </g>
     </g>
    </g>
    <g id="ytick_5">
     <g id="line2d_14">
      <g>
       <use xlink:href="#m9c00e24bf7" x="57.6" y="143.056966" style="stroke: #000000; stroke-width: 0.8"/>
      </g>
     </g>
     <g id="text_15">
      <!-- $\mathdefault{10^{-7}}$ -->
      <g transform="translate(27.1 146.856185) scale(0.1 -0.1)">
       <defs>
        <path id="DejaVuSans-37" d="M 525 4666 
L 3525 4666 
L 3525 4397 
L 1831 0 
L 1172 0 
L 2766 4134 
L 525 4134 
L 525 4666 
z
" transform="scale(0.015625)"/>
       </defs>
       <use xlink:href="#DejaVuSans-31" transform="translate(0 0.684375)"/>
       <use xlink:href="#DejaVuSans-30" transform="translate(63.623047 0.684375)"/>
       <use xlink:href="#DejaVuSans-2212" transform="translate(128.203125 38.965625) scale(0.7)"/>
       <use xlink:href="#DejaVuSans-37" transform="translate(186.855469 38.965625) scale(0.7)"/>
      </g>
     </g>
    </g>
    <g id="ytick_6">
     <g id="line2d_15">
      <g>
       <use xlink:href="#m9c00e24bf7" x="57.6" y="108.932173" style="stroke: #000000; stroke-width: 0.8"/>
      </g>
     </g>
     <g id="text_16">
      <!-- $\mathdefault{10^{-5}}$ -->
      <g transform="translate(27.1 112.731392) scale(0.1 -0.1)">
       <use xlink:href="#DejaVuSans-31" transform="translate(0 0.684375)"/>
       <use xlink:href="#DejaVuSans-30" transform="translate(63.623047 0.684375)"/>
       <use xlink:href="#DejaVuSans-2212" transform="translate(128.203125 38.965625) scale(0.7)"/>
       <use xlink:href="#DejaVuSans-35" transform="translate(186.855469 38.965625) scale(0.7)"/>
      </g>
     </g>
    </g>
    <g id="ytick_7">
     <g id="line2d_16">
      <g>
       <use xlink:href="#m9c00e24bf7" x="57.6" y="74.80738" style="stroke: #000000; stroke-width: 0.8"/>
      </g>
     </g>
     <g id="text_17">
      <!-- $\mathdefault{10^{-3}}$ -->
      <g transform="translate(27.1 78.606599) scale(0.1 -0.1)">
       <use xlink:href="#DejaVuSans-31" transform="translate(0 0.765625)"/>
       <use xlink:href="#DejaVuSans-30" transform="translate(63.623047 0.765625)"/>
       <use xlink:href="#DejaVuSans-2212" transform="translate(128.203125 39.046875) scale(0.7)"/>
       <use xlink:href="#DejaVuSans-33" transform="translate(186.855469 39.046875) scale(0.7)"/>
      </g>
     </g>
    </g>
    <g id="text_18">
     <!-- Loss -->
     <g transform="translate(16.620312 185.495187) rotate(-90) scale(0.1 -0.1)">
      <defs>
       <path id="DejaVuSans-4c" d="M 628 4666 
L 1259 4666 
L 1259 531 
L 3531 531 
L 3531 0 
L 628 0 
L 628 4666 
z
" transform="scale(0.015625)"/>
      </defs>
      <use xlink:href="#DejaVuSans-4c"/>
      <use xlink:href="#DejaVuSans-6f" x="53.962891"/>
      <use xlink:href="#DejaVuSans-73" x="115.144531"/>
      <use xlink:href="#DejaVuSans-73" x="167.244141"/>
     </g>
    </g>
   </g>
   <g id="line2d_17">
    <path d="M 73.832727 55.265463 
L 74.644364 55.531778 
L 75.456 55.527437 
L 77.079273 59.125616 
L 77.890909 56.49637 
L 78.702545 60.031999 
L 79.514182 61.196336 
L 80.325818 56.222804 
L 81.137455 61.537223 
L 81.949091 56.314178 
L 82.760727 61.355683 
L 83.572364 55.90375 
L 84.384 59.487266 
L 85.195636 68.552012 
L 86.007273 63.530088 
L 86.818909 67.871092 
L 87.630545 61.81634 
L 88.442182 59.040772 
L 89.253818 61.16206 
L 90.065455 57.198265 
L 90.877091 68.850222 
L 91.688727 54.438423 
L 92.500364 64.189308 
L 93.312 72.267916 
L 94.123636 55.144283 
L 94.935273 62.645944 
L 95.746909 62.846132 
L 96.558545 53.568 
L 97.370182 62.025994 
L 98.181818 65.33876 
L 98.993455 74.602965 
L 99.805091 77.691751 
L 100.616727 83.152757 
L 101.428364 78.062069 
L 102.24 81.59908 
L 103.051636 79.191533 
L 103.863273 77.591166 
L 104.674909 76.757017 
L 105.486545 72.468274 
L 106.298182 89.300181 
L 107.109818 73.630551 
L 107.921455 88.110278 
L 108.733091 86.383172 
L 109.544727 81.964478 
L 110.356364 79.668364 
L 111.168 74.798419 
L 111.979636 83.946353 
L 112.791273 86.465582 
L 113.602909 86.772489 
L 115.226182 96.534092 
L 116.037818 106.308243 
L 116.849455 107.220316 
L 117.661091 106.10805 
L 118.472727 111.112827 
L 119.284364 115.304356 
L 120.096 118.690919 
L 120.907636 118.284151 
L 121.719273 114.415928 
L 122.530909 120.100696 
L 123.342545 118.821402 
L 124.154182 123.833658 
L 124.965818 120.511748 
L 125.777455 125.386776 
L 126.589091 114.990741 
L 127.400727 122.108381 
L 128.212364 110.910004 
L 129.024 120.526365 
L 129.835636 109.634372 
L 130.647273 118.707308 
L 131.458909 110.067592 
L 132.270545 111.342943 
L 133.082182 106.132793 
L 133.893818 105.223936 
L 134.705455 99.351907 
L 135.517091 99.709697 
L 136.328727 95.221207 
L 137.140364 96.619068 
L 137.952 94.894167 
L 138.763636 99.807332 
L 139.575273 97.951442 
L 140.386909 110.479426 
L 141.198545 105.216841 
L 142.010182 122.935839 
L 142.821818 123.746158 
L 143.633455 124.85952 
L 144.445091 127.807608 
L 145.256727 128.902129 
L 146.068364 137.12772 
L 146.88 136.630789 
L 147.691636 129.762398 
L 148.503273 126.477384 
L 149.314909 133.099274 
L 150.126545 142.889478 
L 150.938182 134.496832 
L 151.749818 129.348365 
L 152.561455 130.402407 
L 153.373091 138.938494 
L 154.184727 144.166854 
L 154.996364 133.470661 
L 155.808 130.906162 
L 156.619636 135.377765 
L 157.431273 147.596956 
L 159.054545 133.542176 
L 159.866182 133.871189 
L 161.489455 149.184858 
L 162.301091 137.855529 
L 163.112727 134.556946 
L 163.924364 138.038198 
L 164.736 149.643424 
L 165.547636 145.49557 
L 166.359273 137.637243 
L 167.170909 137.112588 
L 167.982545 143.681101 
L 168.794182 154.146137 
L 169.605818 142.706796 
L 170.417455 138.388405 
L 171.229091 140.969713 
L 172.040727 151.334825 
L 172.852364 151.073606 
L 173.664 141.990707 
L 174.475636 140.576809 
L 175.287273 146.070276 
L 176.098909 158.088176 
L 176.910545 147.686764 
L 177.722182 142.399708 
L 178.533818 143.937139 
L 179.345455 153.324219 
L 180.157091 156.821534 
L 180.968727 146.339425 
L 181.780364 144.301669 
L 182.592 148.684834 
L 183.403636 161.021783 
L 184.215273 152.923347 
L 185.026909 146.465809 
L 185.838545 147.120689 
L 187.461818 162.311891 
L 188.273455 151.048487 
L 189.085091 147.693273 
L 189.896727 151.278427 
L 190.708364 162.86266 
L 191.52 158.25447 
L 192.331636 150.453536 
L 193.143273 150.270635 
L 193.954909 156.905196 
L 194.766545 167.168951 
L 195.578182 155.729342 
L 196.389818 151.524206 
L 197.201455 154.044284 
L 198.013091 164.530008 
L 198.824727 163.834827 
L 199.636364 154.867014 
L 200.448 153.656913 
L 201.259636 159.195902 
L 202.071273 171.155312 
L 202.882909 160.564901 
L 203.694545 155.421144 
L 204.506182 156.743034 
L 205.317818 166.147863 
L 206.129455 169.421769 
L 206.941091 158.994938 
L 207.752727 156.942507 
L 208.564364 161.601752 
L 209.376 174.011809 
L 210.187636 165.49762 
L 210.999273 158.880773 
L 211.810909 159.945936 
L 212.622545 167.763007 
L 213.434182 174.461316 
L 214.245818 163.252509 
L 215.057455 160.410535 
L 215.869091 163.858722 
L 216.680727 175.536308 
L 217.492364 170.825206 
L 218.304 162.986976 
L 219.115636 162.479573 
L 219.927273 169.276749 
L 220.738909 179.493838 
L 221.550545 167.764795 
L 222.362182 163.835071 
L 223.173818 166.141079 
L 223.985455 176.962653 
L 224.797091 176.519959 
L 225.608727 167.004034 
L 226.420364 165.826104 
L 227.232 171.394585 
L 228.043636 183.170797 
L 228.855273 172.874272 
L 229.666909 167.724939 
L 230.478545 168.963477 
L 231.290182 178.240575 
L 232.101818 181.995358 
L 232.913455 171.142903 
L 233.725091 169.699634 
L 234.536727 173.089943 
L 235.348364 186.735029 
L 236.971636 171.387632 
L 237.783273 172.349003 
L 239.406545 187.292104 
L 240.218182 176.010369 
L 241.029818 173.387986 
L 241.841455 175.440377 
L 242.653091 188.582133 
L 243.464727 184.224847 
L 244.276364 174.863705 
L 245.088 175.253018 
L 245.899636 182.121729 
L 246.711273 191.569022 
L 247.522909 179.282859 
L 248.334545 175.900534 
L 249.146182 177.949477 
L 249.957818 189.468787 
L 250.769455 186.8658 
L 251.581091 177.705736 
L 252.392727 177.266224 
L 253.204364 183.146859 
L 254.016 194.534418 
L 254.827636 183.509321 
L 255.639273 177.617578 
L 256.450909 180.571364 
L 257.262545 189.792112 
L 258.074182 189.878598 
L 258.885818 181.379939 
L 259.697455 179.851716 
L 260.509091 185.859152 
L 261.320727 197.482674 
L 262.132364 186.218904 
L 262.944 181.193793 
L 263.755636 183.635071 
L 264.567273 194.270203 
L 265.378909 191.95733 
L 266.190545 184.676531 
L 267.002182 182.817471 
L 267.813818 188.940447 
L 268.625455 199.788185 
L 269.437091 188.485406 
L 270.248727 185.192084 
L 271.060364 186.027341 
L 271.872 198.670095 
L 272.683636 197.356307 
L 273.495273 186.161349 
L 274.306909 186.920317 
L 275.118545 192.567496 
L 275.930182 203.271748 
L 276.741818 192.134739 
L 277.553455 186.695701 
L 278.365091 189.042902 
L 279.176727 202.647069 
L 279.988364 198.209565 
L 280.8 188.345132 
L 281.611636 189.506421 
L 282.423273 193.274847 
L 283.234909 203.892855 
L 284.046545 192.959628 
L 284.858182 188.150038 
L 285.669818 190.977304 
L 286.481455 203.951998 
L 287.293091 196.280443 
L 288.104727 190.646127 
L 288.916364 189.76522 
L 289.728 199.378848 
L 290.539636 204.926217 
L 291.351273 194.840531 
L 292.162909 192.735202 
L 292.974545 196.856898 
L 293.786182 210.456923 
L 294.597818 200.649648 
L 295.409455 195.965918 
L 296.221091 196.084017 
L 297.032727 207.37502 
L 297.844364 208.349142 
L 298.656 198.358522 
L 299.467636 198.684639 
L 300.279273 199.740627 
L 301.090909 212.755816 
L 301.902545 202.966473 
L 302.714182 199.232387 
L 303.525818 200.76635 
L 304.337455 209.958618 
L 305.149091 207.125605 
L 305.960727 203.795489 
L 306.772364 204.850053 
L 307.584 209.457867 
L 308.395636 219.309607 
L 309.207273 209.623276 
L 310.018909 206.820979 
L 310.830545 215.460013 
L 311.642182 230.137751 
L 312.453818 219.424773 
L 313.265455 214.298393 
L 314.077091 217.318072 
L 314.888727 232.201859 
L 315.700364 228.938749 
L 316.512 226.571889 
L 317.323636 231.387324 
L 318.135273 248.748679 
L 318.946909 245.436541 
L 319.758545 256.697343 
L 320.570182 263.755364 
L 321.381818 265.528259 
L 323.005091 265.484684 
L 323.816727 256.367721 
L 324.628364 262.525272 
L 325.44 263.303735 
L 326.251636 263.346461 
L 327.063273 262.708218 
L 327.874909 260.017297 
L 328.686545 263.266722 
L 329.498182 265.038407 
L 330.309818 263.269198 
L 331.121455 264.273399 
L 331.933091 266.533792 
L 333.556364 261.602077 
L 334.368 266.292585 
L 335.179636 276.263392 
L 335.991273 272.367506 
L 336.802909 276.624077 
L 337.614545 280.192746 
L 338.426182 294.599526 
L 339.237818 295.488 
L 340.049455 295.209509 
L 340.861091 294.57159 
L 341.672727 294.57159 
L 342.484364 289.909218 
L 343.296 279.525597 
L 344.107636 264.889763 
L 344.919273 263.997232 
L 346.542545 289.014954 
L 347.354182 279.030443 
L 348.165818 276.228124 
L 348.977455 289.014954 
L 349.789091 292.851277 
L 350.600727 293.612513 
L 351.412364 281.777531 
L 352.224 267.241444 
L 353.035636 266.233531 
L 353.847273 261.201429 
L 354.658909 267.226131 
L 355.470545 267.196061 
L 356.282182 277.488367 
L 357.093818 280.855899 
L 357.905455 280.85809 
L 358.717091 270.183993 
L 359.528727 289.987598 
L 360.340364 290.085817 
L 361.152 272.240163 
L 361.963636 279.009076 
L 362.775273 274.49649 
L 363.586909 278.921564 
L 364.398545 284.694565 
L 365.210182 284.58155 
L 366.021818 284.58155 
L 366.833455 284.694565 
L 367.645091 283.628804 
L 368.456727 283.628804 
L 369.268364 283.335607 
L 370.08 269.810957 
L 370.891636 264.415522 
L 371.703273 283.4827 
L 372.514909 277.44544 
L 373.326545 289.717726 
L 374.138182 289.797755 
L 374.949818 289.588598 
L 375.761455 284.621457 
L 376.573091 290.005456 
L 377.384727 284.515358 
L 378.196364 289.871261 
L 379.008 290.028045 
L 379.819636 290.028045 
L 380.631273 287.983643 
L 381.442909 287.881295 
L 382.254545 290.028045 
L 383.066182 295.440884 
L 383.877818 295.440884 
L 384.689455 295.149038 
L 385.501091 294.634537 
L 386.312727 295.209509 
L 387.124364 295.488 
L 388.747636 295.014742 
L 389.559273 295.209509 
L 390.370909 286.918706 
L 391.182545 295.440884 
L 398.487273 295.488 
L 398.487273 295.488 
" clip-path="url(#p9e725b7f8c)" style="fill: none; stroke: #1f77b4; stroke-width: 1.5; stroke-linecap: square"/>
   </g>
   <g id="patch_3">
    <path d="M 57.6 307.584 
L 57.6 41.472 
" style="fill: none; stroke: #000000; stroke-width: 0.8; stroke-linejoin: miter; stroke-linecap: square"/>
   </g>
   <g id="patch_4">
    <path d="M 414.72 307.584 
L 414.72 41.472 
" style="fill: none; stroke: #000000; stroke-width: 0.8; stroke-linejoin: miter; stroke-linecap: square"/>
   </g>
   <g id="patch_5">
    <path d="M 57.6 307.584 
L 414.72 307.584 
" style="fill: none; stroke: #000000; stroke-width: 0.8; stroke-linejoin: miter; stroke-linecap: square"/>
   </g>
   <g id="patch_6">
    <path d="M 57.6 41.472 
L 414.72 41.472 
" style="fill: none; stroke: #000000; stroke-width: 0.8; stroke-linejoin: miter; stroke-linecap: square"/>
   </g>
  </g>
 </g>
 <defs>
  <clipPath id="p9e725b7f8c">
   <rect x="57.6" y="41.472" width="357.12" height="266.112"/>
  </clipPath>
 </defs>
</svg>
